<svg xmlns="http://www.w3.org/2000/svg" xmlns:xlink="http://www.w3.org/1999/xlink" version="1.1" class="marks" width="771" height="359" viewBox="0 0 771 359"><rect width="771" height="359" fill="white"/><g fill="none" stroke-miterlimit="10" transform="translate(42,22)"><g class="mark-group role-frame root" role="graphics-object" aria-roledescription="group mark container"><g transform="translate(0,0)"><path class="background" aria-hidden="true" d="M0.5,0.5h650v300h-650Z" stroke="#ddd"/><g><g class="mark-group role-axis" role="graphics-symbol" aria-roledescription="axis" aria-label="X-axis for a linear scale with values from 0.6 to 1.2"><g transform="translate(0.5,300.5)"><path class="background" aria-hidden="true" d="M0,0h0v0h0Z" pointer-events="none"/><g><g class="mark-rule role-axis-grid" pointer-events="none"><line transform="translate(82,-300)" x2="0" y2="300" stroke="#ddd" stroke-width="1" opacity="1"/><line transform="translate(133,-300)" x2="0" y2="300" stroke="#ddd" stroke-width="1" opacity="1"/><line transform="translate(185,-300)" x2="0" y2="300" stroke="#ddd" stroke-width="1" opacity="1"/><line transform="translate(237,-300)" x2="0" y2="300" stroke="#ddd" stroke-width="1" opacity="1"/><line transform="translate(288,-300)" x2="0" y2="300" stroke="#ddd" stroke-width="1" opacity="1"/><line transform="translate(340,-300)" x2="0" y2="300" stroke="#ddd" stroke-width="1" opacity="1"/><line transform="translate(392,-300)" x2="0" y2="300" stroke="#ddd" stroke-width="1" opacity="1"/><line transform="translate(443,-300)" x2="0" y2="300" stroke="#ddd" stroke-width="1" opacity="1"/><line transform="translate(495,-300)" x2="0" y2="300" stroke="#ddd" stroke-width="1" opacity="1"/><line transform="translate(547,-300)" x2="0" y2="300" stroke="#ddd" stroke-width="1" opacity="1"/><line transform="translate(30,-300)" x2="0" y2="300" stroke="#ddd" stroke-width="1" opacity="1"/><line transform="translate(599,-300)" x2="0" y2="300" stroke="#ddd" stroke-width="1" opacity="1"/></g></g><path class="foreground" aria-hidden="true" d="" pointer-events="none" display="none"/></g></g><g class="mark-group role-axis" role="graphics-symbol" aria-roledescription="axis" aria-label="Y-axis for a linear scale with values from 0.6 to 1.3"><g transform="translate(0.5,0.5)"><path class="background" aria-hidden="true" d="M0,0h0v0h0Z" pointer-events="none"/><g><g class="mark-rule role-axis-grid" pointer-events="none"><line transform="translate(0,217)" x2="650" y2="0" stroke="#ddd" stroke-width="1" opacity="1"/><line transform="translate(0,129)" x2="650" y2="0" stroke="#ddd" stroke-width="1" opacity="1"/><line transform="translate(0,262)" x2="650" y2="0" stroke="#ddd" stroke-width="1" opacity="1"/><line transform="translate(0,173)" x2="650" y2="0" stroke="#ddd" stroke-width="1" opacity="1"/><line transform="translate(0,85)" x2="650" y2="0" stroke="#ddd" stroke-width="1" opacity="1"/><line transform="translate(0,41)" x2="650" y2="0" stroke="#ddd" stroke-width="1" opacity="1"/></g></g><path class="foreground" aria-hidden="true" d="" pointer-events="none" display="none"/></g></g><g class="mark-group role-axis" role="graphics-symbol" aria-roledescription="axis" aria-label="X-axis titled 'Hegelian*' for a linear scale with values from 0.6 to 1.2"><g transform="translate(0.5,300.5)"><path class="background" aria-hidden="true" d="M0,0h0v0h0Z" pointer-events="none"/><g><g class="mark-rule role-axis-tick" pointer-events="none"><line transform="translate(82,0)" x2="0" y2="5" stroke="#888" stroke-width="1" opacity="1"/><line transform="translate(133,0)" x2="0" y2="5" stroke="#888" stroke-width="1" opacity="1"/><line transform="translate(185,0)" x2="0" y2="5" stroke="#888" stroke-width="1" opacity="1"/><line transform="translate(237,0)" x2="0" y2="5" stroke="#888" stroke-width="1" opacity="1"/><line transform="translate(288,0)" x2="0" y2="5" stroke="#888" stroke-width="1" opacity="1"/><line transform="translate(340,0)" x2="0" y2="5" stroke="#888" stroke-width="1" opacity="1"/><line transform="translate(392,0)" x2="0" y2="5" stroke="#888" stroke-width="1" opacity="1"/><line transform="translate(443,0)" x2="0" y2="5" stroke="#888" stroke-width="1" opacity="1"/><line transform="translate(495,0)" x2="0" y2="5" stroke="#888" stroke-width="1" opacity="1"/><line transform="translate(547,0)" x2="0" y2="5" stroke="#888" stroke-width="1" opacity="1"/><line transform="translate(30,0)" x2="0" y2="5" stroke="#888" stroke-width="1" opacity="1"/><line transform="translate(599,0)" x2="0" y2="5" stroke="#888" stroke-width="1" opacity="1"/></g><g class="mark-text role-axis-label" pointer-events="none"><text text-anchor="middle" transform="translate(81.52462448257539,15)" font-family="sans-serif" font-size="10px" fill="#000" opacity="1">0.65</text><text text-anchor="middle" transform="translate(133.22875434705577,15)" font-family="sans-serif" font-size="10px" fill="#000" opacity="1">0.70</text><text text-anchor="middle" transform="translate(184.93288421153628,15)" font-family="sans-serif" font-size="10px" fill="#000" opacity="1">0.75</text><text text-anchor="middle" transform="translate(236.63701407601675,15)" font-family="sans-serif" font-size="10px" fill="#000" opacity="1">0.80</text><text text-anchor="middle" transform="translate(288.34114394049715,15)" font-family="sans-serif" font-size="10px" fill="#000" opacity="1">0.85</text><text text-anchor="middle" transform="translate(340.0452738049776,15)" font-family="sans-serif" font-size="10px" fill="#000" opacity="1">0.90</text><text text-anchor="middle" transform="translate(391.749403669458,15)" font-family="sans-serif" font-size="10px" fill="#000" opacity="1">0.95</text><text text-anchor="middle" transform="translate(443.4535335339385,15)" font-family="sans-serif" font-size="10px" fill="#000" opacity="1">1.00</text><text text-anchor="middle" transform="translate(495.15766339841906,15)" font-family="sans-serif" font-size="10px" fill="#000" opacity="1">1.05</text><text text-anchor="middle" transform="translate(546.8617932628995,15)" font-family="sans-serif" font-size="10px" fill="#000" opacity="1">1.10</text><text text-anchor="middle" transform="translate(29.820494618094887,15)" font-family="sans-serif" font-size="10px" fill="#000" opacity="1">0.60</text><text text-anchor="middle" transform="translate(598.5659231273798,15)" font-family="sans-serif" font-size="10px" fill="#000" opacity="1">1.15</text></g><g class="mark-rule role-axis-domain" pointer-events="none"><line transform="translate(0,0)" x2="650" y2="0" stroke="#888" stroke-width="1" opacity="1"/></g><g class="mark-text role-axis-title" pointer-events="none"><text text-anchor="middle" transform="translate(325,30)" font-family="sans-serif" font-size="11px" font-weight="bold" fill="#000" opacity="1">Hegelian*</text></g></g><path class="foreground" aria-hidden="true" d="" pointer-events="none" display="none"/></g></g><g class="mark-group role-axis" role="graphics-symbol" aria-roledescription="axis" aria-label="Y-axis titled 'PolEcon*' for a linear scale with values from 0.6 to 1.3"><g transform="translate(0.5,0.5)"><path class="background" aria-hidden="true" d="M0,0h0v0h0Z" pointer-events="none"/><g><g class="mark-rule role-axis-tick" pointer-events="none"><line transform="translate(0,217)" x2="-5" y2="0" stroke="#888" stroke-width="1" opacity="1"/><line transform="translate(0,129)" x2="-5" y2="0" stroke="#888" stroke-width="1" opacity="1"/><line transform="translate(0,262)" x2="-5" y2="0" stroke="#888" stroke-width="1" opacity="1"/><line transform="translate(0,173)" x2="-5" y2="0" stroke="#888" stroke-width="1" opacity="1"/><line transform="translate(0,85)" x2="-5" y2="0" stroke="#888" stroke-width="1" opacity="1"/><line transform="translate(0,41)" x2="-5" y2="0" stroke="#888" stroke-width="1" opacity="1"/></g><g class="mark-text role-axis-label" pointer-events="none"><text text-anchor="end" transform="translate(-7,220.4917717027754)" font-family="sans-serif" font-size="10px" fill="#000" opacity="1">0.8</text><text text-anchor="end" transform="translate(-7,132.38059181537693)" font-family="sans-serif" font-size="10px" fill="#000" opacity="1">1.0</text><text text-anchor="end" transform="translate(-7,264.54736164647466)" font-family="sans-serif" font-size="10px" fill="#000" opacity="1">0.7</text><text text-anchor="end" transform="translate(-7,176.4361817590762)" font-family="sans-serif" font-size="10px" fill="#000" opacity="1">0.9</text><text text-anchor="end" transform="translate(-7,88.32500187167767)" font-family="sans-serif" font-size="10px" fill="#000" opacity="1">1.1</text><text text-anchor="end" transform="translate(-7,44.2694119279785)" font-family="sans-serif" font-size="10px" fill="#000" opacity="1">1.2</text></g><g class="mark-rule role-axis-domain" pointer-events="none"><line transform="translate(0,300)" x2="0" y2="-300" stroke="#888" stroke-width="1" opacity="1"/></g><g class="mark-text role-axis-title" pointer-events="none"><text text-anchor="middle" transform="translate(-26,150) rotate(-90) translate(0,-2)" font-family="sans-serif" font-size="11px" font-weight="bold" fill="#000" opacity="1">PolEcon*</text></g></g><path class="foreground" aria-hidden="true" d="" pointer-events="none" display="none"/></g></g><g class="mark-symbol role-mark layer_0_marks" clip-path="url(#clip16)" role="graphics-symbol" aria-roledescription="symbol mark container"><path transform="translate(253.10559836828435,147.51151600614833)" d="M3.872983346207417,0A3.872983346207417,3.872983346207417,0,1,1,-3.872983346207417,0A3.872983346207417,3.872983346207417,0,1,1,3.872983346207417,0" fill="#4c78a8" stroke-width="2" opacity="0.7"/><path transform="translate(306.28773216011615,63.15385903497308)" d="M3.872983346207417,0A3.872983346207417,3.872983346207417,0,1,1,-3.872983346207417,0A3.872983346207417,3.872983346207417,0,1,1,3.872983346207417,0" fill="#4c78a8" stroke-width="2" opacity="0.7"/><path transform="translate(260.51064688024746,53.517285158088924)" d="M3.872983346207417,0A3.872983346207417,3.872983346207417,0,1,1,-3.872983346207417,0A3.872983346207417,3.872983346207417,0,1,1,3.872983346207417,0" fill="#4c78a8" stroke-width="2" opacity="0.7"/><path transform="translate(208.90119445245767,159.45667040682352)" d="M3.872983346207417,0A3.872983346207417,3.872983346207417,0,1,1,-3.872983346207417,0A3.872983346207417,3.872983346207417,0,1,1,3.872983346207417,0" fill="#4c78a8" stroke-width="2" opacity="0.7"/><path transform="translate(155.97114458473163,20.621062122746313)" d="M3.872983346207417,0A3.872983346207417,3.872983346207417,0,1,1,-3.872983346207417,0A3.872983346207417,3.872983346207417,0,1,1,3.872983346207417,0" fill="#4c78a8" stroke-width="2" opacity="0.7"/><path transform="translate(193.26901997918273,91.06077511844066)" d="M3.872983346207417,0A3.872983346207417,3.872983346207417,0,1,1,-3.872983346207417,0A3.872983346207417,3.872983346207417,0,1,1,3.872983346207417,0" fill="#4c78a8" stroke-width="2" opacity="0.7"/><path transform="translate(128.93204860516724,164.20457970542486)" d="M3.872983346207417,0A3.872983346207417,3.872983346207417,0,1,1,-3.872983346207417,0A3.872983346207417,3.872983346207417,0,1,1,3.872983346207417,0" fill="#4c78a8" stroke-width="2" opacity="0.7"/><path transform="translate(377.38888315678196,61.97545423825061)" d="M3.872983346207417,0A3.872983346207417,3.872983346207417,0,1,1,-3.872983346207417,0A3.872983346207417,3.872983346207417,0,1,1,3.872983346207417,0" fill="#4c78a8" stroke-width="2" opacity="0.7"/><path transform="translate(349.68333170762463,140.9353027936638)" d="M3.872983346207417,0A3.872983346207417,3.872983346207417,0,1,1,-3.872983346207417,0A3.872983346207417,3.872983346207417,0,1,1,3.872983346207417,0" fill="#4c78a8" stroke-width="2" opacity="0.7"/><path transform="translate(56.951752963454545,169.64574601027226)" d="M3.872983346207417,0A3.872983346207417,3.872983346207417,0,1,1,-3.872983346207417,0A3.872983346207417,3.872983346207417,0,1,1,3.872983346207417,0" fill="#4c78a8" stroke-width="2" opacity="0.7"/><path transform="translate(207.66016103779626,140.60735476177334)" d="M3.872983346207417,0A3.872983346207417,3.872983346207417,0,1,1,-3.872983346207417,0A3.872983346207417,3.872983346207417,0,1,1,3.872983346207417,0" fill="#4c78a8" stroke-width="2" opacity="0.7"/><path transform="translate(265.154627864126,68.34227112459097)" d="M3.872983346207417,0A3.872983346207417,3.872983346207417,0,1,1,-3.872983346207417,0A3.872983346207417,3.872983346207417,0,1,1,3.872983346207417,0" fill="#4c78a8" stroke-width="2" opacity="0.7"/><path transform="translate(270.45473596828845,214.079310062933)" d="M3.872983346207417,0A3.872983346207417,3.872983346207417,0,1,1,-3.872983346207417,0A3.872983346207417,3.872983346207417,0,1,1,3.872983346207417,0" fill="#4c78a8" stroke-width="2" opacity="0.7"/><path transform="translate(158.5182848501041,123.99220623406947)" d="M3.872983346207417,0A3.872983346207417,3.872983346207417,0,1,1,-3.872983346207417,0A3.872983346207417,3.872983346207417,0,1,1,3.872983346207417,0" fill="#4c78a8" stroke-width="2" opacity="0.7"/><path transform="translate(223.6711574963323,78.92310445239679)" d="M3.872983346207417,0A3.872983346207417,3.872983346207417,0,1,1,-3.872983346207417,0A3.872983346207417,3.872983346207417,0,1,1,3.872983346207417,0" fill="#4c78a8" stroke-width="2" opacity="0.7"/><path transform="translate(316.31671723926473,156.67305368609726)" d="M3.872983346207417,0A3.872983346207417,3.872983346207417,0,1,1,-3.872983346207417,0A3.872983346207417,3.872983346207417,0,1,1,3.872983346207417,0" fill="#4c78a8" stroke-width="2" opacity="0.7"/><path transform="translate(588.8675922596755,219.57048548496306)" d="M3.872983346207417,0A3.872983346207417,3.872983346207417,0,1,1,-3.872983346207417,0A3.872983346207417,3.872983346207417,0,1,1,3.872983346207417,0" fill="#4c78a8" stroke-width="2" opacity="0.7"/><path transform="translate(406.8187090310647,252.31396200217662)" d="M3.872983346207417,0A3.872983346207417,3.872983346207417,0,1,1,-3.872983346207417,0A3.872983346207417,3.872983346207417,0,1,1,3.872983346207417,0" fill="#4c78a8" stroke-width="2" opacity="0.7"/><path transform="translate(549.6871906719357,225.69619557958222)" d="M3.872983346207417,0A3.872983346207417,3.872983346207417,0,1,1,-3.872983346207417,0A3.872983346207417,3.872983346207417,0,1,1,3.872983346207417,0" fill="#4c78a8" stroke-width="2" opacity="0.7"/><path transform="translate(597.9943273202625,251.96748501906671)" d="M3.872983346207417,0A3.872983346207417,3.872983346207417,0,1,1,-3.872983346207417,0A3.872983346207417,3.872983346207417,0,1,1,3.872983346207417,0" fill="#4c78a8" stroke-width="2" opacity="0.7"/><path transform="translate(447.13957992925884,267.74585109211006)" d="M3.872983346207417,0A3.872983346207417,3.872983346207417,0,1,1,-3.872983346207417,0A3.872983346207417,3.872983346207417,0,1,1,3.872983346207417,0" fill="#4c78a8" stroke-width="2" opacity="0.7"/><path transform="translate(635.0696631451787,208.99442404528813)" d="M3.872983346207417,0A3.872983346207417,3.872983346207417,0,1,1,-3.872983346207417,0A3.872983346207417,3.872983346207417,0,1,1,3.872983346207417,0" fill="#4c78a8" stroke-width="2" opacity="0.7"/><path transform="translate(415.00475335886944,179.20480617292372)" d="M3.872983346207417,0A3.872983346207417,3.872983346207417,0,1,1,-3.872983346207417,0A3.872983346207417,3.872983346207417,0,1,1,3.872983346207417,0" fill="#4c78a8" stroke-width="2" opacity="0.7"/><path transform="translate(380.67382550932956,224.57691414355887)" d="M3.872983346207417,0A3.872983346207417,3.872983346207417,0,1,1,-3.872983346207417,0A3.872983346207417,3.872983346207417,0,1,1,3.872983346207417,0" fill="#4c78a8" stroke-width="2" opacity="0.7"/><path transform="translate(213.41560467826523,187.94859737466766)" d="M3.872983346207417,0A3.872983346207417,3.872983346207417,0,1,1,-3.872983346207417,0A3.872983346207417,3.872983346207417,0,1,1,3.872983346207417,0" fill="#4c78a8" stroke-width="2" opacity="0.7"/><path transform="translate(514.243102547501,208.8548473960016)" d="M3.872983346207417,0A3.872983346207417,3.872983346207417,0,1,1,-3.872983346207417,0A3.872983346207417,3.872983346207417,0,1,1,3.872983346207417,0" fill="#4c78a8" stroke-width="2" opacity="0.7"/><path transform="translate(427.0615584966388,233.2753846058456)" d="M3.872983346207417,0A3.872983346207417,3.872983346207417,0,1,1,-3.872983346207417,0A3.872983346207417,3.872983346207417,0,1,1,3.872983346207417,0" fill="#4c78a8" stroke-width="2" opacity="0.7"/><path transform="translate(500.17073164582007,228.57401942035622)" d="M3.872983346207417,0A3.872983346207417,3.872983346207417,0,1,1,-3.872983346207417,0A3.872983346207417,3.872983346207417,0,1,1,3.872983346207417,0" fill="#4c78a8" stroke-width="2" opacity="0.7"/><path transform="translate(448.25767873497136,152.36118545559387)" d="M3.872983346207417,0A3.872983346207417,3.872983346207417,0,1,1,-3.872983346207417,0A3.872983346207417,3.872983346207417,0,1,1,3.872983346207417,0" fill="#4c78a8" stroke-width="2" opacity="0.7"/></g><g class="mark-symbol role-mark layer_1_marks" clip-path="url(#clip17)" role="graphics-symbol" aria-roledescription="symbol mark container"><path transform="translate(225.14505208106686,129.38059181537693)" d="M5.477225575051661,0A5.477225575051661,5.477225575051661,0,1,1,-5.477225575051661,0A5.477225575051661,5.477225575051661,0,1,1,5.477225575051661,0" fill="#f58518" stroke-width="2" opacity="0.7"/><path transform="translate(443.4535335339385,210.8034392507999)" d="M5.477225575051661,0A5.477225575051661,5.477225575051661,0,1,1,-5.477225575051661,0A5.477225575051661,5.477225575051661,0,1,1,5.477225575051661,0" fill="#f58518" stroke-width="2" opacity="0.7"/></g><g class="mark-text role-mark layer_2_marks" clip-path="url(#clip18)" role="graphics-object" aria-roledescription="text mark container" pointer-events="none"><text text-anchor="middle" transform="translate(233.10559836828435,148.51151600614833)" font-family="sans-serif" font-size="11px" fill="black">become</text><text text-anchor="middle" transform="translate(286.28773216011615,64.15385903497308)" font-family="sans-serif" font-size="11px" fill="black">gold</text><text text-anchor="middle" transform="translate(240.51064688024746,54.517285158088924)" font-family="sans-serif" font-size="11px" fill="black">labor</text><text text-anchor="middle" transform="translate(188.90119445245767,160.45667040682352)" font-family="sans-serif" font-size="11px" fill="black">land</text><text text-anchor="middle" transform="translate(135.97114458473163,21.621062122746313)" font-family="sans-serif" font-size="11px" fill="black">capital</text><text text-anchor="middle" transform="translate(173.26901997918273,92.06077511844066)" font-family="sans-serif" font-size="11px" fill="black">price</text><text text-anchor="middle" transform="translate(108.93204860516724,165.20457970542486)" font-family="sans-serif" font-size="11px" fill="black">trade</text><text text-anchor="middle" transform="translate(357.38888315678196,62.97545423825061)" font-family="sans-serif" font-size="11px" fill="black">value</text><text text-anchor="middle" transform="translate(329.68333170762463,141.9353027936638)" font-family="sans-serif" font-size="11px" fill="black">surplus</text><text text-anchor="middle" transform="translate(36.951752963454545,170.64574601027226)" font-family="sans-serif" font-size="11px" fill="black">population</text><text text-anchor="middle" transform="translate(187.66016103779626,141.60735476177334)" font-family="sans-serif" font-size="11px" fill="black">profit</text><text text-anchor="middle" transform="translate(245.15462786412598,69.34227112459097)" font-family="sans-serif" font-size="11px" fill="black">rise</text><text text-anchor="middle" transform="translate(250.45473596828845,215.079310062933)" font-family="sans-serif" font-size="11px" fill="black">follow</text><text text-anchor="middle" transform="translate(138.5182848501041,124.99220623406947)" font-family="sans-serif" font-size="11px" fill="black">to ask</text><text text-anchor="middle" transform="translate(203.6711574963323,79.92310445239679)" font-family="sans-serif" font-size="11px" fill="black">worker</text><text text-anchor="middle" transform="translate(296.31671723926473,157.67305368609726)" font-family="sans-serif" font-size="11px" fill="black">self</text><text text-anchor="middle" transform="translate(568.8675922596755,220.57048548496306)" font-family="sans-serif" font-size="11px" fill="black">god</text><text text-anchor="middle" transform="translate(386.8187090310647,253.31396200217662)" font-family="sans-serif" font-size="11px" fill="black">spirit</text><text text-anchor="middle" transform="translate(529.6871906719357,226.69619557958222)" font-family="sans-serif" font-size="11px" fill="black">being</text><text text-anchor="middle" transform="translate(577.9943273202625,252.96748501906671)" font-family="sans-serif" font-size="11px" fill="black">christ</text><text text-anchor="middle" transform="translate(427.13957992925884,268.74585109211006)" font-family="sans-serif" font-size="11px" fill="black">jesus</text><text text-anchor="middle" transform="translate(615.0696631451787,209.99442404528813)" font-family="sans-serif" font-size="11px" fill="black">awareness</text><text text-anchor="middle" transform="translate(395.00475335886944,180.20480617292372)" font-family="sans-serif" font-size="11px" fill="black">free</text><text text-anchor="middle" transform="translate(360.67382550932956,225.57691414355887)" font-family="sans-serif" font-size="11px" fill="black">to believe</text><text text-anchor="middle" transform="translate(193.41560467826523,188.94859737466766)" font-family="sans-serif" font-size="11px" fill="black">against</text><text text-anchor="middle" transform="translate(494.24310254750105,209.8548473960016)" font-family="sans-serif" font-size="11px" fill="black">religion</text><text text-anchor="middle" transform="translate(407.0615584966388,234.2753846058456)" font-family="sans-serif" font-size="11px" fill="black">dear</text><text text-anchor="middle" transform="translate(480.17073164582007,229.57401942035622)" font-family="sans-serif" font-size="11px" fill="black">concept</text><text text-anchor="middle" transform="translate(428.25767873497136,153.36118545559387)" font-family="sans-serif" font-size="11px" fill="black">really</text></g><g class="mark-text role-mark layer_3_marks" clip-path="url(#clip19)" role="graphics-object" aria-roledescription="text mark container" pointer-events="none"><text text-anchor="middle" transform="translate(233.10559836828435,158.51151600614833)" font-family="sans-serif" font-size="11px" font-style="italic" fill="black">werden</text><text text-anchor="middle" transform="translate(286.28773216011615,74.15385903497308)" font-family="sans-serif" font-size="11px" font-style="italic" fill="black">geld</text><text text-anchor="middle" transform="translate(240.51064688024746,64.51728515808892)" font-family="sans-serif" font-size="11px" font-style="italic" fill="black">arbeit</text><text text-anchor="middle" transform="translate(188.90119445245767,170.45667040682352)" font-family="sans-serif" font-size="11px" font-style="italic" fill="black">land</text><text text-anchor="middle" transform="translate(135.97114458473163,31.621062122746313)" font-family="sans-serif" font-size="11px" font-style="italic" fill="black">kapital</text><text text-anchor="middle" transform="translate(173.26901997918273,102.06077511844066)" font-family="sans-serif" font-size="11px" font-style="italic" fill="black">preis</text><text text-anchor="middle" transform="translate(108.93204860516724,175.20457970542486)" font-family="sans-serif" font-size="11px" font-style="italic" fill="black">handel</text><text text-anchor="middle" transform="translate(357.38888315678196,72.97545423825062)" font-family="sans-serif" font-size="11px" font-style="italic" fill="black">wert</text><text text-anchor="middle" transform="translate(329.68333170762463,151.9353027936638)" font-family="sans-serif" font-size="11px" font-style="italic" fill="black">mehr</text><text text-anchor="middle" transform="translate(36.951752963454545,180.64574601027226)" font-family="sans-serif" font-size="11px" font-style="italic" fill="black">bevolkerung</text><text text-anchor="middle" transform="translate(187.66016103779626,151.60735476177334)" font-family="sans-serif" font-size="11px" font-style="italic" fill="black">gewinn</text><text text-anchor="middle" transform="translate(245.15462786412598,79.34227112459097)" font-family="sans-serif" font-size="11px" font-style="italic" fill="black">steigen</text><text text-anchor="middle" transform="translate(250.45473596828845,225.079310062933)" font-family="sans-serif" font-size="11px" font-style="italic" fill="black">folgen</text><text text-anchor="middle" transform="translate(138.5182848501041,134.99220623406947)" font-family="sans-serif" font-size="11px" font-style="italic" fill="black">nachfragen</text><text text-anchor="middle" transform="translate(203.6711574963323,89.92310445239679)" font-family="sans-serif" font-size="11px" font-style="italic" fill="black">arbeiter</text><text text-anchor="middle" transform="translate(296.31671723926473,167.67305368609726)" font-family="sans-serif" font-size="11px" font-style="italic" fill="black">selbst</text><text text-anchor="middle" transform="translate(568.8675922596755,230.57048548496306)" font-family="sans-serif" font-size="11px" font-style="italic" fill="black">gott</text><text text-anchor="middle" transform="translate(386.8187090310647,263.3139620021766)" font-family="sans-serif" font-size="11px" font-style="italic" fill="black">geist</text><text text-anchor="middle" transform="translate(529.6871906719357,236.69619557958222)" font-family="sans-serif" font-size="11px" font-style="italic" fill="black">wesen</text><text text-anchor="middle" transform="translate(577.9943273202625,262.9674850190667)" font-family="sans-serif" font-size="11px" font-style="italic" fill="black">christ</text><text text-anchor="middle" transform="translate(427.13957992925884,278.74585109211006)" font-family="sans-serif" font-size="11px" font-style="italic" fill="black">jesus</text><text text-anchor="middle" transform="translate(615.0696631451787,219.99442404528813)" font-family="sans-serif" font-size="11px" font-style="italic" fill="black">bewusstsein</text><text text-anchor="middle" transform="translate(395.00475335886944,190.20480617292372)" font-family="sans-serif" font-size="11px" font-style="italic" fill="black">frei</text><text text-anchor="middle" transform="translate(360.67382550932956,235.57691414355887)" font-family="sans-serif" font-size="11px" font-style="italic" fill="black">glauben</text><text text-anchor="middle" transform="translate(193.41560467826523,198.94859737466766)" font-family="sans-serif" font-size="11px" font-style="italic" fill="black">gegen</text><text text-anchor="middle" transform="translate(494.24310254750105,219.8548473960016)" font-family="sans-serif" font-size="11px" font-style="italic" fill="black">religion</text><text text-anchor="middle" transform="translate(407.0615584966388,244.2753846058456)" font-family="sans-serif" font-size="11px" font-style="italic" fill="black">lieb</text><text text-anchor="middle" transform="translate(480.17073164582007,239.57401942035622)" font-family="sans-serif" font-size="11px" font-style="italic" fill="black">begriff</text><text text-anchor="middle" transform="translate(428.25767873497136,163.36118545559387)" font-family="sans-serif" font-size="11px" font-style="italic" fill="black">wirklich</text></g><g class="mark-text role-mark layer_4_marks" clip-path="url(#clip20)" role="graphics-object" aria-roledescription="text mark container" pointer-events="none"><text text-anchor="middle" transform="translate(195.14505208106686,135.38059181537693)" font-family="sans-serif" font-size="11px" font-style="bold" fill="black">PolEcon*</text><text text-anchor="middle" transform="translate(413.4535335339385,216.8034392507999)" font-family="sans-serif" font-size="11px" font-style="bold" fill="black">Hegelian*</text></g><g class="mark-group role-legend" role="graphics-symbol" aria-roledescription="legend" aria-label="Symbol legend titled 'Type' for fill color with 2 values: Word, Centroid"><g transform="translate(668,0)"><path class="background" aria-hidden="true" d="M0,0h56v40h-56Z" pointer-events="none"/><g><g class="mark-group role-legend-entry"><g transform="translate(0,16)"><path class="background" aria-hidden="true" d="M0,0h0v0h0Z" pointer-events="none"/><g><g class="mark-group role-scope" role="graphics-object" aria-roledescription="group mark container"><g transform="translate(0,0)"><path class="background" aria-hidden="true" d="M0,0h56v11h-56Z" pointer-events="none" opacity="1"/><g><g class="mark-symbol role-legend-symbol" pointer-events="none"><path transform="translate(6,6)" d="M5,0A5,5,0,1,1,-5,0A5,5,0,1,1,5,0" fill="#4c78a8" stroke-width="1.5" opacity="0.7"/></g><g class="mark-text role-legend-label" pointer-events="none"><text text-anchor="start" transform="translate(16,9)" font-family="sans-serif" font-size="10px" fill="#000" opacity="1">Word</text></g></g><path class="foreground" aria-hidden="true" d="" pointer-events="none" display="none"/></g><g transform="translate(0,13)"><path class="background" aria-hidden="true" d="M0,0h56v11h-56Z" pointer-events="none" opacity="1"/><g><g class="mark-symbol role-legend-symbol" pointer-events="none"><path transform="translate(6,6)" d="M5,0A5,5,0,1,1,-5,0A5,5,0,1,1,5,0" fill="#f58518" stroke-width="1.5" opacity="0.7"/></g><g class="mark-text role-legend-label" pointer-events="none"><text text-anchor="start" transform="translate(16,9)" font-family="sans-serif" font-size="10px" fill="#000" opacity="1">Centroid</text></g></g><path class="foreground" aria-hidden="true" d="" pointer-events="none" display="none"/></g></g></g><path class="foreground" aria-hidden="true" d="" pointer-events="none" display="none"/></g></g><g class="mark-text role-legend-title" pointer-events="none"><text text-anchor="start" transform="translate(0,9)" font-family="sans-serif" font-size="11px" font-weight="bold" fill="#000" opacity="1">Type</text></g></g><path class="foreground" aria-hidden="true" d="" pointer-events="none" display="none"/></g></g><g class="mark-group role-title"><g transform="translate(325,-17)"><path class="background" aria-hidden="true" d="M0,0h0v0h0Z" pointer-events="none"/><g><g class="mark-text role-title-text" role="graphics-symbol" aria-roledescription="title" aria-label="Title text 'Hegelian* vs. PolEcon*'" pointer-events="none"><text text-anchor="middle" transform="translate(0,10)" font-family="sans-serif" font-size="13px" font-weight="bold" fill="#000" opacity="1">Hegelian* vs. PolEcon*</text></g></g><path class="foreground" aria-hidden="true" d="" pointer-events="none" display="none"/></g></g></g><path class="foreground" aria-hidden="true" d="" display="none"/></g></g></g><defs><clipPath id="clip16"><rect x="0" y="0" width="650" height="300"/></clipPath><clipPath id="clip17"><rect x="0" y="0" width="650" height="300"/></clipPath><clipPath id="clip18"><rect x="0" y="0" width="650" height="300"/></clipPath><clipPath id="clip19"><rect x="0" y="0" width="650" height="300"/></clipPath><clipPath id="clip20"><rect x="0" y="0" width="650" height="300"/></clipPath></defs></svg>