<svg xmlns="http://www.w3.org/2000/svg" xmlns:xlink="http://www.w3.org/1999/xlink" version="1.1" class="marks" width="777" height="359" viewBox="0 0 777 359"><rect width="777" height="359" fill="white"/><g fill="none" stroke-miterlimit="10" transform="translate(48,22)"><g class="mark-group role-frame root" role="graphics-object" aria-roledescription="group mark container"><g transform="translate(0,0)"><path class="background" aria-hidden="true" d="M0.5,0.5h650v300h-650Z" stroke="#ddd"/><g><g class="mark-group role-axis" role="graphics-symbol" aria-roledescription="axis" aria-label="X-axis for a linear scale with values from -1.1 to 1.1"><g transform="translate(0.5,300.5)"><path class="background" aria-hidden="true" d="M0,0h0v0h0Z" pointer-events="none"/><g><g class="mark-rule role-axis-grid" pointer-events="none"><line transform="translate(38,-300)" x2="0" y2="300" stroke="#ddd" stroke-width="1" opacity="1"/><line transform="translate(66,-300)" x2="0" y2="300" stroke="#ddd" stroke-width="1" opacity="1"/><line transform="translate(95,-300)" x2="0" y2="300" stroke="#ddd" stroke-width="1" opacity="1"/><line transform="translate(124,-300)" x2="0" y2="300" stroke="#ddd" stroke-width="1" opacity="1"/><line transform="translate(153,-300)" x2="0" y2="300" stroke="#ddd" stroke-width="1" opacity="1"/><line transform="translate(181,-300)" x2="0" y2="300" stroke="#ddd" stroke-width="1" opacity="1"/><line transform="translate(210,-300)" x2="0" y2="300" stroke="#ddd" stroke-width="1" opacity="1"/><line transform="translate(239,-300)" x2="0" y2="300" stroke="#ddd" stroke-width="1" opacity="1"/><line transform="translate(267,-300)" x2="0" y2="300" stroke="#ddd" stroke-width="1" opacity="1"/><line transform="translate(296,-300)" x2="0" y2="300" stroke="#ddd" stroke-width="1" opacity="1"/><line transform="translate(325,-300)" x2="0" y2="300" stroke="#ddd" stroke-width="1" opacity="1"/><line transform="translate(353,-300)" x2="0" y2="300" stroke="#ddd" stroke-width="1" opacity="1"/><line transform="translate(382,-300)" x2="0" y2="300" stroke="#ddd" stroke-width="1" opacity="1"/><line transform="translate(411,-300)" x2="0" y2="300" stroke="#ddd" stroke-width="1" opacity="1"/><line transform="translate(439,-300)" x2="0" y2="300" stroke="#ddd" stroke-width="1" opacity="1"/><line transform="translate(468,-300)" x2="0" y2="300" stroke="#ddd" stroke-width="1" opacity="1"/><line transform="translate(497,-300)" x2="0" y2="300" stroke="#ddd" stroke-width="1" opacity="1"/><line transform="translate(525,-300)" x2="0" y2="300" stroke="#ddd" stroke-width="1" opacity="1"/><line transform="translate(554,-300)" x2="0" y2="300" stroke="#ddd" stroke-width="1" opacity="1"/><line transform="translate(583,-300)" x2="0" y2="300" stroke="#ddd" stroke-width="1" opacity="1"/><line transform="translate(611,-300)" x2="0" y2="300" stroke="#ddd" stroke-width="1" opacity="1"/><line transform="translate(640,-300)" x2="0" y2="300" stroke="#ddd" stroke-width="1" opacity="1"/><line transform="translate(9,-300)" x2="0" y2="300" stroke="#ddd" stroke-width="1" opacity="1"/></g></g><path class="foreground" aria-hidden="true" d="" pointer-events="none" display="none"/></g></g><g class="mark-group role-axis" role="graphics-symbol" aria-roledescription="axis" aria-label="Y-axis for a linear scale with values from -0.7 to 0.7"><g transform="translate(0.5,0.5)"><path class="background" aria-hidden="true" d="M0,0h0v0h0Z" pointer-events="none"/><g><g class="mark-rule role-axis-grid" pointer-events="none"><line transform="translate(0,270)" x2="650" y2="0" stroke="#ddd" stroke-width="1" opacity="1"/><line transform="translate(0,228)" x2="650" y2="0" stroke="#ddd" stroke-width="1" opacity="1"/><line transform="translate(0,186)" x2="650" y2="0" stroke="#ddd" stroke-width="1" opacity="1"/><line transform="translate(0,145)" x2="650" y2="0" stroke="#ddd" stroke-width="1" opacity="1"/><line transform="translate(0,103)" x2="650" y2="0" stroke="#ddd" stroke-width="1" opacity="1"/><line transform="translate(0,62)" x2="650" y2="0" stroke="#ddd" stroke-width="1" opacity="1"/><line transform="translate(0,20)" x2="650" y2="0" stroke="#ddd" stroke-width="1" opacity="1"/></g></g><path class="foreground" aria-hidden="true" d="" pointer-events="none" display="none"/></g></g><g class="mark-group role-axis" role="graphics-symbol" aria-roledescription="axis" aria-label="X-axis titled 'First Principal Component' for a linear scale with values from -1.1 to 1.1"><g transform="translate(0.5,300.5)"><path class="background" aria-hidden="true" d="M0,0h0v0h0Z" pointer-events="none"/><g><g class="mark-rule role-axis-tick" pointer-events="none"><line transform="translate(38,0)" x2="0" y2="5" stroke="#888" stroke-width="1" opacity="1"/><line transform="translate(66,0)" x2="0" y2="5" stroke="#888" stroke-width="1" opacity="1"/><line transform="translate(95,0)" x2="0" y2="5" stroke="#888" stroke-width="1" opacity="1"/><line transform="translate(124,0)" x2="0" y2="5" stroke="#888" stroke-width="1" opacity="1"/><line transform="translate(153,0)" x2="0" y2="5" stroke="#888" stroke-width="1" opacity="1"/><line transform="translate(181,0)" x2="0" y2="5" stroke="#888" stroke-width="1" opacity="1"/><line transform="translate(210,0)" x2="0" y2="5" stroke="#888" stroke-width="1" opacity="1"/><line transform="translate(239,0)" x2="0" y2="5" stroke="#888" stroke-width="1" opacity="1"/><line transform="translate(267,0)" x2="0" y2="5" stroke="#888" stroke-width="1" opacity="1"/><line transform="translate(296,0)" x2="0" y2="5" stroke="#888" stroke-width="1" opacity="1"/><line transform="translate(325,0)" x2="0" y2="5" stroke="#888" stroke-width="1" opacity="1"/><line transform="translate(353,0)" x2="0" y2="5" stroke="#888" stroke-width="1" opacity="1"/><line transform="translate(382,0)" x2="0" y2="5" stroke="#888" stroke-width="1" opacity="1"/><line transform="translate(411,0)" x2="0" y2="5" stroke="#888" stroke-width="1" opacity="1"/><line transform="translate(439,0)" x2="0" y2="5" stroke="#888" stroke-width="1" opacity="1"/><line transform="translate(468,0)" x2="0" y2="5" stroke="#888" stroke-width="1" opacity="1"/><line transform="translate(497,0)" x2="0" y2="5" stroke="#888" stroke-width="1" opacity="1"/><line transform="translate(525,0)" x2="0" y2="5" stroke="#888" stroke-width="1" opacity="1"/><line transform="translate(554,0)" x2="0" y2="5" stroke="#888" stroke-width="1" opacity="1"/><line transform="translate(583,0)" x2="0" y2="5" stroke="#888" stroke-width="1" opacity="1"/><line transform="translate(611,0)" x2="0" y2="5" stroke="#888" stroke-width="1" opacity="1"/><line transform="translate(640,0)" x2="0" y2="5" stroke="#888" stroke-width="1" opacity="1"/><line transform="translate(9,0)" x2="0" y2="5" stroke="#888" stroke-width="1" opacity="1"/></g><g class="mark-text role-axis-label" pointer-events="none"><text text-anchor="middle" transform="translate(37.815674342313976,15)" font-family="sans-serif" font-size="10px" fill="#000" opacity="1">-1.0</text><text text-anchor="middle" transform="translate(66.49618072008207,15)" font-family="sans-serif" font-size="10px" fill="#000" opacity="1">-0.9</text><text text-anchor="middle" transform="translate(95.17668709785016,15)" font-family="sans-serif" font-size="10px" fill="#000" opacity="1">-0.8</text><text text-anchor="middle" transform="translate(123.85719347561827,15)" font-family="sans-serif" font-size="10px" fill="#000" opacity="1">-0.7</text><text text-anchor="middle" transform="translate(152.53769985338636,15)" font-family="sans-serif" font-size="10px" fill="#000" opacity="1">-0.6</text><text text-anchor="middle" transform="translate(181.21820623115445,15)" font-family="sans-serif" font-size="10px" fill="#000" opacity="1">-0.5</text><text text-anchor="middle" transform="translate(209.89871260892255,15)" font-family="sans-serif" font-size="10px" fill="#000" opacity="1">-0.4</text><text text-anchor="middle" transform="translate(238.57921898669065,15)" font-family="sans-serif" font-size="10px" fill="#000" opacity="1">-0.3</text><text text-anchor="middle" transform="translate(267.25972536445875,15)" font-family="sans-serif" font-size="10px" fill="#000" opacity="1">-0.2</text><text text-anchor="middle" transform="translate(295.94023174222684,15)" font-family="sans-serif" font-size="10px" fill="#000" opacity="1">-0.1</text><text text-anchor="middle" transform="translate(324.62073811999494,15)" font-family="sans-serif" font-size="10px" fill="#000" opacity="1">0.0</text><text text-anchor="middle" transform="translate(353.3012444977631,15)" font-family="sans-serif" font-size="10px" fill="#000" opacity="1">0.1</text><text text-anchor="middle" transform="translate(381.98175087553113,15)" font-family="sans-serif" font-size="10px" fill="#000" opacity="1">0.2</text><text text-anchor="middle" transform="translate(410.66225725329923,15)" font-family="sans-serif" font-size="10px" fill="#000" opacity="1">0.3</text><text text-anchor="middle" transform="translate(439.3427636310673,15)" font-family="sans-serif" font-size="10px" fill="#000" opacity="1">0.4</text><text text-anchor="middle" transform="translate(468.0232700088355,15)" font-family="sans-serif" font-size="10px" fill="#000" opacity="1">0.5</text><text text-anchor="middle" transform="translate(496.7037763866035,15)" font-family="sans-serif" font-size="10px" fill="#000" opacity="1">0.6</text><text text-anchor="middle" transform="translate(525.3842827643716,15)" font-family="sans-serif" font-size="10px" fill="#000" opacity="1">0.7</text><text text-anchor="middle" transform="translate(554.0647891421397,15)" font-family="sans-serif" font-size="10px" fill="#000" opacity="1">0.8</text><text text-anchor="middle" transform="translate(582.7452955199078,15)" font-family="sans-serif" font-size="10px" fill="#000" opacity="1">0.9</text><text text-anchor="middle" transform="translate(611.4258018976759,15)" font-family="sans-serif" font-size="10px" fill="#000" opacity="1">1.0</text><text text-anchor="middle" transform="translate(640.1063082754441,15)" font-family="sans-serif" font-size="10px" fill="#000" opacity="1">1.1</text><text text-anchor="middle" transform="translate(9.135167964545849,15)" font-family="sans-serif" font-size="10px" fill="#000" opacity="1">-1.1</text></g><g class="mark-rule role-axis-domain" pointer-events="none"><line transform="translate(0,0)" x2="650" y2="0" stroke="#888" stroke-width="1" opacity="1"/></g><g class="mark-text role-axis-title" pointer-events="none"><text text-anchor="middle" transform="translate(325,30)" font-family="sans-serif" font-size="11px" font-weight="bold" fill="#000" opacity="1">First Principal Component</text></g></g><path class="foreground" aria-hidden="true" d="" pointer-events="none" display="none"/></g></g><g class="mark-group role-axis" role="graphics-symbol" aria-roledescription="axis" aria-label="Y-axis titled 'Second Principal Component' for a linear scale with values from -0.7 to 0.7"><g transform="translate(0.5,0.5)"><path class="background" aria-hidden="true" d="M0,0h0v0h0Z" pointer-events="none"/><g><g class="mark-rule role-axis-tick" pointer-events="none"><line transform="translate(0,270)" x2="-5" y2="0" stroke="#888" stroke-width="1" opacity="1"/><line transform="translate(0,228)" x2="-5" y2="0" stroke="#888" stroke-width="1" opacity="1"/><line transform="translate(0,186)" x2="-5" y2="0" stroke="#888" stroke-width="1" opacity="1"/><line transform="translate(0,145)" x2="-5" y2="0" stroke="#888" stroke-width="1" opacity="1"/><line transform="translate(0,103)" x2="-5" y2="0" stroke="#888" stroke-width="1" opacity="1"/><line transform="translate(0,62)" x2="-5" y2="0" stroke="#888" stroke-width="1" opacity="1"/><line transform="translate(0,20)" x2="-5" y2="0" stroke="#888" stroke-width="1" opacity="1"/></g><g class="mark-text role-axis-label" pointer-events="none"><text text-anchor="end" transform="translate(-7,272.7022010311417)" font-family="sans-serif" font-size="10px" fill="#000" opacity="1">-0.6</text><text text-anchor="end" transform="translate(-7,231.09970826339023)" font-family="sans-serif" font-size="10px" fill="#000" opacity="1">-0.4</text><text text-anchor="end" transform="translate(-7,189.4972154956386)" font-family="sans-serif" font-size="10px" fill="#000" opacity="1">-0.2</text><text text-anchor="end" transform="translate(-7,147.89472272788709)" font-family="sans-serif" font-size="10px" fill="#000" opacity="1">0.0</text><text text-anchor="end" transform="translate(-7,106.29222996013553)" font-family="sans-serif" font-size="10px" fill="#000" opacity="1">0.2</text><text text-anchor="end" transform="translate(-7,64.689737192384)" font-family="sans-serif" font-size="10px" fill="#000" opacity="1">0.4</text><text text-anchor="end" transform="translate(-7,23.0872444246324)" font-family="sans-serif" font-size="10px" fill="#000" opacity="1">0.6</text></g><g class="mark-rule role-axis-domain" pointer-events="none"><line transform="translate(0,300)" x2="0" y2="-300" stroke="#888" stroke-width="1" opacity="1"/></g><g class="mark-text role-axis-title" pointer-events="none"><text text-anchor="middle" transform="translate(-32,150) rotate(-90) translate(0,-2)" font-family="sans-serif" font-size="11px" font-weight="bold" fill="#000" opacity="1">Second Principal Component</text></g></g><path class="foreground" aria-hidden="true" d="" pointer-events="none" display="none"/></g></g><g class="mark-symbol role-mark layer_0_marks" clip-path="url(#clip6)" role="graphics-symbol" aria-roledescription="symbol mark container"><path transform="translate(273.8107930161272,11.223044470987109)" d="M3.872983346207417,0A3.872983346207417,3.872983346207417,0,1,1,-3.872983346207417,0A3.872983346207417,3.872983346207417,0,1,1,3.872983346207417,0" fill="#4c78a8" stroke-width="2" opacity="0.7"/><path transform="translate(101.95937564554492,261.8236026918981)" d="M3.872983346207417,0A3.872983346207417,3.872983346207417,0,1,1,-3.872983346207417,0A3.872983346207417,3.872983346207417,0,1,1,3.872983346207417,0" fill="#4c78a8" stroke-width="2" opacity="0.7"/><path transform="translate(279.8219165734556,253.0580352210123)" d="M3.872983346207417,0A3.872983346207417,3.872983346207417,0,1,1,-3.872983346207417,0A3.872983346207417,3.872983346207417,0,1,1,3.872983346207417,0" fill="#4c78a8" stroke-width="2" opacity="0.7"/><path transform="translate(352.91258037283825,282.19955208793704)" d="M3.872983346207417,0A3.872983346207417,3.872983346207417,0,1,1,-3.872983346207417,0A3.872983346207417,3.872983346207417,0,1,1,3.872983346207417,0" fill="#4c78a8" stroke-width="2" opacity="0.7"/><path transform="translate(186.86734874467112,245.87528587035794)" d="M3.872983346207417,0A3.872983346207417,3.872983346207417,0,1,1,-3.872983346207417,0A3.872983346207417,3.872983346207417,0,1,1,3.872983346207417,0" fill="#4c78a8" stroke-width="2" opacity="0.7"/><path transform="translate(42.057005304450364,133.5697025195527)" d="M3.872983346207417,0A3.872983346207417,3.872983346207417,0,1,1,-3.872983346207417,0A3.872983346207417,3.872983346207417,0,1,1,3.872983346207417,0" fill="#4c78a8" stroke-width="2" opacity="0.7"/><path transform="translate(430.3466533508155,257.7518420657264)" d="M3.872983346207417,0A3.872983346207417,3.872983346207417,0,1,1,-3.872983346207417,0A3.872983346207417,3.872983346207417,0,1,1,3.872983346207417,0" fill="#4c78a8" stroke-width="2" opacity="0.7"/><path transform="translate(344.0348930888173,113.02548079750649)" d="M3.872983346207417,0A3.872983346207417,3.872983346207417,0,1,1,-3.872983346207417,0A3.872983346207417,3.872983346207417,0,1,1,3.872983346207417,0" fill="#4c78a8" stroke-width="2" opacity="0.7"/><path transform="translate(192.75223062269689,119.97731696944075)" d="M3.872983346207417,0A3.872983346207417,3.872983346207417,0,1,1,-3.872983346207417,0A3.872983346207417,3.872983346207417,0,1,1,3.872983346207417,0" fill="#4c78a8" stroke-width="2" opacity="0.7"/><path transform="translate(367.7800913683411,72.0427649391107)" d="M3.872983346207417,0A3.872983346207417,3.872983346207417,0,1,1,-3.872983346207417,0A3.872983346207417,3.872983346207417,0,1,1,3.872983346207417,0" fill="#4c78a8" stroke-width="2" opacity="0.7"/><path transform="translate(324.77210866140126,197.28901301346704)" d="M3.872983346207417,0A3.872983346207417,3.872983346207417,0,1,1,-3.872983346207417,0A3.872983346207417,3.872983346207417,0,1,1,3.872983346207417,0" fill="#4c78a8" stroke-width="2" opacity="0.7"/><path transform="translate(306.3683140130807,220.27891720923873)" d="M3.872983346207417,0A3.872983346207417,3.872983346207417,0,1,1,-3.872983346207417,0A3.872983346207417,3.872983346207417,0,1,1,3.872983346207417,0" fill="#4c78a8" stroke-width="2" opacity="0.7"/><path transform="translate(85.92114668946836,189.1590303513658)" d="M3.872983346207417,0A3.872983346207417,3.872983346207417,0,1,1,-3.872983346207417,0A3.872983346207417,3.872983346207417,0,1,1,3.872983346207417,0" fill="#4c78a8" stroke-width="2" opacity="0.7"/><path transform="translate(417.11974664019834,184.27424030977232)" d="M3.872983346207417,0A3.872983346207417,3.872983346207417,0,1,1,-3.872983346207417,0A3.872983346207417,3.872983346207417,0,1,1,3.872983346207417,0" fill="#4c78a8" stroke-width="2" opacity="0.7"/><path transform="translate(221.0605627721104,104.70720894058161)" d="M3.872983346207417,0A3.872983346207417,3.872983346207417,0,1,1,-3.872983346207417,0A3.872983346207417,3.872983346207417,0,1,1,3.872983346207417,0" fill="#4c78a8" stroke-width="2" opacity="0.7"/><path transform="translate(249.87303660625852,214.6138735315055)" d="M3.872983346207417,0A3.872983346207417,3.872983346207417,0,1,1,-3.872983346207417,0A3.872983346207417,3.872983346207417,0,1,1,3.872983346207417,0" fill="#4c78a8" stroke-width="2" opacity="0.7"/><path transform="translate(250.56482144208923,46.04352575074908)" d="M3.872983346207417,0A3.872983346207417,3.872983346207417,0,1,1,-3.872983346207417,0A3.872983346207417,3.872983346207417,0,1,1,3.872983346207417,0" fill="#4c78a8" stroke-width="2" opacity="0.7"/><path transform="translate(226.46041394603992,70.06970818268516)" d="M3.872983346207417,0A3.872983346207417,3.872983346207417,0,1,1,-3.872983346207417,0A3.872983346207417,3.872983346207417,0,1,1,3.872983346207417,0" fill="#4c78a8" stroke-width="2" opacity="0.7"/><path transform="translate(501.2830354212539,197.44024559364553)" d="M3.872983346207417,0A3.872983346207417,3.872983346207417,0,1,1,-3.872983346207417,0A3.872983346207417,3.872983346207417,0,1,1,3.872983346207417,0" fill="#4c78a8" stroke-width="2" opacity="0.7"/><path transform="translate(250.24647948069327,246.98520394691963)" d="M3.872983346207417,0A3.872983346207417,3.872983346207417,0,1,1,-3.872983346207417,0A3.872983346207417,3.872983346207417,0,1,1,3.872983346207417,0" fill="#4c78a8" stroke-width="2" opacity="0.7"/><path transform="translate(585.5670471681855,151.23489960029096)" d="M3.872983346207417,0A3.872983346207417,3.872983346207417,0,1,1,-3.872983346207417,0A3.872983346207417,3.872983346207417,0,1,1,3.872983346207417,0" fill="#4c78a8" stroke-width="2" opacity="0.7"/><path transform="translate(521.3881948180981,107.60100439814279)" d="M3.872983346207417,0A3.872983346207417,3.872983346207417,0,1,1,-3.872983346207417,0A3.872983346207417,3.872983346207417,0,1,1,3.872983346207417,0" fill="#4c78a8" stroke-width="2" opacity="0.7"/><path transform="translate(415.4654107644346,102.58655961561168)" d="M3.872983346207417,0A3.872983346207417,3.872983346207417,0,1,1,-3.872983346207417,0A3.872983346207417,3.872983346207417,0,1,1,3.872983346207417,0" fill="#4c78a8" stroke-width="2" opacity="0.7"/><path transform="translate(559.8167183830216,210.1735984206946)" d="M3.872983346207417,0A3.872983346207417,3.872983346207417,0,1,1,-3.872983346207417,0A3.872983346207417,3.872983346207417,0,1,1,3.872983346207417,0" fill="#4c78a8" stroke-width="2" opacity="0.7"/><path transform="translate(489.6610172629042,148.03298840402346)" d="M3.872983346207417,0A3.872983346207417,3.872983346207417,0,1,1,-3.872983346207417,0A3.872983346207417,3.872983346207417,0,1,1,3.872983346207417,0" fill="#4c78a8" stroke-width="2" opacity="0.7"/><path transform="translate(209.17926543879295,144.35072625095393)" d="M3.872983346207417,0A3.872983346207417,3.872983346207417,0,1,1,-3.872983346207417,0A3.872983346207417,3.872983346207417,0,1,1,3.872983346207417,0" fill="#4c78a8" stroke-width="2" opacity="0.7"/><path transform="translate(234.48131989336076,16.44804909619072)" d="M3.872983346207417,0A3.872983346207417,3.872983346207417,0,1,1,-3.872983346207417,0A3.872983346207417,3.872983346207417,0,1,1,3.872983346207417,0" fill="#4c78a8" stroke-width="2" opacity="0.7"/><path transform="translate(82.39486011521429,163.8132420445194)" d="M3.872983346207417,0A3.872983346207417,3.872983346207417,0,1,1,-3.872983346207417,0A3.872983346207417,3.872983346207417,0,1,1,3.872983346207417,0" fill="#4c78a8" stroke-width="2" opacity="0.7"/><path transform="translate(344.0292672082614,233.7777251452788)" d="M3.872983346207417,0A3.872983346207417,3.872983346207417,0,1,1,-3.872983346207417,0A3.872983346207417,3.872983346207417,0,1,1,3.872983346207417,0" fill="#4c78a8" stroke-width="2" opacity="0.7"/><path transform="translate(304.96369030227163,50.06973028548226)" d="M3.872983346207417,0A3.872983346207417,3.872983346207417,0,1,1,-3.872983346207417,0A3.872983346207417,3.872983346207417,0,1,1,3.872983346207417,0" fill="#4c78a8" stroke-width="2" opacity="0.7"/><path transform="translate(643.9043669902213,207.0733128281374)" d="M3.872983346207417,0A3.872983346207417,3.872983346207417,0,1,1,-3.872983346207417,0A3.872983346207417,3.872983346207417,0,1,1,3.872983346207417,0" fill="#4c78a8" stroke-width="2" opacity="0.7"/><path transform="translate(545.6086652608,35.25744971394255)" d="M3.872983346207417,0A3.872983346207417,3.872983346207417,0,1,1,-3.872983346207417,0A3.872983346207417,3.872983346207417,0,1,1,3.872983346207417,0" fill="#4c78a8" stroke-width="2" opacity="0.7"/></g><g class="mark-symbol role-mark layer_1_marks" clip-path="url(#clip7)" role="graphics-symbol" aria-roledescription="symbol mark container"><path transform="translate(324.62073811999494,144.89472272788709)" d="M5.477225575051661,0A5.477225575051661,5.477225575051661,0,1,1,-5.477225575051661,0A5.477225575051661,5.477225575051661,0,1,1,5.477225575051661,0" fill="#f58518" stroke-width="2" opacity="0.7"/></g><g class="mark-text role-mark layer_2_marks" clip-path="url(#clip8)" role="graphics-object" aria-roledescription="text mark container" pointer-events="none"><text text-anchor="middle" transform="translate(253.8107930161272,14.223044470987109)" font-family="sans-serif" font-size="11px" fill="black">self</text><text text-anchor="middle" transform="translate(81.95937564554492,264.8236026918981)" font-family="sans-serif" font-size="11px" fill="black">god</text><text text-anchor="middle" transform="translate(259.8219165734556,256.0580352210123)" font-family="sans-serif" font-size="11px" fill="black">spirit</text><text text-anchor="middle" transform="translate(332.91258037283825,285.19955208793704)" font-family="sans-serif" font-size="11px" fill="black">being</text><text text-anchor="middle" transform="translate(166.86734874467112,248.87528587035794)" font-family="sans-serif" font-size="11px" fill="black">christ</text><text text-anchor="middle" transform="translate(22.057005304450364,136.5697025195527)" font-family="sans-serif" font-size="11px" fill="black">jesus</text><text text-anchor="middle" transform="translate(410.3466533508155,260.7518420657264)" font-family="sans-serif" font-size="11px" fill="black">awareness</text><text text-anchor="middle" transform="translate(324.0348930888173,116.02548079750649)" font-family="sans-serif" font-size="11px" fill="black">free</text><text text-anchor="middle" transform="translate(172.75223062269689,122.97731696944075)" font-family="sans-serif" font-size="11px" fill="black">to believe</text><text text-anchor="middle" transform="translate(347.7800913683411,75.0427649391107)" font-family="sans-serif" font-size="11px" fill="black">directly</text><text text-anchor="middle" transform="translate(304.77210866140126,200.28901301346704)" font-family="sans-serif" font-size="11px" fill="black">truth</text><text text-anchor="middle" transform="translate(286.3683140130807,223.27891720923873)" font-family="sans-serif" font-size="11px" fill="black">religion</text><text text-anchor="middle" transform="translate(65.92114668946836,192.1590303513658)" font-family="sans-serif" font-size="11px" fill="black">dear</text><text text-anchor="middle" transform="translate(397.11974664019834,187.27424030977232)" font-family="sans-serif" font-size="11px" fill="black">concept</text><text text-anchor="middle" transform="translate(201.0605627721104,107.70720894058161)" font-family="sans-serif" font-size="11px" fill="black">to think</text><text text-anchor="middle" transform="translate(229.87303660625852,217.6138735315055)" font-family="sans-serif" font-size="11px" fill="black">world</text><text text-anchor="middle" transform="translate(230.56482144208923,49.04352575074908)" font-family="sans-serif" font-size="11px" fill="black">right</text><text text-anchor="middle" transform="translate(206.46041394603992,73.06970818268516)" font-family="sans-serif" font-size="11px" fill="black">to know</text><text text-anchor="middle" transform="translate(481.2830354212539,200.44024559364553)" font-family="sans-serif" font-size="11px" fill="black">reality</text><text text-anchor="middle" transform="translate(230.24647948069327,249.98520394691963)" font-family="sans-serif" font-size="11px" fill="black">man</text><text text-anchor="middle" transform="translate(565.5670471681855,154.23489960029096)" font-family="sans-serif" font-size="11px" fill="black">subjective</text><text text-anchor="middle" transform="translate(501.3881948180981,110.60100439814279)" font-family="sans-serif" font-size="11px" fill="black">absolute</text><text text-anchor="middle" transform="translate(395.4654107644346,105.58655961561168)" font-family="sans-serif" font-size="11px" fill="black">simultaneously</text><text text-anchor="middle" transform="translate(539.8167183830216,213.1735984206946)" font-family="sans-serif" font-size="11px" fill="black">unity</text><text text-anchor="middle" transform="translate(469.6610172629042,151.03298840402346)" font-family="sans-serif" font-size="11px" fill="black">content</text><text text-anchor="middle" transform="translate(189.17926543879295,147.35072625095393)" font-family="sans-serif" font-size="11px" fill="black">life</text><text text-anchor="middle" transform="translate(214.48131989336076,19.44804909619072)" font-family="sans-serif" font-size="11px" fill="black">to do</text><text text-anchor="middle" transform="translate(62.394860115214286,166.8132420445194)" font-family="sans-serif" font-size="11px" fill="black">holy</text><text text-anchor="middle" transform="translate(324.0292672082614,236.7777251452788)" font-family="sans-serif" font-size="11px" fill="black">true</text><text text-anchor="middle" transform="translate(284.96369030227163,53.06973028548226)" font-family="sans-serif" font-size="11px" fill="black">to change</text><text text-anchor="middle" transform="translate(623.9043669902213,210.0733128281374)" font-family="sans-serif" font-size="11px" fill="black">abstract</text><text text-anchor="middle" transform="translate(525.6086652608,38.25744971394255)" font-family="sans-serif" font-size="11px" fill="black">form</text></g><g class="mark-text role-mark layer_3_marks" clip-path="url(#clip9)" role="graphics-object" aria-roledescription="text mark container" pointer-events="none"><text text-anchor="middle" transform="translate(253.8107930161272,22.22304447098711)" font-family="sans-serif" font-size="11px" font-style="italic" fill="black">selbst</text><text text-anchor="middle" transform="translate(81.95937564554492,272.8236026918981)" font-family="sans-serif" font-size="11px" font-style="italic" fill="black">gott</text><text text-anchor="middle" transform="translate(259.8219165734556,264.0580352210123)" font-family="sans-serif" font-size="11px" font-style="italic" fill="black">geist</text><text text-anchor="middle" transform="translate(332.91258037283825,293.19955208793704)" font-family="sans-serif" font-size="11px" font-style="italic" fill="black">wesen</text><text text-anchor="middle" transform="translate(166.86734874467112,256.87528587035797)" font-family="sans-serif" font-size="11px" font-style="italic" fill="black">christ</text><text text-anchor="middle" transform="translate(22.057005304450364,144.5697025195527)" font-family="sans-serif" font-size="11px" font-style="italic" fill="black">jesus</text><text text-anchor="middle" transform="translate(410.3466533508155,268.7518420657264)" font-family="sans-serif" font-size="11px" font-style="italic" fill="black">bewusstsein</text><text text-anchor="middle" transform="translate(324.0348930888173,124.02548079750649)" font-family="sans-serif" font-size="11px" font-style="italic" fill="black">frei</text><text text-anchor="middle" transform="translate(172.75223062269689,130.97731696944075)" font-family="sans-serif" font-size="11px" font-style="italic" fill="black">glauben</text><text text-anchor="middle" transform="translate(347.7800913683411,83.0427649391107)" font-family="sans-serif" font-size="11px" font-style="italic" fill="black">unmittelbar</text><text text-anchor="middle" transform="translate(304.77210866140126,208.28901301346704)" font-family="sans-serif" font-size="11px" font-style="italic" fill="black">wahrheit</text><text text-anchor="middle" transform="translate(286.3683140130807,231.27891720923873)" font-family="sans-serif" font-size="11px" font-style="italic" fill="black">religion</text><text text-anchor="middle" transform="translate(65.92114668946836,200.1590303513658)" font-family="sans-serif" font-size="11px" font-style="italic" fill="black">lieb</text><text text-anchor="middle" transform="translate(397.11974664019834,195.27424030977232)" font-family="sans-serif" font-size="11px" font-style="italic" fill="black">begriff</text><text text-anchor="middle" transform="translate(201.0605627721104,115.70720894058161)" font-family="sans-serif" font-size="11px" font-style="italic" fill="black">denken</text><text text-anchor="middle" transform="translate(229.87303660625852,225.6138735315055)" font-family="sans-serif" font-size="11px" font-style="italic" fill="black">welt</text><text text-anchor="middle" transform="translate(230.56482144208923,57.04352575074908)" font-family="sans-serif" font-size="11px" font-style="italic" fill="black">recht</text><text text-anchor="middle" transform="translate(206.46041394603992,81.06970818268516)" font-family="sans-serif" font-size="11px" font-style="italic" fill="black">wissen</text><text text-anchor="middle" transform="translate(481.2830354212539,208.44024559364553)" font-family="sans-serif" font-size="11px" font-style="italic" fill="black">wirklichkeit</text><text text-anchor="middle" transform="translate(230.24647948069327,257.9852039469196)" font-family="sans-serif" font-size="11px" font-style="italic" fill="black">mensch</text><text text-anchor="middle" transform="translate(565.5670471681855,162.23489960029096)" font-family="sans-serif" font-size="11px" font-style="italic" fill="black">subjektiv</text><text text-anchor="middle" transform="translate(501.3881948180981,118.60100439814279)" font-family="sans-serif" font-size="11px" font-style="italic" fill="black">absolut</text><text text-anchor="middle" transform="translate(395.4654107644346,113.58655961561168)" font-family="sans-serif" font-size="11px" font-style="italic" fill="black">zugleich</text><text text-anchor="middle" transform="translate(539.8167183830216,221.1735984206946)" font-family="sans-serif" font-size="11px" font-style="italic" fill="black">einheit</text><text text-anchor="middle" transform="translate(469.6610172629042,159.03298840402346)" font-family="sans-serif" font-size="11px" font-style="italic" fill="black">inhalt</text><text text-anchor="middle" transform="translate(189.17926543879295,155.35072625095393)" font-family="sans-serif" font-size="11px" font-style="italic" fill="black">leben</text><text text-anchor="middle" transform="translate(214.48131989336076,27.44804909619072)" font-family="sans-serif" font-size="11px" font-style="italic" fill="black">machen</text><text text-anchor="middle" transform="translate(62.394860115214286,174.8132420445194)" font-family="sans-serif" font-size="11px" font-style="italic" fill="black">heilig</text><text text-anchor="middle" transform="translate(324.0292672082614,244.7777251452788)" font-family="sans-serif" font-size="11px" font-style="italic" fill="black">wahr</text><text text-anchor="middle" transform="translate(284.96369030227163,61.06973028548226)" font-family="sans-serif" font-size="11px" font-style="italic" fill="black">andern</text><text text-anchor="middle" transform="translate(623.9043669902213,218.0733128281374)" font-family="sans-serif" font-size="11px" font-style="italic" fill="black">abstrakt</text><text text-anchor="middle" transform="translate(525.6086652608,46.25744971394255)" font-family="sans-serif" font-size="11px" font-style="italic" fill="black">form</text></g><g class="mark-text role-mark layer_4_marks" clip-path="url(#clip10)" role="graphics-object" aria-roledescription="text mark container" pointer-events="none"><text text-anchor="middle" transform="translate(294.62073811999494,150.89472272788709)" font-family="sans-serif" font-size="11px" font-style="bold" fill="black">Hegelian*</text></g><g class="mark-group role-legend" role="graphics-symbol" aria-roledescription="legend" aria-label="Symbol legend titled 'Type' for fill color with 2 values: Word, Centroid"><g transform="translate(668,0)"><path class="background" aria-hidden="true" d="M0,0h56v40h-56Z" pointer-events="none"/><g><g class="mark-group role-legend-entry"><g transform="translate(0,16)"><path class="background" aria-hidden="true" d="M0,0h0v0h0Z" pointer-events="none"/><g><g class="mark-group role-scope" role="graphics-object" aria-roledescription="group mark container"><g transform="translate(0,0)"><path class="background" aria-hidden="true" d="M0,0h56v11h-56Z" pointer-events="none" opacity="1"/><g><g class="mark-symbol role-legend-symbol" pointer-events="none"><path transform="translate(6,6)" d="M5,0A5,5,0,1,1,-5,0A5,5,0,1,1,5,0" fill="#4c78a8" stroke-width="1.5" opacity="0.7"/></g><g class="mark-text role-legend-label" pointer-events="none"><text text-anchor="start" transform="translate(16,9)" font-family="sans-serif" font-size="10px" fill="#000" opacity="1">Word</text></g></g><path class="foreground" aria-hidden="true" d="" pointer-events="none" display="none"/></g><g transform="translate(0,13)"><path class="background" aria-hidden="true" d="M0,0h56v11h-56Z" pointer-events="none" opacity="1"/><g><g class="mark-symbol role-legend-symbol" pointer-events="none"><path transform="translate(6,6)" d="M5,0A5,5,0,1,1,-5,0A5,5,0,1,1,5,0" fill="#f58518" stroke-width="1.5" opacity="0.7"/></g><g class="mark-text role-legend-label" pointer-events="none"><text text-anchor="start" transform="translate(16,9)" font-family="sans-serif" font-size="10px" fill="#000" opacity="1">Centroid</text></g></g><path class="foreground" aria-hidden="true" d="" pointer-events="none" display="none"/></g></g></g><path class="foreground" aria-hidden="true" d="" pointer-events="none" display="none"/></g></g><g class="mark-text role-legend-title" pointer-events="none"><text text-anchor="start" transform="translate(0,9)" font-family="sans-serif" font-size="11px" font-weight="bold" fill="#000" opacity="1">Type</text></g></g><path class="foreground" aria-hidden="true" d="" pointer-events="none" display="none"/></g></g><g class="mark-group role-title"><g transform="translate(325,-17)"><path class="background" aria-hidden="true" d="M0,0h0v0h0Z" pointer-events="none"/><g><g class="mark-text role-title-text" role="graphics-symbol" aria-roledescription="title" aria-label="Title text 'PCA Plot of Hegelian Centroid'" pointer-events="none"><text text-anchor="middle" transform="translate(0,10)" font-family="sans-serif" font-size="13px" font-weight="bold" fill="#000" opacity="1">PCA Plot of Hegelian Centroid</text></g></g><path class="foreground" aria-hidden="true" d="" pointer-events="none" display="none"/></g></g></g><path class="foreground" aria-hidden="true" d="" display="none"/></g></g></g><defs><clipPath id="clip6"><rect x="0" y="0" width="650" height="300"/></clipPath><clipPath id="clip7"><rect x="0" y="0" width="650" height="300"/></clipPath><clipPath id="clip8"><rect x="0" y="0" width="650" height="300"/></clipPath><clipPath id="clip9"><rect x="0" y="0" width="650" height="300"/></clipPath><clipPath id="clip10"><rect x="0" y="0" width="650" height="300"/></clipPath></defs></svg>