<?xml version="1.0" encoding="utf-8" standalone="no"?>
<!DOCTYPE svg PUBLIC "-//W3C//DTD SVG 1.1//EN"
  "http://www.w3.org/Graphics/SVG/1.1/DTD/svg11.dtd">
<svg xmlns:xlink="http://www.w3.org/1999/xlink" width="792pt" height="612pt" viewBox="0 0 792 612" xmlns="http://www.w3.org/2000/svg" version="1.1">
 <metadata>
  <rdf:RDF xmlns:dc="http://purl.org/dc/elements/1.1/" xmlns:cc="http://creativecommons.org/ns#" xmlns:rdf="http://www.w3.org/1999/02/22-rdf-syntax-ns#">
   <cc:Work>
    <dc:type rdf:resource="http://purl.org/dc/dcmitype/StillImage"/>
    <dc:date>2022-01-15T15:45:19.693263</dc:date>
    <dc:format>image/svg+xml</dc:format>
    <dc:creator>
     <cc:Agent>
      <dc:title>Matplotlib v3.5.1, https://matplotlib.org/</dc:title>
     </cc:Agent>
    </dc:creator>
   </cc:Work>
  </rdf:RDF>
 </metadata>
 <defs>
  <style type="text/css">*{stroke-linejoin: round; stroke-linecap: butt}</style>
 </defs>
 <g id="figure_1">
  <g id="patch_1">
   <path d="M 0 612 
L 792 612 
L 792 0 
L 0 0 
z
" style="fill: #ffffff"/>
  </g>
  <g id="axes_1">
   <g id="patch_2">
    <path d="M 99 489.6 
L 712.8 489.6 
L 712.8 73.44 
L 99 73.44 
z
" style="fill: #eaeaf2"/>
   </g>
   <g id="matplotlib.axis_1">
    <g id="xtick_1">
     <g id="line2d_1">
      <path d="M 112.470062 489.6 
L 112.470062 73.44 
" clip-path="url(#p62fec2e558)" style="fill: none; stroke: #ffffff; stroke-linecap: round"/>
     </g>
     <g id="text_1">
      <!-- 1840 -->
      <g style="fill: #262626" transform="translate(90.186919 518.152795)rotate(-30)scale(0.11 -0.11)">
       <defs>
        <path id="ArialMT-31" d="M 2384 0 
L 1822 0 
L 1822 3584 
Q 1619 3391 1289 3197 
Q 959 3003 697 2906 
L 697 3450 
Q 1169 3672 1522 3987 
Q 1875 4303 2022 4600 
L 2384 4600 
L 2384 0 
z
" transform="scale(0.015625)"/>
        <path id="ArialMT-38" d="M 1131 2484 
Q 781 2613 612 2850 
Q 444 3088 444 3419 
Q 444 3919 803 4259 
Q 1163 4600 1759 4600 
Q 2359 4600 2725 4251 
Q 3091 3903 3091 3403 
Q 3091 3084 2923 2848 
Q 2756 2613 2416 2484 
Q 2838 2347 3058 2040 
Q 3278 1734 3278 1309 
Q 3278 722 2862 322 
Q 2447 -78 1769 -78 
Q 1091 -78 675 323 
Q 259 725 259 1325 
Q 259 1772 486 2073 
Q 713 2375 1131 2484 
z
M 1019 3438 
Q 1019 3113 1228 2906 
Q 1438 2700 1772 2700 
Q 2097 2700 2305 2904 
Q 2513 3109 2513 3406 
Q 2513 3716 2298 3927 
Q 2084 4138 1766 4138 
Q 1444 4138 1231 3931 
Q 1019 3725 1019 3438 
z
M 838 1322 
Q 838 1081 952 856 
Q 1066 631 1291 507 
Q 1516 384 1775 384 
Q 2178 384 2440 643 
Q 2703 903 2703 1303 
Q 2703 1709 2433 1975 
Q 2163 2241 1756 2241 
Q 1359 2241 1098 1978 
Q 838 1716 838 1322 
z
" transform="scale(0.015625)"/>
        <path id="ArialMT-34" d="M 2069 0 
L 2069 1097 
L 81 1097 
L 81 1613 
L 2172 4581 
L 2631 4581 
L 2631 1613 
L 3250 1613 
L 3250 1097 
L 2631 1097 
L 2631 0 
L 2069 0 
z
M 2069 1613 
L 2069 3678 
L 634 1613 
L 2069 1613 
z
" transform="scale(0.015625)"/>
        <path id="ArialMT-30" d="M 266 2259 
Q 266 3072 433 3567 
Q 600 4063 929 4331 
Q 1259 4600 1759 4600 
Q 2128 4600 2406 4451 
Q 2684 4303 2865 4023 
Q 3047 3744 3150 3342 
Q 3253 2941 3253 2259 
Q 3253 1453 3087 958 
Q 2922 463 2592 192 
Q 2263 -78 1759 -78 
Q 1097 -78 719 397 
Q 266 969 266 2259 
z
M 844 2259 
Q 844 1131 1108 757 
Q 1372 384 1759 384 
Q 2147 384 2411 759 
Q 2675 1134 2675 2259 
Q 2675 3391 2411 3762 
Q 2147 4134 1753 4134 
Q 1366 4134 1134 3806 
Q 844 3388 844 2259 
z
" transform="scale(0.015625)"/>
       </defs>
       <use xlink:href="#ArialMT-31"/>
       <use xlink:href="#ArialMT-38" x="55.615234"/>
       <use xlink:href="#ArialMT-34" x="111.230469"/>
       <use xlink:href="#ArialMT-30" x="166.845703"/>
      </g>
     </g>
    </g>
    <g id="xtick_2">
     <g id="line2d_2">
      <path d="M 205.342925 489.6 
L 205.342925 73.44 
" clip-path="url(#p62fec2e558)" style="fill: none; stroke: #ffffff; stroke-linecap: round"/>
     </g>
     <g id="text_2">
      <!-- 1844 -->
      <g style="fill: #262626" transform="translate(183.059783 518.152795)rotate(-30)scale(0.11 -0.11)">
       <use xlink:href="#ArialMT-31"/>
       <use xlink:href="#ArialMT-38" x="55.615234"/>
       <use xlink:href="#ArialMT-34" x="111.230469"/>
       <use xlink:href="#ArialMT-34" x="166.845703"/>
      </g>
     </g>
    </g>
    <g id="xtick_3">
     <g id="line2d_3">
      <path d="M 298.215789 489.6 
L 298.215789 73.44 
" clip-path="url(#p62fec2e558)" style="fill: none; stroke: #ffffff; stroke-linecap: round"/>
     </g>
     <g id="text_3">
      <!-- 1848 -->
      <g style="fill: #262626" transform="translate(275.932647 518.152795)rotate(-30)scale(0.11 -0.11)">
       <use xlink:href="#ArialMT-31"/>
       <use xlink:href="#ArialMT-38" x="55.615234"/>
       <use xlink:href="#ArialMT-34" x="111.230469"/>
       <use xlink:href="#ArialMT-38" x="166.845703"/>
      </g>
     </g>
    </g>
    <g id="xtick_4">
     <g id="line2d_4">
      <path d="M 391.088653 489.6 
L 391.088653 73.44 
" clip-path="url(#p62fec2e558)" style="fill: none; stroke: #ffffff; stroke-linecap: round"/>
     </g>
     <g id="text_4">
      <!-- 1852 -->
      <g style="fill: #262626" transform="translate(368.805511 518.152795)rotate(-30)scale(0.11 -0.11)">
       <defs>
        <path id="ArialMT-35" d="M 266 1200 
L 856 1250 
Q 922 819 1161 601 
Q 1400 384 1738 384 
Q 2144 384 2425 690 
Q 2706 997 2706 1503 
Q 2706 1984 2436 2262 
Q 2166 2541 1728 2541 
Q 1456 2541 1237 2417 
Q 1019 2294 894 2097 
L 366 2166 
L 809 4519 
L 3088 4519 
L 3088 3981 
L 1259 3981 
L 1013 2750 
Q 1425 3038 1878 3038 
Q 2478 3038 2890 2622 
Q 3303 2206 3303 1553 
Q 3303 931 2941 478 
Q 2500 -78 1738 -78 
Q 1113 -78 717 272 
Q 322 622 266 1200 
z
" transform="scale(0.015625)"/>
        <path id="ArialMT-32" d="M 3222 541 
L 3222 0 
L 194 0 
Q 188 203 259 391 
Q 375 700 629 1000 
Q 884 1300 1366 1694 
Q 2113 2306 2375 2664 
Q 2638 3022 2638 3341 
Q 2638 3675 2398 3904 
Q 2159 4134 1775 4134 
Q 1369 4134 1125 3890 
Q 881 3647 878 3216 
L 300 3275 
Q 359 3922 746 4261 
Q 1134 4600 1788 4600 
Q 2447 4600 2831 4234 
Q 3216 3869 3216 3328 
Q 3216 3053 3103 2787 
Q 2991 2522 2730 2228 
Q 2469 1934 1863 1422 
Q 1356 997 1212 845 
Q 1069 694 975 541 
L 3222 541 
z
" transform="scale(0.015625)"/>
       </defs>
       <use xlink:href="#ArialMT-31"/>
       <use xlink:href="#ArialMT-38" x="55.615234"/>
       <use xlink:href="#ArialMT-35" x="111.230469"/>
       <use xlink:href="#ArialMT-32" x="166.845703"/>
      </g>
     </g>
    </g>
    <g id="xtick_5">
     <g id="line2d_5">
      <path d="M 483.961517 489.6 
L 483.961517 73.44 
" clip-path="url(#p62fec2e558)" style="fill: none; stroke: #ffffff; stroke-linecap: round"/>
     </g>
     <g id="text_5">
      <!-- 1856 -->
      <g style="fill: #262626" transform="translate(461.678375 518.152795)rotate(-30)scale(0.11 -0.11)">
       <defs>
        <path id="ArialMT-36" d="M 3184 3459 
L 2625 3416 
Q 2550 3747 2413 3897 
Q 2184 4138 1850 4138 
Q 1581 4138 1378 3988 
Q 1113 3794 959 3422 
Q 806 3050 800 2363 
Q 1003 2672 1297 2822 
Q 1591 2972 1913 2972 
Q 2475 2972 2870 2558 
Q 3266 2144 3266 1488 
Q 3266 1056 3080 686 
Q 2894 316 2569 119 
Q 2244 -78 1831 -78 
Q 1128 -78 684 439 
Q 241 956 241 2144 
Q 241 3472 731 4075 
Q 1159 4600 1884 4600 
Q 2425 4600 2770 4297 
Q 3116 3994 3184 3459 
z
M 888 1484 
Q 888 1194 1011 928 
Q 1134 663 1356 523 
Q 1578 384 1822 384 
Q 2178 384 2434 671 
Q 2691 959 2691 1453 
Q 2691 1928 2437 2201 
Q 2184 2475 1800 2475 
Q 1419 2475 1153 2201 
Q 888 1928 888 1484 
z
" transform="scale(0.015625)"/>
       </defs>
       <use xlink:href="#ArialMT-31"/>
       <use xlink:href="#ArialMT-38" x="55.615234"/>
       <use xlink:href="#ArialMT-35" x="111.230469"/>
       <use xlink:href="#ArialMT-36" x="166.845703"/>
      </g>
     </g>
    </g>
    <g id="xtick_6">
     <g id="line2d_6">
      <path d="M 576.834381 489.6 
L 576.834381 73.44 
" clip-path="url(#p62fec2e558)" style="fill: none; stroke: #ffffff; stroke-linecap: round"/>
     </g>
     <g id="text_6">
      <!-- 1860 -->
      <g style="fill: #262626" transform="translate(554.551239 518.152795)rotate(-30)scale(0.11 -0.11)">
       <use xlink:href="#ArialMT-31"/>
       <use xlink:href="#ArialMT-38" x="55.615234"/>
       <use xlink:href="#ArialMT-36" x="111.230469"/>
       <use xlink:href="#ArialMT-30" x="166.845703"/>
      </g>
     </g>
    </g>
    <g id="xtick_7">
     <g id="line2d_7">
      <path d="M 669.707245 489.6 
L 669.707245 73.44 
" clip-path="url(#p62fec2e558)" style="fill: none; stroke: #ffffff; stroke-linecap: round"/>
     </g>
     <g id="text_7">
      <!-- 1864 -->
      <g style="fill: #262626" transform="translate(647.424103 518.152795)rotate(-30)scale(0.11 -0.11)">
       <use xlink:href="#ArialMT-31"/>
       <use xlink:href="#ArialMT-38" x="55.615234"/>
       <use xlink:href="#ArialMT-36" x="111.230469"/>
       <use xlink:href="#ArialMT-34" x="166.845703"/>
      </g>
     </g>
    </g>
    <g id="text_8">
     <!-- Date of Writing -->
     <g style="fill: #262626" transform="translate(366.327188 532.781768)scale(0.12 -0.12)">
      <defs>
       <path id="ArialMT-44" d="M 494 0 
L 494 4581 
L 2072 4581 
Q 2606 4581 2888 4516 
Q 3281 4425 3559 4188 
Q 3922 3881 4101 3404 
Q 4281 2928 4281 2316 
Q 4281 1794 4159 1391 
Q 4038 988 3847 723 
Q 3656 459 3429 307 
Q 3203 156 2883 78 
Q 2563 0 2147 0 
L 494 0 
z
M 1100 541 
L 2078 541 
Q 2531 541 2789 625 
Q 3047 709 3200 863 
Q 3416 1078 3536 1442 
Q 3656 1806 3656 2325 
Q 3656 3044 3420 3430 
Q 3184 3816 2847 3947 
Q 2603 4041 2063 4041 
L 1100 4041 
L 1100 541 
z
" transform="scale(0.015625)"/>
       <path id="ArialMT-61" d="M 2588 409 
Q 2275 144 1986 34 
Q 1697 -75 1366 -75 
Q 819 -75 525 192 
Q 231 459 231 875 
Q 231 1119 342 1320 
Q 453 1522 633 1644 
Q 813 1766 1038 1828 
Q 1203 1872 1538 1913 
Q 2219 1994 2541 2106 
Q 2544 2222 2544 2253 
Q 2544 2597 2384 2738 
Q 2169 2928 1744 2928 
Q 1347 2928 1158 2789 
Q 969 2650 878 2297 
L 328 2372 
Q 403 2725 575 2942 
Q 747 3159 1072 3276 
Q 1397 3394 1825 3394 
Q 2250 3394 2515 3294 
Q 2781 3194 2906 3042 
Q 3031 2891 3081 2659 
Q 3109 2516 3109 2141 
L 3109 1391 
Q 3109 606 3145 398 
Q 3181 191 3288 0 
L 2700 0 
Q 2613 175 2588 409 
z
M 2541 1666 
Q 2234 1541 1622 1453 
Q 1275 1403 1131 1340 
Q 988 1278 909 1158 
Q 831 1038 831 891 
Q 831 666 1001 516 
Q 1172 366 1500 366 
Q 1825 366 2078 508 
Q 2331 650 2450 897 
Q 2541 1088 2541 1459 
L 2541 1666 
z
" transform="scale(0.015625)"/>
       <path id="ArialMT-74" d="M 1650 503 
L 1731 6 
Q 1494 -44 1306 -44 
Q 1000 -44 831 53 
Q 663 150 594 308 
Q 525 466 525 972 
L 525 2881 
L 113 2881 
L 113 3319 
L 525 3319 
L 525 4141 
L 1084 4478 
L 1084 3319 
L 1650 3319 
L 1650 2881 
L 1084 2881 
L 1084 941 
Q 1084 700 1114 631 
Q 1144 563 1211 522 
Q 1278 481 1403 481 
Q 1497 481 1650 503 
z
" transform="scale(0.015625)"/>
       <path id="ArialMT-65" d="M 2694 1069 
L 3275 997 
Q 3138 488 2766 206 
Q 2394 -75 1816 -75 
Q 1088 -75 661 373 
Q 234 822 234 1631 
Q 234 2469 665 2931 
Q 1097 3394 1784 3394 
Q 2450 3394 2872 2941 
Q 3294 2488 3294 1666 
Q 3294 1616 3291 1516 
L 816 1516 
Q 847 969 1125 678 
Q 1403 388 1819 388 
Q 2128 388 2347 550 
Q 2566 713 2694 1069 
z
M 847 1978 
L 2700 1978 
Q 2663 2397 2488 2606 
Q 2219 2931 1791 2931 
Q 1403 2931 1139 2672 
Q 875 2413 847 1978 
z
" transform="scale(0.015625)"/>
       <path id="ArialMT-20" transform="scale(0.015625)"/>
       <path id="ArialMT-6f" d="M 213 1659 
Q 213 2581 725 3025 
Q 1153 3394 1769 3394 
Q 2453 3394 2887 2945 
Q 3322 2497 3322 1706 
Q 3322 1066 3130 698 
Q 2938 331 2570 128 
Q 2203 -75 1769 -75 
Q 1072 -75 642 372 
Q 213 819 213 1659 
z
M 791 1659 
Q 791 1022 1069 705 
Q 1347 388 1769 388 
Q 2188 388 2466 706 
Q 2744 1025 2744 1678 
Q 2744 2294 2464 2611 
Q 2184 2928 1769 2928 
Q 1347 2928 1069 2612 
Q 791 2297 791 1659 
z
" transform="scale(0.015625)"/>
       <path id="ArialMT-66" d="M 556 0 
L 556 2881 
L 59 2881 
L 59 3319 
L 556 3319 
L 556 3672 
Q 556 4006 616 4169 
Q 697 4388 901 4523 
Q 1106 4659 1475 4659 
Q 1713 4659 2000 4603 
L 1916 4113 
Q 1741 4144 1584 4144 
Q 1328 4144 1222 4034 
Q 1116 3925 1116 3625 
L 1116 3319 
L 1763 3319 
L 1763 2881 
L 1116 2881 
L 1116 0 
L 556 0 
z
" transform="scale(0.015625)"/>
       <path id="ArialMT-57" d="M 1294 0 
L 78 4581 
L 700 4581 
L 1397 1578 
Q 1509 1106 1591 641 
Q 1766 1375 1797 1488 
L 2669 4581 
L 3400 4581 
L 4056 2263 
Q 4303 1400 4413 641 
Q 4500 1075 4641 1638 
L 5359 4581 
L 5969 4581 
L 4713 0 
L 4128 0 
L 3163 3491 
Q 3041 3928 3019 4028 
Q 2947 3713 2884 3491 
L 1913 0 
L 1294 0 
z
" transform="scale(0.015625)"/>
       <path id="ArialMT-72" d="M 416 0 
L 416 3319 
L 922 3319 
L 922 2816 
Q 1116 3169 1280 3281 
Q 1444 3394 1641 3394 
Q 1925 3394 2219 3213 
L 2025 2691 
Q 1819 2813 1613 2813 
Q 1428 2813 1281 2702 
Q 1134 2591 1072 2394 
Q 978 2094 978 1738 
L 978 0 
L 416 0 
z
" transform="scale(0.015625)"/>
       <path id="ArialMT-69" d="M 425 3934 
L 425 4581 
L 988 4581 
L 988 3934 
L 425 3934 
z
M 425 0 
L 425 3319 
L 988 3319 
L 988 0 
L 425 0 
z
" transform="scale(0.015625)"/>
       <path id="ArialMT-6e" d="M 422 0 
L 422 3319 
L 928 3319 
L 928 2847 
Q 1294 3394 1984 3394 
Q 2284 3394 2536 3286 
Q 2788 3178 2913 3003 
Q 3038 2828 3088 2588 
Q 3119 2431 3119 2041 
L 3119 0 
L 2556 0 
L 2556 2019 
Q 2556 2363 2490 2533 
Q 2425 2703 2258 2804 
Q 2091 2906 1866 2906 
Q 1506 2906 1245 2678 
Q 984 2450 984 1813 
L 984 0 
L 422 0 
z
" transform="scale(0.015625)"/>
       <path id="ArialMT-67" d="M 319 -275 
L 866 -356 
Q 900 -609 1056 -725 
Q 1266 -881 1628 -881 
Q 2019 -881 2231 -725 
Q 2444 -569 2519 -288 
Q 2563 -116 2559 434 
Q 2191 0 1641 0 
Q 956 0 581 494 
Q 206 988 206 1678 
Q 206 2153 378 2554 
Q 550 2956 876 3175 
Q 1203 3394 1644 3394 
Q 2231 3394 2613 2919 
L 2613 3319 
L 3131 3319 
L 3131 450 
Q 3131 -325 2973 -648 
Q 2816 -972 2473 -1159 
Q 2131 -1347 1631 -1347 
Q 1038 -1347 672 -1080 
Q 306 -813 319 -275 
z
M 784 1719 
Q 784 1066 1043 766 
Q 1303 466 1694 466 
Q 2081 466 2343 764 
Q 2606 1063 2606 1700 
Q 2606 2309 2336 2618 
Q 2066 2928 1684 2928 
Q 1309 2928 1046 2623 
Q 784 2319 784 1719 
z
" transform="scale(0.015625)"/>
      </defs>
      <use xlink:href="#ArialMT-44"/>
      <use xlink:href="#ArialMT-61" x="72.216797"/>
      <use xlink:href="#ArialMT-74" x="127.832031"/>
      <use xlink:href="#ArialMT-65" x="155.615234"/>
      <use xlink:href="#ArialMT-20" x="211.230469"/>
      <use xlink:href="#ArialMT-6f" x="239.013672"/>
      <use xlink:href="#ArialMT-66" x="294.628906"/>
      <use xlink:href="#ArialMT-20" x="322.412109"/>
      <use xlink:href="#ArialMT-57" x="350.195312"/>
      <use xlink:href="#ArialMT-72" x="442.830078"/>
      <use xlink:href="#ArialMT-69" x="476.130859"/>
      <use xlink:href="#ArialMT-74" x="498.347656"/>
      <use xlink:href="#ArialMT-69" x="526.130859"/>
      <use xlink:href="#ArialMT-6e" x="548.347656"/>
      <use xlink:href="#ArialMT-67" x="603.962891"/>
     </g>
    </g>
   </g>
   <g id="matplotlib.axis_2">
    <g id="ytick_1">
     <g id="line2d_8">
      <path d="M 99 464.317984 
L 712.8 464.317984 
" clip-path="url(#p62fec2e558)" style="fill: none; stroke: #ffffff; stroke-linecap: round"/>
     </g>
     <g id="text_9">
      <!-- −0.08 -->
      <g style="fill: #262626" transform="translate(61.668281 468.254781)scale(0.11 -0.11)">
       <defs>
        <path id="ArialMT-2212" d="M 3381 1997 
L 356 1997 
L 356 2522 
L 3381 2522 
L 3381 1997 
z
" transform="scale(0.015625)"/>
        <path id="ArialMT-2e" d="M 581 0 
L 581 641 
L 1222 641 
L 1222 0 
L 581 0 
z
" transform="scale(0.015625)"/>
       </defs>
       <use xlink:href="#ArialMT-2212"/>
       <use xlink:href="#ArialMT-30" x="58.398438"/>
       <use xlink:href="#ArialMT-2e" x="114.013672"/>
       <use xlink:href="#ArialMT-30" x="141.796875"/>
       <use xlink:href="#ArialMT-38" x="197.412109"/>
      </g>
     </g>
    </g>
    <g id="ytick_2">
     <g id="line2d_9">
      <path d="M 99 417.103387 
L 712.8 417.103387 
" clip-path="url(#p62fec2e558)" style="fill: none; stroke: #ffffff; stroke-linecap: round"/>
     </g>
     <g id="text_10">
      <!-- −0.06 -->
      <g style="fill: #262626" transform="translate(61.668281 421.040184)scale(0.11 -0.11)">
       <use xlink:href="#ArialMT-2212"/>
       <use xlink:href="#ArialMT-30" x="58.398438"/>
       <use xlink:href="#ArialMT-2e" x="114.013672"/>
       <use xlink:href="#ArialMT-30" x="141.796875"/>
       <use xlink:href="#ArialMT-36" x="197.412109"/>
      </g>
     </g>
    </g>
    <g id="ytick_3">
     <g id="line2d_10">
      <path d="M 99 369.888791 
L 712.8 369.888791 
" clip-path="url(#p62fec2e558)" style="fill: none; stroke: #ffffff; stroke-linecap: round"/>
     </g>
     <g id="text_11">
      <!-- −0.04 -->
      <g style="fill: #262626" transform="translate(61.668281 373.825588)scale(0.11 -0.11)">
       <use xlink:href="#ArialMT-2212"/>
       <use xlink:href="#ArialMT-30" x="58.398438"/>
       <use xlink:href="#ArialMT-2e" x="114.013672"/>
       <use xlink:href="#ArialMT-30" x="141.796875"/>
       <use xlink:href="#ArialMT-34" x="197.412109"/>
      </g>
     </g>
    </g>
    <g id="ytick_4">
     <g id="line2d_11">
      <path d="M 99 322.674194 
L 712.8 322.674194 
" clip-path="url(#p62fec2e558)" style="fill: none; stroke: #ffffff; stroke-linecap: round"/>
     </g>
     <g id="text_12">
      <!-- −0.02 -->
      <g style="fill: #262626" transform="translate(61.668281 326.610991)scale(0.11 -0.11)">
       <use xlink:href="#ArialMT-2212"/>
       <use xlink:href="#ArialMT-30" x="58.398438"/>
       <use xlink:href="#ArialMT-2e" x="114.013672"/>
       <use xlink:href="#ArialMT-30" x="141.796875"/>
       <use xlink:href="#ArialMT-32" x="197.412109"/>
      </g>
     </g>
    </g>
    <g id="ytick_5">
     <g id="line2d_12">
      <path d="M 99 275.459598 
L 712.8 275.459598 
" clip-path="url(#p62fec2e558)" style="fill: none; stroke: #ffffff; stroke-linecap: round"/>
     </g>
     <g id="text_13">
      <!-- 0.00 -->
      <g style="fill: #262626" transform="translate(68.092969 279.396394)scale(0.11 -0.11)">
       <use xlink:href="#ArialMT-30"/>
       <use xlink:href="#ArialMT-2e" x="55.615234"/>
       <use xlink:href="#ArialMT-30" x="83.398438"/>
       <use xlink:href="#ArialMT-30" x="139.013672"/>
      </g>
     </g>
    </g>
    <g id="ytick_6">
     <g id="line2d_13">
      <path d="M 99 228.245001 
L 712.8 228.245001 
" clip-path="url(#p62fec2e558)" style="fill: none; stroke: #ffffff; stroke-linecap: round"/>
     </g>
     <g id="text_14">
      <!-- 0.02 -->
      <g style="fill: #262626" transform="translate(68.092969 232.181798)scale(0.11 -0.11)">
       <use xlink:href="#ArialMT-30"/>
       <use xlink:href="#ArialMT-2e" x="55.615234"/>
       <use xlink:href="#ArialMT-30" x="83.398438"/>
       <use xlink:href="#ArialMT-32" x="139.013672"/>
      </g>
     </g>
    </g>
    <g id="ytick_7">
     <g id="line2d_14">
      <path d="M 99 181.030404 
L 712.8 181.030404 
" clip-path="url(#p62fec2e558)" style="fill: none; stroke: #ffffff; stroke-linecap: round"/>
     </g>
     <g id="text_15">
      <!-- 0.04 -->
      <g style="fill: #262626" transform="translate(68.092969 184.967201)scale(0.11 -0.11)">
       <use xlink:href="#ArialMT-30"/>
       <use xlink:href="#ArialMT-2e" x="55.615234"/>
       <use xlink:href="#ArialMT-30" x="83.398438"/>
       <use xlink:href="#ArialMT-34" x="139.013672"/>
      </g>
     </g>
    </g>
    <g id="ytick_8">
     <g id="line2d_15">
      <path d="M 99 133.815808 
L 712.8 133.815808 
" clip-path="url(#p62fec2e558)" style="fill: none; stroke: #ffffff; stroke-linecap: round"/>
     </g>
     <g id="text_16">
      <!-- 0.06 -->
      <g style="fill: #262626" transform="translate(68.092969 137.752605)scale(0.11 -0.11)">
       <use xlink:href="#ArialMT-30"/>
       <use xlink:href="#ArialMT-2e" x="55.615234"/>
       <use xlink:href="#ArialMT-30" x="83.398438"/>
       <use xlink:href="#ArialMT-36" x="139.013672"/>
      </g>
     </g>
    </g>
    <g id="ytick_9">
     <g id="line2d_16">
      <path d="M 99 86.601211 
L 712.8 86.601211 
" clip-path="url(#p62fec2e558)" style="fill: none; stroke: #ffffff; stroke-linecap: round"/>
     </g>
     <g id="text_17">
      <!-- 0.08 -->
      <g style="fill: #262626" transform="translate(68.092969 90.538008)scale(0.11 -0.11)">
       <use xlink:href="#ArialMT-30"/>
       <use xlink:href="#ArialMT-2e" x="55.615234"/>
       <use xlink:href="#ArialMT-30" x="83.398438"/>
       <use xlink:href="#ArialMT-38" x="139.013672"/>
      </g>
     </g>
    </g>
    <g id="text_18">
     <!-- Political Economy Similarity Score -->
     <g style="fill: #262626" transform="translate(55.142656 372.211875)rotate(-90)scale(0.12 -0.12)">
      <defs>
       <path id="ArialMT-50" d="M 494 0 
L 494 4581 
L 2222 4581 
Q 2678 4581 2919 4538 
Q 3256 4481 3484 4323 
Q 3713 4166 3852 3881 
Q 3991 3597 3991 3256 
Q 3991 2672 3619 2267 
Q 3247 1863 2275 1863 
L 1100 1863 
L 1100 0 
L 494 0 
z
M 1100 2403 
L 2284 2403 
Q 2872 2403 3119 2622 
Q 3366 2841 3366 3238 
Q 3366 3525 3220 3729 
Q 3075 3934 2838 4000 
Q 2684 4041 2272 4041 
L 1100 4041 
L 1100 2403 
z
" transform="scale(0.015625)"/>
       <path id="ArialMT-6c" d="M 409 0 
L 409 4581 
L 972 4581 
L 972 0 
L 409 0 
z
" transform="scale(0.015625)"/>
       <path id="ArialMT-63" d="M 2588 1216 
L 3141 1144 
Q 3050 572 2676 248 
Q 2303 -75 1759 -75 
Q 1078 -75 664 370 
Q 250 816 250 1647 
Q 250 2184 428 2587 
Q 606 2991 970 3192 
Q 1334 3394 1763 3394 
Q 2303 3394 2647 3120 
Q 2991 2847 3088 2344 
L 2541 2259 
Q 2463 2594 2264 2762 
Q 2066 2931 1784 2931 
Q 1359 2931 1093 2626 
Q 828 2322 828 1663 
Q 828 994 1084 691 
Q 1341 388 1753 388 
Q 2084 388 2306 591 
Q 2528 794 2588 1216 
z
" transform="scale(0.015625)"/>
       <path id="ArialMT-45" d="M 506 0 
L 506 4581 
L 3819 4581 
L 3819 4041 
L 1113 4041 
L 1113 2638 
L 3647 2638 
L 3647 2100 
L 1113 2100 
L 1113 541 
L 3925 541 
L 3925 0 
L 506 0 
z
" transform="scale(0.015625)"/>
       <path id="ArialMT-6d" d="M 422 0 
L 422 3319 
L 925 3319 
L 925 2853 
Q 1081 3097 1340 3245 
Q 1600 3394 1931 3394 
Q 2300 3394 2536 3241 
Q 2772 3088 2869 2813 
Q 3263 3394 3894 3394 
Q 4388 3394 4653 3120 
Q 4919 2847 4919 2278 
L 4919 0 
L 4359 0 
L 4359 2091 
Q 4359 2428 4304 2576 
Q 4250 2725 4106 2815 
Q 3963 2906 3769 2906 
Q 3419 2906 3187 2673 
Q 2956 2441 2956 1928 
L 2956 0 
L 2394 0 
L 2394 2156 
Q 2394 2531 2256 2718 
Q 2119 2906 1806 2906 
Q 1569 2906 1367 2781 
Q 1166 2656 1075 2415 
Q 984 2175 984 1722 
L 984 0 
L 422 0 
z
" transform="scale(0.015625)"/>
       <path id="ArialMT-79" d="M 397 -1278 
L 334 -750 
Q 519 -800 656 -800 
Q 844 -800 956 -737 
Q 1069 -675 1141 -563 
Q 1194 -478 1313 -144 
Q 1328 -97 1363 -6 
L 103 3319 
L 709 3319 
L 1400 1397 
Q 1534 1031 1641 628 
Q 1738 1016 1872 1384 
L 2581 3319 
L 3144 3319 
L 1881 -56 
Q 1678 -603 1566 -809 
Q 1416 -1088 1222 -1217 
Q 1028 -1347 759 -1347 
Q 597 -1347 397 -1278 
z
" transform="scale(0.015625)"/>
       <path id="ArialMT-53" d="M 288 1472 
L 859 1522 
Q 900 1178 1048 958 
Q 1197 738 1509 602 
Q 1822 466 2213 466 
Q 2559 466 2825 569 
Q 3091 672 3220 851 
Q 3350 1031 3350 1244 
Q 3350 1459 3225 1620 
Q 3100 1781 2813 1891 
Q 2628 1963 1997 2114 
Q 1366 2266 1113 2400 
Q 784 2572 623 2826 
Q 463 3081 463 3397 
Q 463 3744 659 4045 
Q 856 4347 1234 4503 
Q 1613 4659 2075 4659 
Q 2584 4659 2973 4495 
Q 3363 4331 3572 4012 
Q 3781 3694 3797 3291 
L 3216 3247 
Q 3169 3681 2898 3903 
Q 2628 4125 2100 4125 
Q 1550 4125 1298 3923 
Q 1047 3722 1047 3438 
Q 1047 3191 1225 3031 
Q 1400 2872 2139 2705 
Q 2878 2538 3153 2413 
Q 3553 2228 3743 1945 
Q 3934 1663 3934 1294 
Q 3934 928 3725 604 
Q 3516 281 3123 101 
Q 2731 -78 2241 -78 
Q 1619 -78 1198 103 
Q 778 284 539 648 
Q 300 1013 288 1472 
z
" transform="scale(0.015625)"/>
      </defs>
      <use xlink:href="#ArialMT-50"/>
      <use xlink:href="#ArialMT-6f" x="66.699219"/>
      <use xlink:href="#ArialMT-6c" x="122.314453"/>
      <use xlink:href="#ArialMT-69" x="144.53125"/>
      <use xlink:href="#ArialMT-74" x="166.748047"/>
      <use xlink:href="#ArialMT-69" x="194.53125"/>
      <use xlink:href="#ArialMT-63" x="216.748047"/>
      <use xlink:href="#ArialMT-61" x="266.748047"/>
      <use xlink:href="#ArialMT-6c" x="322.363281"/>
      <use xlink:href="#ArialMT-20" x="344.580078"/>
      <use xlink:href="#ArialMT-45" x="372.363281"/>
      <use xlink:href="#ArialMT-63" x="439.0625"/>
      <use xlink:href="#ArialMT-6f" x="489.0625"/>
      <use xlink:href="#ArialMT-6e" x="544.677734"/>
      <use xlink:href="#ArialMT-6f" x="600.292969"/>
      <use xlink:href="#ArialMT-6d" x="655.908203"/>
      <use xlink:href="#ArialMT-79" x="739.208984"/>
      <use xlink:href="#ArialMT-20" x="789.208984"/>
      <use xlink:href="#ArialMT-53" x="816.992188"/>
      <use xlink:href="#ArialMT-69" x="883.691406"/>
      <use xlink:href="#ArialMT-6d" x="905.908203"/>
      <use xlink:href="#ArialMT-69" x="989.208984"/>
      <use xlink:href="#ArialMT-6c" x="1011.425781"/>
      <use xlink:href="#ArialMT-61" x="1033.642578"/>
      <use xlink:href="#ArialMT-72" x="1089.257812"/>
      <use xlink:href="#ArialMT-69" x="1122.558594"/>
      <use xlink:href="#ArialMT-74" x="1144.775391"/>
      <use xlink:href="#ArialMT-79" x="1172.558594"/>
      <use xlink:href="#ArialMT-20" x="1222.558594"/>
      <use xlink:href="#ArialMT-53" x="1250.341797"/>
      <use xlink:href="#ArialMT-63" x="1317.041016"/>
      <use xlink:href="#ArialMT-6f" x="1367.041016"/>
      <use xlink:href="#ArialMT-72" x="1422.65625"/>
      <use xlink:href="#ArialMT-65" x="1455.957031"/>
     </g>
    </g>
   </g>
   <g id="line2d_17">
    <path d="M 126.9 121.929257 
L 147.241763 161.985716 
L 152.645044 206.730308 
L 173.304648 247.240742 
L 180.169993 266.986814 
L 182.140602 270.316963 
L 185.891114 285.175546 
L 187.861722 296.826401 
L 188.751675 322.481239 
L 190.150171 346.271276 
L 191.739371 329.078003 
L 210.046958 332.751523 
L 215.704511 354.330445 
L 216.912303 380.157094 
L 218.755776 425.391694 
L 221.17136 465.39194 
L 242.975188 470.683636 
L 244.945796 469.138138 
L 249.840533 447.723072 
L 312.391456 419.332135 
L 312.391456 385.522487 
L 312.518592 353.101253 
L 312.58216 332.216577 
L 313.344976 317.326513 
L 313.726384 311.24548 
L 320.146753 311.097661 
L 321.926658 317.422475 
L 329.236979 305.645315 
L 329.427683 297.790954 
L 367.886329 297.916748 
L 402.658031 293.344468 
L 469.277307 293.504633 
L 502.269105 285.996313 
L 521.59378 264.393824 
L 542.825496 270.118349 
L 550.644361 294.989235 
L 555.411962 331.239077 
L 555.79337 369.174442 
L 556.492618 383.848927 
L 562.785851 377.849039 
L 577.724334 368.465334 
L 597.049009 355.703256 
L 601.053794 346.656641 
L 601.18093 339.206348 
L 601.244498 328.779223 
L 603.977922 316.466391 
L 604.99501 320.221945 
L 605.503554 337.564328 
L 605.503554 344.685845 
L 628.388038 338.859852 
L 629.722967 331.851117 
L 629.977239 321.508761 
L 632.074983 330.967326 
L 634.617703 350.546899 
L 642.627273 359.187742 
L 645.996377 357.297112 
L 647.077033 365.573139 
L 647.331306 363.329957 
L 647.458442 358.233015 
L 648.79337 356.095069 
L 648.79337 337.115253 
L 648.856938 321.218447 
L 650.255434 301.221029 
L 652.861722 275.573455 
L 653.179563 248.302561 
L 653.624539 242.003708 
L 653.688107 226.369066 
L 654.323787 211.243262 
L 654.705195 190.609095 
L 655.277307 174.924135 
L 655.531579 152.932649 
L 655.595147 132.478509 
L 656.739371 108.854874 
L 656.930075 96.494607 
L 657.756459 92.356364 
L 663.15974 99.728459 
L 663.604716 103.239883 
L 663.604716 103.479916 
L 663.604716 102.433551 
L 663.731852 108.890404 
L 664.240396 121.474496 
L 664.685373 123.892548 
L 666.465277 135.584747 
L 666.783117 152.592421 
L 667.164525 166.832725 
L 667.355229 180.67083 
L 667.418797 196.743187 
L 668.054477 203.282698 
L 668.054477 211.892055 
L 670.660766 202.845326 
L 670.85147 190.227664 
L 672.567806 176.556509 
L 674.220574 163.434882 
L 674.538414 162.467326 
L 677.907519 157.231514 
L 678.161791 139.376296 
L 678.479631 123.863477 
L 678.733903 115.451543 
L 679.433151 123.183006 
L 681.022351 140.343793 
L 682.929392 143.375074 
L 684.9 115.657907 
" clip-path="url(#p62fec2e558)" style="fill: none; stroke: #4c72b0; stroke-width: 1.5; stroke-linecap: round"/>
    <defs>
     <path id="m3c4761cf0d" d="M 0 1.5 
C 0.397805 1.5 0.77937 1.341951 1.06066 1.06066 
C 1.341951 0.77937 1.5 0.397805 1.5 0 
C 1.5 -0.397805 1.341951 -0.77937 1.06066 -1.06066 
C 0.77937 -1.341951 0.397805 -1.5 0 -1.5 
C -0.397805 -1.5 -0.77937 -1.341951 -1.06066 -1.06066 
C -1.341951 -0.77937 -1.5 -0.397805 -1.5 0 
C -1.5 0.397805 -1.341951 0.77937 -1.06066 1.06066 
C -0.77937 1.341951 -0.397805 1.5 0 1.5 
z
" style="stroke: #4c72b0"/>
    </defs>
    <g clip-path="url(#p62fec2e558)">
     <use xlink:href="#m3c4761cf0d" x="126.9" y="121.929257" style="fill: #4c72b0; stroke: #4c72b0"/>
     <use xlink:href="#m3c4761cf0d" x="147.241763" y="161.985716" style="fill: #4c72b0; stroke: #4c72b0"/>
     <use xlink:href="#m3c4761cf0d" x="152.645044" y="206.730308" style="fill: #4c72b0; stroke: #4c72b0"/>
     <use xlink:href="#m3c4761cf0d" x="173.304648" y="247.240742" style="fill: #4c72b0; stroke: #4c72b0"/>
     <use xlink:href="#m3c4761cf0d" x="180.169993" y="266.986814" style="fill: #4c72b0; stroke: #4c72b0"/>
     <use xlink:href="#m3c4761cf0d" x="182.140602" y="270.316963" style="fill: #4c72b0; stroke: #4c72b0"/>
     <use xlink:href="#m3c4761cf0d" x="185.891114" y="285.175546" style="fill: #4c72b0; stroke: #4c72b0"/>
     <use xlink:href="#m3c4761cf0d" x="187.861722" y="296.826401" style="fill: #4c72b0; stroke: #4c72b0"/>
     <use xlink:href="#m3c4761cf0d" x="188.751675" y="322.481239" style="fill: #4c72b0; stroke: #4c72b0"/>
     <use xlink:href="#m3c4761cf0d" x="190.150171" y="346.271276" style="fill: #4c72b0; stroke: #4c72b0"/>
     <use xlink:href="#m3c4761cf0d" x="191.739371" y="329.078003" style="fill: #4c72b0; stroke: #4c72b0"/>
     <use xlink:href="#m3c4761cf0d" x="210.046958" y="332.751523" style="fill: #4c72b0; stroke: #4c72b0"/>
     <use xlink:href="#m3c4761cf0d" x="215.704511" y="354.330445" style="fill: #4c72b0; stroke: #4c72b0"/>
     <use xlink:href="#m3c4761cf0d" x="216.912303" y="380.157094" style="fill: #4c72b0; stroke: #4c72b0"/>
     <use xlink:href="#m3c4761cf0d" x="218.755776" y="425.391694" style="fill: #4c72b0; stroke: #4c72b0"/>
     <use xlink:href="#m3c4761cf0d" x="221.17136" y="465.39194" style="fill: #4c72b0; stroke: #4c72b0"/>
     <use xlink:href="#m3c4761cf0d" x="242.975188" y="470.683636" style="fill: #4c72b0; stroke: #4c72b0"/>
     <use xlink:href="#m3c4761cf0d" x="244.945796" y="469.138138" style="fill: #4c72b0; stroke: #4c72b0"/>
     <use xlink:href="#m3c4761cf0d" x="249.840533" y="447.723072" style="fill: #4c72b0; stroke: #4c72b0"/>
     <use xlink:href="#m3c4761cf0d" x="312.391456" y="419.332135" style="fill: #4c72b0; stroke: #4c72b0"/>
     <use xlink:href="#m3c4761cf0d" x="312.391456" y="385.522487" style="fill: #4c72b0; stroke: #4c72b0"/>
     <use xlink:href="#m3c4761cf0d" x="312.518592" y="353.101253" style="fill: #4c72b0; stroke: #4c72b0"/>
     <use xlink:href="#m3c4761cf0d" x="312.58216" y="332.216577" style="fill: #4c72b0; stroke: #4c72b0"/>
     <use xlink:href="#m3c4761cf0d" x="313.344976" y="317.326513" style="fill: #4c72b0; stroke: #4c72b0"/>
     <use xlink:href="#m3c4761cf0d" x="313.726384" y="311.24548" style="fill: #4c72b0; stroke: #4c72b0"/>
     <use xlink:href="#m3c4761cf0d" x="320.146753" y="311.097661" style="fill: #4c72b0; stroke: #4c72b0"/>
     <use xlink:href="#m3c4761cf0d" x="321.926658" y="317.422475" style="fill: #4c72b0; stroke: #4c72b0"/>
     <use xlink:href="#m3c4761cf0d" x="329.236979" y="305.645315" style="fill: #4c72b0; stroke: #4c72b0"/>
     <use xlink:href="#m3c4761cf0d" x="329.427683" y="297.790954" style="fill: #4c72b0; stroke: #4c72b0"/>
     <use xlink:href="#m3c4761cf0d" x="367.886329" y="297.916748" style="fill: #4c72b0; stroke: #4c72b0"/>
     <use xlink:href="#m3c4761cf0d" x="402.658031" y="293.344468" style="fill: #4c72b0; stroke: #4c72b0"/>
     <use xlink:href="#m3c4761cf0d" x="469.277307" y="293.504633" style="fill: #4c72b0; stroke: #4c72b0"/>
     <use xlink:href="#m3c4761cf0d" x="502.269105" y="285.996313" style="fill: #4c72b0; stroke: #4c72b0"/>
     <use xlink:href="#m3c4761cf0d" x="521.59378" y="264.393824" style="fill: #4c72b0; stroke: #4c72b0"/>
     <use xlink:href="#m3c4761cf0d" x="542.825496" y="270.118349" style="fill: #4c72b0; stroke: #4c72b0"/>
     <use xlink:href="#m3c4761cf0d" x="550.644361" y="294.989235" style="fill: #4c72b0; stroke: #4c72b0"/>
     <use xlink:href="#m3c4761cf0d" x="555.411962" y="331.239077" style="fill: #4c72b0; stroke: #4c72b0"/>
     <use xlink:href="#m3c4761cf0d" x="555.79337" y="369.174442" style="fill: #4c72b0; stroke: #4c72b0"/>
     <use xlink:href="#m3c4761cf0d" x="556.492618" y="383.848927" style="fill: #4c72b0; stroke: #4c72b0"/>
     <use xlink:href="#m3c4761cf0d" x="562.785851" y="377.849039" style="fill: #4c72b0; stroke: #4c72b0"/>
     <use xlink:href="#m3c4761cf0d" x="577.724334" y="368.465334" style="fill: #4c72b0; stroke: #4c72b0"/>
     <use xlink:href="#m3c4761cf0d" x="597.049009" y="355.703256" style="fill: #4c72b0; stroke: #4c72b0"/>
     <use xlink:href="#m3c4761cf0d" x="601.053794" y="346.656641" style="fill: #4c72b0; stroke: #4c72b0"/>
     <use xlink:href="#m3c4761cf0d" x="601.18093" y="339.206348" style="fill: #4c72b0; stroke: #4c72b0"/>
     <use xlink:href="#m3c4761cf0d" x="601.244498" y="328.779223" style="fill: #4c72b0; stroke: #4c72b0"/>
     <use xlink:href="#m3c4761cf0d" x="603.977922" y="316.466391" style="fill: #4c72b0; stroke: #4c72b0"/>
     <use xlink:href="#m3c4761cf0d" x="604.99501" y="320.221945" style="fill: #4c72b0; stroke: #4c72b0"/>
     <use xlink:href="#m3c4761cf0d" x="605.503554" y="337.564328" style="fill: #4c72b0; stroke: #4c72b0"/>
     <use xlink:href="#m3c4761cf0d" x="605.503554" y="344.685845" style="fill: #4c72b0; stroke: #4c72b0"/>
     <use xlink:href="#m3c4761cf0d" x="628.388038" y="338.859852" style="fill: #4c72b0; stroke: #4c72b0"/>
     <use xlink:href="#m3c4761cf0d" x="629.722967" y="331.851117" style="fill: #4c72b0; stroke: #4c72b0"/>
     <use xlink:href="#m3c4761cf0d" x="629.977239" y="321.508761" style="fill: #4c72b0; stroke: #4c72b0"/>
     <use xlink:href="#m3c4761cf0d" x="632.074983" y="330.967326" style="fill: #4c72b0; stroke: #4c72b0"/>
     <use xlink:href="#m3c4761cf0d" x="634.617703" y="350.546899" style="fill: #4c72b0; stroke: #4c72b0"/>
     <use xlink:href="#m3c4761cf0d" x="642.627273" y="359.187742" style="fill: #4c72b0; stroke: #4c72b0"/>
     <use xlink:href="#m3c4761cf0d" x="645.996377" y="357.297112" style="fill: #4c72b0; stroke: #4c72b0"/>
     <use xlink:href="#m3c4761cf0d" x="647.077033" y="365.573139" style="fill: #4c72b0; stroke: #4c72b0"/>
     <use xlink:href="#m3c4761cf0d" x="647.331306" y="363.329957" style="fill: #4c72b0; stroke: #4c72b0"/>
     <use xlink:href="#m3c4761cf0d" x="647.458442" y="358.233015" style="fill: #4c72b0; stroke: #4c72b0"/>
     <use xlink:href="#m3c4761cf0d" x="648.79337" y="356.095069" style="fill: #4c72b0; stroke: #4c72b0"/>
     <use xlink:href="#m3c4761cf0d" x="648.79337" y="337.115253" style="fill: #4c72b0; stroke: #4c72b0"/>
     <use xlink:href="#m3c4761cf0d" x="648.856938" y="321.218447" style="fill: #4c72b0; stroke: #4c72b0"/>
     <use xlink:href="#m3c4761cf0d" x="650.255434" y="301.221029" style="fill: #4c72b0; stroke: #4c72b0"/>
     <use xlink:href="#m3c4761cf0d" x="652.861722" y="275.573455" style="fill: #4c72b0; stroke: #4c72b0"/>
     <use xlink:href="#m3c4761cf0d" x="653.179563" y="248.302561" style="fill: #4c72b0; stroke: #4c72b0"/>
     <use xlink:href="#m3c4761cf0d" x="653.624539" y="242.003708" style="fill: #4c72b0; stroke: #4c72b0"/>
     <use xlink:href="#m3c4761cf0d" x="653.688107" y="226.369066" style="fill: #4c72b0; stroke: #4c72b0"/>
     <use xlink:href="#m3c4761cf0d" x="654.323787" y="211.243262" style="fill: #4c72b0; stroke: #4c72b0"/>
     <use xlink:href="#m3c4761cf0d" x="654.705195" y="190.609095" style="fill: #4c72b0; stroke: #4c72b0"/>
     <use xlink:href="#m3c4761cf0d" x="655.277307" y="174.924135" style="fill: #4c72b0; stroke: #4c72b0"/>
     <use xlink:href="#m3c4761cf0d" x="655.531579" y="152.932649" style="fill: #4c72b0; stroke: #4c72b0"/>
     <use xlink:href="#m3c4761cf0d" x="655.595147" y="132.478509" style="fill: #4c72b0; stroke: #4c72b0"/>
     <use xlink:href="#m3c4761cf0d" x="656.739371" y="108.854874" style="fill: #4c72b0; stroke: #4c72b0"/>
     <use xlink:href="#m3c4761cf0d" x="656.930075" y="96.494607" style="fill: #4c72b0; stroke: #4c72b0"/>
     <use xlink:href="#m3c4761cf0d" x="657.756459" y="92.356364" style="fill: #4c72b0; stroke: #4c72b0"/>
     <use xlink:href="#m3c4761cf0d" x="663.15974" y="99.728459" style="fill: #4c72b0; stroke: #4c72b0"/>
     <use xlink:href="#m3c4761cf0d" x="663.604716" y="103.239883" style="fill: #4c72b0; stroke: #4c72b0"/>
     <use xlink:href="#m3c4761cf0d" x="663.604716" y="103.479916" style="fill: #4c72b0; stroke: #4c72b0"/>
     <use xlink:href="#m3c4761cf0d" x="663.604716" y="102.433551" style="fill: #4c72b0; stroke: #4c72b0"/>
     <use xlink:href="#m3c4761cf0d" x="663.731852" y="108.890404" style="fill: #4c72b0; stroke: #4c72b0"/>
     <use xlink:href="#m3c4761cf0d" x="664.240396" y="121.474496" style="fill: #4c72b0; stroke: #4c72b0"/>
     <use xlink:href="#m3c4761cf0d" x="664.685373" y="123.892548" style="fill: #4c72b0; stroke: #4c72b0"/>
     <use xlink:href="#m3c4761cf0d" x="666.465277" y="135.584747" style="fill: #4c72b0; stroke: #4c72b0"/>
     <use xlink:href="#m3c4761cf0d" x="666.783117" y="152.592421" style="fill: #4c72b0; stroke: #4c72b0"/>
     <use xlink:href="#m3c4761cf0d" x="667.164525" y="166.832725" style="fill: #4c72b0; stroke: #4c72b0"/>
     <use xlink:href="#m3c4761cf0d" x="667.355229" y="180.67083" style="fill: #4c72b0; stroke: #4c72b0"/>
     <use xlink:href="#m3c4761cf0d" x="667.418797" y="196.743187" style="fill: #4c72b0; stroke: #4c72b0"/>
     <use xlink:href="#m3c4761cf0d" x="668.054477" y="203.282698" style="fill: #4c72b0; stroke: #4c72b0"/>
     <use xlink:href="#m3c4761cf0d" x="668.054477" y="211.892055" style="fill: #4c72b0; stroke: #4c72b0"/>
     <use xlink:href="#m3c4761cf0d" x="670.660766" y="202.845326" style="fill: #4c72b0; stroke: #4c72b0"/>
     <use xlink:href="#m3c4761cf0d" x="670.85147" y="190.227664" style="fill: #4c72b0; stroke: #4c72b0"/>
     <use xlink:href="#m3c4761cf0d" x="672.567806" y="176.556509" style="fill: #4c72b0; stroke: #4c72b0"/>
     <use xlink:href="#m3c4761cf0d" x="674.220574" y="163.434882" style="fill: #4c72b0; stroke: #4c72b0"/>
     <use xlink:href="#m3c4761cf0d" x="674.538414" y="162.467326" style="fill: #4c72b0; stroke: #4c72b0"/>
     <use xlink:href="#m3c4761cf0d" x="677.907519" y="157.231514" style="fill: #4c72b0; stroke: #4c72b0"/>
     <use xlink:href="#m3c4761cf0d" x="678.161791" y="139.376296" style="fill: #4c72b0; stroke: #4c72b0"/>
     <use xlink:href="#m3c4761cf0d" x="678.479631" y="123.863477" style="fill: #4c72b0; stroke: #4c72b0"/>
     <use xlink:href="#m3c4761cf0d" x="678.733903" y="115.451543" style="fill: #4c72b0; stroke: #4c72b0"/>
     <use xlink:href="#m3c4761cf0d" x="679.433151" y="123.183006" style="fill: #4c72b0; stroke: #4c72b0"/>
     <use xlink:href="#m3c4761cf0d" x="681.022351" y="140.343793" style="fill: #4c72b0; stroke: #4c72b0"/>
     <use xlink:href="#m3c4761cf0d" x="682.929392" y="143.375074" style="fill: #4c72b0; stroke: #4c72b0"/>
     <use xlink:href="#m3c4761cf0d" x="684.9" y="115.657907" style="fill: #4c72b0; stroke: #4c72b0"/>
    </g>
   </g>
   <g id="line2d_18">
    <path d="M 99 275.459598 
L 712.8 275.459598 
" clip-path="url(#p62fec2e558)" style="fill: none; stroke: #000000; stroke-linecap: round"/>
   </g>
   <g id="patch_3">
    <path d="M 99 489.6 
L 99 73.44 
" style="fill: none; stroke: #ffffff; stroke-width: 1.25; stroke-linejoin: miter; stroke-linecap: square"/>
   </g>
   <g id="patch_4">
    <path d="M 712.8 489.6 
L 712.8 73.44 
" style="fill: none; stroke: #ffffff; stroke-width: 1.25; stroke-linejoin: miter; stroke-linecap: square"/>
   </g>
   <g id="patch_5">
    <path d="M 99 489.6 
L 712.8 489.6 
" style="fill: none; stroke: #ffffff; stroke-width: 1.25; stroke-linejoin: miter; stroke-linecap: square"/>
   </g>
   <g id="patch_6">
    <path d="M 99 73.44 
L 712.8 73.44 
" style="fill: none; stroke: #ffffff; stroke-width: 1.25; stroke-linejoin: miter; stroke-linecap: square"/>
   </g>
   <g id="text_19">
    <!-- Proudhon's Similarity to Political-Economic Discourse (0.0 = Equidistant to Centroids) -->
    <g style="fill: #262626" transform="translate(179.50125 67.44)scale(0.12 -0.12)">
     <defs>
      <path id="ArialMT-75" d="M 2597 0 
L 2597 488 
Q 2209 -75 1544 -75 
Q 1250 -75 995 37 
Q 741 150 617 320 
Q 494 491 444 738 
Q 409 903 409 1263 
L 409 3319 
L 972 3319 
L 972 1478 
Q 972 1038 1006 884 
Q 1059 663 1231 536 
Q 1403 409 1656 409 
Q 1909 409 2131 539 
Q 2353 669 2445 892 
Q 2538 1116 2538 1541 
L 2538 3319 
L 3100 3319 
L 3100 0 
L 2597 0 
z
" transform="scale(0.015625)"/>
      <path id="ArialMT-64" d="M 2575 0 
L 2575 419 
Q 2259 -75 1647 -75 
Q 1250 -75 917 144 
Q 584 363 401 755 
Q 219 1147 219 1656 
Q 219 2153 384 2558 
Q 550 2963 881 3178 
Q 1213 3394 1622 3394 
Q 1922 3394 2156 3267 
Q 2391 3141 2538 2938 
L 2538 4581 
L 3097 4581 
L 3097 0 
L 2575 0 
z
M 797 1656 
Q 797 1019 1065 703 
Q 1334 388 1700 388 
Q 2069 388 2326 689 
Q 2584 991 2584 1609 
Q 2584 2291 2321 2609 
Q 2059 2928 1675 2928 
Q 1300 2928 1048 2622 
Q 797 2316 797 1656 
z
" transform="scale(0.015625)"/>
      <path id="ArialMT-68" d="M 422 0 
L 422 4581 
L 984 4581 
L 984 2938 
Q 1378 3394 1978 3394 
Q 2347 3394 2619 3248 
Q 2891 3103 3008 2847 
Q 3125 2591 3125 2103 
L 3125 0 
L 2563 0 
L 2563 2103 
Q 2563 2525 2380 2717 
Q 2197 2909 1863 2909 
Q 1613 2909 1392 2779 
Q 1172 2650 1078 2428 
Q 984 2206 984 1816 
L 984 0 
L 422 0 
z
" transform="scale(0.015625)"/>
      <path id="ArialMT-27" d="M 425 2959 
L 281 3816 
L 281 4581 
L 922 4581 
L 922 3816 
L 772 2959 
L 425 2959 
z
" transform="scale(0.015625)"/>
      <path id="ArialMT-73" d="M 197 991 
L 753 1078 
Q 800 744 1014 566 
Q 1228 388 1613 388 
Q 2000 388 2187 545 
Q 2375 703 2375 916 
Q 2375 1106 2209 1216 
Q 2094 1291 1634 1406 
Q 1016 1563 777 1677 
Q 538 1791 414 1992 
Q 291 2194 291 2438 
Q 291 2659 392 2848 
Q 494 3038 669 3163 
Q 800 3259 1026 3326 
Q 1253 3394 1513 3394 
Q 1903 3394 2198 3281 
Q 2494 3169 2634 2976 
Q 2775 2784 2828 2463 
L 2278 2388 
Q 2241 2644 2061 2787 
Q 1881 2931 1553 2931 
Q 1166 2931 1000 2803 
Q 834 2675 834 2503 
Q 834 2394 903 2306 
Q 972 2216 1119 2156 
Q 1203 2125 1616 2013 
Q 2213 1853 2448 1751 
Q 2684 1650 2818 1456 
Q 2953 1263 2953 975 
Q 2953 694 2789 445 
Q 2625 197 2315 61 
Q 2006 -75 1616 -75 
Q 969 -75 630 194 
Q 291 463 197 991 
z
" transform="scale(0.015625)"/>
      <path id="ArialMT-2d" d="M 203 1375 
L 203 1941 
L 1931 1941 
L 1931 1375 
L 203 1375 
z
" transform="scale(0.015625)"/>
      <path id="ArialMT-28" d="M 1497 -1347 
Q 1031 -759 709 28 
Q 388 816 388 1659 
Q 388 2403 628 3084 
Q 909 3875 1497 4659 
L 1900 4659 
Q 1522 4009 1400 3731 
Q 1209 3300 1100 2831 
Q 966 2247 966 1656 
Q 966 153 1900 -1347 
L 1497 -1347 
z
" transform="scale(0.015625)"/>
      <path id="ArialMT-3d" d="M 3381 2694 
L 356 2694 
L 356 3219 
L 3381 3219 
L 3381 2694 
z
M 3381 1303 
L 356 1303 
L 356 1828 
L 3381 1828 
L 3381 1303 
z
" transform="scale(0.015625)"/>
      <path id="ArialMT-71" d="M 2538 -1272 
L 2538 353 
Q 2406 169 2170 47 
Q 1934 -75 1669 -75 
Q 1078 -75 651 397 
Q 225 869 225 1691 
Q 225 2191 398 2587 
Q 572 2984 901 3189 
Q 1231 3394 1625 3394 
Q 2241 3394 2594 2875 
L 2594 3319 
L 3100 3319 
L 3100 -1272 
L 2538 -1272 
z
M 803 1669 
Q 803 1028 1072 708 
Q 1341 388 1716 388 
Q 2075 388 2334 692 
Q 2594 997 2594 1619 
Q 2594 2281 2320 2615 
Q 2047 2950 1678 2950 
Q 1313 2950 1058 2639 
Q 803 2328 803 1669 
z
" transform="scale(0.015625)"/>
      <path id="ArialMT-43" d="M 3763 1606 
L 4369 1453 
Q 4178 706 3683 314 
Q 3188 -78 2472 -78 
Q 1731 -78 1267 223 
Q 803 525 561 1097 
Q 319 1669 319 2325 
Q 319 3041 592 3573 
Q 866 4106 1370 4382 
Q 1875 4659 2481 4659 
Q 3169 4659 3637 4309 
Q 4106 3959 4291 3325 
L 3694 3184 
Q 3534 3684 3231 3912 
Q 2928 4141 2469 4141 
Q 1941 4141 1586 3887 
Q 1231 3634 1087 3207 
Q 944 2781 944 2328 
Q 944 1744 1114 1308 
Q 1284 872 1643 656 
Q 2003 441 2422 441 
Q 2931 441 3284 734 
Q 3638 1028 3763 1606 
z
" transform="scale(0.015625)"/>
      <path id="ArialMT-29" d="M 791 -1347 
L 388 -1347 
Q 1322 153 1322 1656 
Q 1322 2244 1188 2822 
Q 1081 3291 891 3722 
Q 769 4003 388 4659 
L 791 4659 
Q 1378 3875 1659 3084 
Q 1900 2403 1900 1659 
Q 1900 816 1576 28 
Q 1253 -759 791 -1347 
z
" transform="scale(0.015625)"/>
     </defs>
     <use xlink:href="#ArialMT-50"/>
     <use xlink:href="#ArialMT-72" x="66.699219"/>
     <use xlink:href="#ArialMT-6f" x="100"/>
     <use xlink:href="#ArialMT-75" x="155.615234"/>
     <use xlink:href="#ArialMT-64" x="211.230469"/>
     <use xlink:href="#ArialMT-68" x="266.845703"/>
     <use xlink:href="#ArialMT-6f" x="322.460938"/>
     <use xlink:href="#ArialMT-6e" x="378.076172"/>
     <use xlink:href="#ArialMT-27" x="433.691406"/>
     <use xlink:href="#ArialMT-73" x="452.783203"/>
     <use xlink:href="#ArialMT-20" x="502.783203"/>
     <use xlink:href="#ArialMT-53" x="530.566406"/>
     <use xlink:href="#ArialMT-69" x="597.265625"/>
     <use xlink:href="#ArialMT-6d" x="619.482422"/>
     <use xlink:href="#ArialMT-69" x="702.783203"/>
     <use xlink:href="#ArialMT-6c" x="725"/>
     <use xlink:href="#ArialMT-61" x="747.216797"/>
     <use xlink:href="#ArialMT-72" x="802.832031"/>
     <use xlink:href="#ArialMT-69" x="836.132812"/>
     <use xlink:href="#ArialMT-74" x="858.349609"/>
     <use xlink:href="#ArialMT-79" x="886.132812"/>
     <use xlink:href="#ArialMT-20" x="936.132812"/>
     <use xlink:href="#ArialMT-74" x="963.916016"/>
     <use xlink:href="#ArialMT-6f" x="991.699219"/>
     <use xlink:href="#ArialMT-20" x="1047.314453"/>
     <use xlink:href="#ArialMT-50" x="1075.097656"/>
     <use xlink:href="#ArialMT-6f" x="1141.796875"/>
     <use xlink:href="#ArialMT-6c" x="1197.412109"/>
     <use xlink:href="#ArialMT-69" x="1219.628906"/>
     <use xlink:href="#ArialMT-74" x="1241.845703"/>
     <use xlink:href="#ArialMT-69" x="1269.628906"/>
     <use xlink:href="#ArialMT-63" x="1291.845703"/>
     <use xlink:href="#ArialMT-61" x="1341.845703"/>
     <use xlink:href="#ArialMT-6c" x="1397.460938"/>
     <use xlink:href="#ArialMT-2d" x="1419.677734"/>
     <use xlink:href="#ArialMT-45" x="1452.978516"/>
     <use xlink:href="#ArialMT-63" x="1519.677734"/>
     <use xlink:href="#ArialMT-6f" x="1569.677734"/>
     <use xlink:href="#ArialMT-6e" x="1625.292969"/>
     <use xlink:href="#ArialMT-6f" x="1680.908203"/>
     <use xlink:href="#ArialMT-6d" x="1736.523438"/>
     <use xlink:href="#ArialMT-69" x="1819.824219"/>
     <use xlink:href="#ArialMT-63" x="1842.041016"/>
     <use xlink:href="#ArialMT-20" x="1892.041016"/>
     <use xlink:href="#ArialMT-44" x="1919.824219"/>
     <use xlink:href="#ArialMT-69" x="1992.041016"/>
     <use xlink:href="#ArialMT-73" x="2014.257812"/>
     <use xlink:href="#ArialMT-63" x="2064.257812"/>
     <use xlink:href="#ArialMT-6f" x="2114.257812"/>
     <use xlink:href="#ArialMT-75" x="2169.873047"/>
     <use xlink:href="#ArialMT-72" x="2225.488281"/>
     <use xlink:href="#ArialMT-73" x="2258.789062"/>
     <use xlink:href="#ArialMT-65" x="2308.789062"/>
     <use xlink:href="#ArialMT-20" x="2364.404297"/>
     <use xlink:href="#ArialMT-28" x="2392.1875"/>
     <use xlink:href="#ArialMT-30" x="2425.488281"/>
     <use xlink:href="#ArialMT-2e" x="2481.103516"/>
     <use xlink:href="#ArialMT-30" x="2508.886719"/>
     <use xlink:href="#ArialMT-20" x="2564.501953"/>
     <use xlink:href="#ArialMT-3d" x="2592.285156"/>
     <use xlink:href="#ArialMT-20" x="2650.683594"/>
     <use xlink:href="#ArialMT-45" x="2678.466797"/>
     <use xlink:href="#ArialMT-71" x="2745.166016"/>
     <use xlink:href="#ArialMT-75" x="2800.78125"/>
     <use xlink:href="#ArialMT-69" x="2856.396484"/>
     <use xlink:href="#ArialMT-64" x="2878.613281"/>
     <use xlink:href="#ArialMT-69" x="2934.228516"/>
     <use xlink:href="#ArialMT-73" x="2956.445312"/>
     <use xlink:href="#ArialMT-74" x="3006.445312"/>
     <use xlink:href="#ArialMT-61" x="3034.228516"/>
     <use xlink:href="#ArialMT-6e" x="3089.84375"/>
     <use xlink:href="#ArialMT-74" x="3145.458984"/>
     <use xlink:href="#ArialMT-20" x="3173.242188"/>
     <use xlink:href="#ArialMT-74" x="3201.025391"/>
     <use xlink:href="#ArialMT-6f" x="3228.808594"/>
     <use xlink:href="#ArialMT-20" x="3284.423828"/>
     <use xlink:href="#ArialMT-43" x="3312.207031"/>
     <use xlink:href="#ArialMT-65" x="3384.423828"/>
     <use xlink:href="#ArialMT-6e" x="3440.039062"/>
     <use xlink:href="#ArialMT-74" x="3495.654297"/>
     <use xlink:href="#ArialMT-72" x="3523.4375"/>
     <use xlink:href="#ArialMT-6f" x="3556.738281"/>
     <use xlink:href="#ArialMT-69" x="3612.353516"/>
     <use xlink:href="#ArialMT-64" x="3634.570312"/>
     <use xlink:href="#ArialMT-73" x="3690.185547"/>
     <use xlink:href="#ArialMT-29" x="3740.185547"/>
    </g>
   </g>
   <g id="legend_1">
    <g id="patch_7">
     <path d="M 106.7 97.92875 
L 237.890469 97.92875 
Q 240.090469 97.92875 240.090469 95.72875 
L 240.090469 81.14 
Q 240.090469 78.94 237.890469 78.94 
L 106.7 78.94 
Q 104.5 78.94 104.5 81.14 
L 104.5 95.72875 
Q 104.5 97.92875 106.7 97.92875 
z
" style="fill: #eaeaf2; opacity: 0.8; stroke: #cccccc; stroke-linejoin: miter"/>
    </g>
    <g id="line2d_19">
     <path d="M 108.9 87.363594 
L 119.9 87.363594 
L 130.9 87.363594 
" style="fill: none; stroke: #4c72b0; stroke-width: 1.5; stroke-linecap: round"/>
     <g>
      <use xlink:href="#m3c4761cf0d" x="119.9" y="87.363594" style="fill: #4c72b0; stroke: #4c72b0"/>
     </g>
    </g>
    <g id="text_20">
     <!-- rolling_pe_ratio_sm -->
     <g style="fill: #262626" transform="translate(139.7 91.213594)scale(0.11 -0.11)">
      <defs>
       <path id="ArialMT-5f" d="M -97 -1272 
L -97 -866 
L 3631 -866 
L 3631 -1272 
L -97 -1272 
z
" transform="scale(0.015625)"/>
       <path id="ArialMT-70" d="M 422 -1272 
L 422 3319 
L 934 3319 
L 934 2888 
Q 1116 3141 1344 3267 
Q 1572 3394 1897 3394 
Q 2322 3394 2647 3175 
Q 2972 2956 3137 2557 
Q 3303 2159 3303 1684 
Q 3303 1175 3120 767 
Q 2938 359 2589 142 
Q 2241 -75 1856 -75 
Q 1575 -75 1351 44 
Q 1128 163 984 344 
L 984 -1272 
L 422 -1272 
z
M 931 1641 
Q 931 1000 1190 694 
Q 1450 388 1819 388 
Q 2194 388 2461 705 
Q 2728 1022 2728 1688 
Q 2728 2322 2467 2637 
Q 2206 2953 1844 2953 
Q 1484 2953 1207 2617 
Q 931 2281 931 1641 
z
" transform="scale(0.015625)"/>
      </defs>
      <use xlink:href="#ArialMT-72"/>
      <use xlink:href="#ArialMT-6f" x="33.300781"/>
      <use xlink:href="#ArialMT-6c" x="88.916016"/>
      <use xlink:href="#ArialMT-6c" x="111.132812"/>
      <use xlink:href="#ArialMT-69" x="133.349609"/>
      <use xlink:href="#ArialMT-6e" x="155.566406"/>
      <use xlink:href="#ArialMT-67" x="211.181641"/>
      <use xlink:href="#ArialMT-5f" x="266.796875"/>
      <use xlink:href="#ArialMT-70" x="322.412109"/>
      <use xlink:href="#ArialMT-65" x="378.027344"/>
      <use xlink:href="#ArialMT-5f" x="433.642578"/>
      <use xlink:href="#ArialMT-72" x="489.257812"/>
      <use xlink:href="#ArialMT-61" x="522.558594"/>
      <use xlink:href="#ArialMT-74" x="578.173828"/>
      <use xlink:href="#ArialMT-69" x="605.957031"/>
      <use xlink:href="#ArialMT-6f" x="628.173828"/>
      <use xlink:href="#ArialMT-5f" x="683.789062"/>
      <use xlink:href="#ArialMT-73" x="739.404297"/>
      <use xlink:href="#ArialMT-6d" x="789.404297"/>
     </g>
    </g>
   </g>
  </g>
 </g>
 <defs>
  <clipPath id="p62fec2e558">
   <rect x="99" y="73.44" width="613.8" height="416.16"/>
  </clipPath>
 </defs>
</svg>
