<?xml version="1.0" encoding="utf-8" standalone="no"?>
<!DOCTYPE svg PUBLIC "-//W3C//DTD SVG 1.1//EN"
  "http://www.w3.org/Graphics/SVG/1.1/DTD/svg11.dtd">
<svg xmlns:xlink="http://www.w3.org/1999/xlink" width="792pt" height="612pt" viewBox="0 0 792 612" xmlns="http://www.w3.org/2000/svg" version="1.1">
 <metadata>
  <rdf:RDF xmlns:dc="http://purl.org/dc/elements/1.1/" xmlns:cc="http://creativecommons.org/ns#" xmlns:rdf="http://www.w3.org/1999/02/22-rdf-syntax-ns#">
   <cc:Work>
    <dc:type rdf:resource="http://purl.org/dc/dcmitype/StillImage"/>
    <dc:date>2021-12-26T20:14:18.531331</dc:date>
    <dc:format>image/svg+xml</dc:format>
    <dc:creator>
     <cc:Agent>
      <dc:title>Matplotlib v3.5.1, https://matplotlib.org/</dc:title>
     </cc:Agent>
    </dc:creator>
   </cc:Work>
  </rdf:RDF>
 </metadata>
 <defs>
  <style type="text/css">*{stroke-linejoin: round; stroke-linecap: butt}</style>
 </defs>
 <g id="figure_1">
  <g id="patch_1">
   <path d="M 0 612 
L 792 612 
L 792 0 
L 0 0 
z
" style="fill: #ffffff"/>
  </g>
  <g id="axes_1">
   <g id="patch_2">
    <path d="M 99 489.6 
L 712.8 489.6 
L 712.8 73.44 
L 99 73.44 
z
" style="fill: #ffffff"/>
   </g>
   <g id="matplotlib.axis_1">
    <g id="xtick_1">
     <g id="line2d_1">
      <defs>
       <path id="m0aba0be2d2" d="M 0 0 
L 0 3.5 
" style="stroke: #000000; stroke-width: 0.8"/>
      </defs>
      <g>
       <use xlink:href="#m0aba0be2d2" x="99" y="489.6" style="stroke: #000000; stroke-width: 0.8"/>
      </g>
     </g>
     <g id="text_1">
      <!-- 1830-12-31 -->
      <g transform="translate(47.630549 532.238252)rotate(-30)scale(0.1 -0.1)">
       <defs>
        <path id="DejaVuSans-31" d="M 794 531 
L 1825 531 
L 1825 4091 
L 703 3866 
L 703 4441 
L 1819 4666 
L 2450 4666 
L 2450 531 
L 3481 531 
L 3481 0 
L 794 0 
L 794 531 
z
" transform="scale(0.015625)"/>
        <path id="DejaVuSans-38" d="M 2034 2216 
Q 1584 2216 1326 1975 
Q 1069 1734 1069 1313 
Q 1069 891 1326 650 
Q 1584 409 2034 409 
Q 2484 409 2743 651 
Q 3003 894 3003 1313 
Q 3003 1734 2745 1975 
Q 2488 2216 2034 2216 
z
M 1403 2484 
Q 997 2584 770 2862 
Q 544 3141 544 3541 
Q 544 4100 942 4425 
Q 1341 4750 2034 4750 
Q 2731 4750 3128 4425 
Q 3525 4100 3525 3541 
Q 3525 3141 3298 2862 
Q 3072 2584 2669 2484 
Q 3125 2378 3379 2068 
Q 3634 1759 3634 1313 
Q 3634 634 3220 271 
Q 2806 -91 2034 -91 
Q 1263 -91 848 271 
Q 434 634 434 1313 
Q 434 1759 690 2068 
Q 947 2378 1403 2484 
z
M 1172 3481 
Q 1172 3119 1398 2916 
Q 1625 2713 2034 2713 
Q 2441 2713 2670 2916 
Q 2900 3119 2900 3481 
Q 2900 3844 2670 4047 
Q 2441 4250 2034 4250 
Q 1625 4250 1398 4047 
Q 1172 3844 1172 3481 
z
" transform="scale(0.015625)"/>
        <path id="DejaVuSans-33" d="M 2597 2516 
Q 3050 2419 3304 2112 
Q 3559 1806 3559 1356 
Q 3559 666 3084 287 
Q 2609 -91 1734 -91 
Q 1441 -91 1130 -33 
Q 819 25 488 141 
L 488 750 
Q 750 597 1062 519 
Q 1375 441 1716 441 
Q 2309 441 2620 675 
Q 2931 909 2931 1356 
Q 2931 1769 2642 2001 
Q 2353 2234 1838 2234 
L 1294 2234 
L 1294 2753 
L 1863 2753 
Q 2328 2753 2575 2939 
Q 2822 3125 2822 3475 
Q 2822 3834 2567 4026 
Q 2313 4219 1838 4219 
Q 1578 4219 1281 4162 
Q 984 4106 628 3988 
L 628 4550 
Q 988 4650 1302 4700 
Q 1616 4750 1894 4750 
Q 2613 4750 3031 4423 
Q 3450 4097 3450 3541 
Q 3450 3153 3228 2886 
Q 3006 2619 2597 2516 
z
" transform="scale(0.015625)"/>
        <path id="DejaVuSans-30" d="M 2034 4250 
Q 1547 4250 1301 3770 
Q 1056 3291 1056 2328 
Q 1056 1369 1301 889 
Q 1547 409 2034 409 
Q 2525 409 2770 889 
Q 3016 1369 3016 2328 
Q 3016 3291 2770 3770 
Q 2525 4250 2034 4250 
z
M 2034 4750 
Q 2819 4750 3233 4129 
Q 3647 3509 3647 2328 
Q 3647 1150 3233 529 
Q 2819 -91 2034 -91 
Q 1250 -91 836 529 
Q 422 1150 422 2328 
Q 422 3509 836 4129 
Q 1250 4750 2034 4750 
z
" transform="scale(0.015625)"/>
        <path id="DejaVuSans-2d" d="M 313 2009 
L 1997 2009 
L 1997 1497 
L 313 1497 
L 313 2009 
z
" transform="scale(0.015625)"/>
        <path id="DejaVuSans-32" d="M 1228 531 
L 3431 531 
L 3431 0 
L 469 0 
L 469 531 
Q 828 903 1448 1529 
Q 2069 2156 2228 2338 
Q 2531 2678 2651 2914 
Q 2772 3150 2772 3378 
Q 2772 3750 2511 3984 
Q 2250 4219 1831 4219 
Q 1534 4219 1204 4116 
Q 875 4013 500 3803 
L 500 4441 
Q 881 4594 1212 4672 
Q 1544 4750 1819 4750 
Q 2544 4750 2975 4387 
Q 3406 4025 3406 3419 
Q 3406 3131 3298 2873 
Q 3191 2616 2906 2266 
Q 2828 2175 2409 1742 
Q 1991 1309 1228 531 
z
" transform="scale(0.015625)"/>
       </defs>
       <use xlink:href="#DejaVuSans-31"/>
       <use xlink:href="#DejaVuSans-38" x="63.623047"/>
       <use xlink:href="#DejaVuSans-33" x="127.246094"/>
       <use xlink:href="#DejaVuSans-30" x="190.869141"/>
       <use xlink:href="#DejaVuSans-2d" x="254.492188"/>
       <use xlink:href="#DejaVuSans-31" x="290.576172"/>
       <use xlink:href="#DejaVuSans-32" x="354.199219"/>
       <use xlink:href="#DejaVuSans-2d" x="417.822266"/>
       <use xlink:href="#DejaVuSans-33" x="453.90625"/>
       <use xlink:href="#DejaVuSans-31" x="517.529297"/>
      </g>
     </g>
    </g>
    <g id="xtick_2">
     <g id="line2d_2">
      <g>
       <use xlink:href="#m0aba0be2d2" x="155.663092" y="489.6" style="stroke: #000000; stroke-width: 0.8"/>
      </g>
     </g>
     <g id="text_2">
      <!-- 1835-12-31 -->
      <g transform="translate(104.293641 532.238252)rotate(-30)scale(0.1 -0.1)">
       <defs>
        <path id="DejaVuSans-35" d="M 691 4666 
L 3169 4666 
L 3169 4134 
L 1269 4134 
L 1269 2991 
Q 1406 3038 1543 3061 
Q 1681 3084 1819 3084 
Q 2600 3084 3056 2656 
Q 3513 2228 3513 1497 
Q 3513 744 3044 326 
Q 2575 -91 1722 -91 
Q 1428 -91 1123 -41 
Q 819 9 494 109 
L 494 744 
Q 775 591 1075 516 
Q 1375 441 1709 441 
Q 2250 441 2565 725 
Q 2881 1009 2881 1497 
Q 2881 1984 2565 2268 
Q 2250 2553 1709 2553 
Q 1456 2553 1204 2497 
Q 953 2441 691 2322 
L 691 4666 
z
" transform="scale(0.015625)"/>
       </defs>
       <use xlink:href="#DejaVuSans-31"/>
       <use xlink:href="#DejaVuSans-38" x="63.623047"/>
       <use xlink:href="#DejaVuSans-33" x="127.246094"/>
       <use xlink:href="#DejaVuSans-35" x="190.869141"/>
       <use xlink:href="#DejaVuSans-2d" x="254.492188"/>
       <use xlink:href="#DejaVuSans-31" x="290.576172"/>
       <use xlink:href="#DejaVuSans-32" x="354.199219"/>
       <use xlink:href="#DejaVuSans-2d" x="417.822266"/>
       <use xlink:href="#DejaVuSans-33" x="453.90625"/>
       <use xlink:href="#DejaVuSans-31" x="517.529297"/>
      </g>
     </g>
    </g>
    <g id="xtick_3">
     <g id="line2d_3">
      <g>
       <use xlink:href="#m0aba0be2d2" x="212.357216" y="489.6" style="stroke: #000000; stroke-width: 0.8"/>
      </g>
     </g>
     <g id="text_3">
      <!-- 1840-12-31 -->
      <g transform="translate(160.987765 532.238252)rotate(-30)scale(0.1 -0.1)">
       <defs>
        <path id="DejaVuSans-34" d="M 2419 4116 
L 825 1625 
L 2419 1625 
L 2419 4116 
z
M 2253 4666 
L 3047 4666 
L 3047 1625 
L 3713 1625 
L 3713 1100 
L 3047 1100 
L 3047 0 
L 2419 0 
L 2419 1100 
L 313 1100 
L 313 1709 
L 2253 4666 
z
" transform="scale(0.015625)"/>
       </defs>
       <use xlink:href="#DejaVuSans-31"/>
       <use xlink:href="#DejaVuSans-38" x="63.623047"/>
       <use xlink:href="#DejaVuSans-34" x="127.246094"/>
       <use xlink:href="#DejaVuSans-30" x="190.869141"/>
       <use xlink:href="#DejaVuSans-2d" x="254.492188"/>
       <use xlink:href="#DejaVuSans-31" x="290.576172"/>
       <use xlink:href="#DejaVuSans-32" x="354.199219"/>
       <use xlink:href="#DejaVuSans-2d" x="417.822266"/>
       <use xlink:href="#DejaVuSans-33" x="453.90625"/>
       <use xlink:href="#DejaVuSans-31" x="517.529297"/>
      </g>
     </g>
    </g>
    <g id="xtick_4">
     <g id="line2d_4">
      <g>
       <use xlink:href="#m0aba0be2d2" x="269.020308" y="489.6" style="stroke: #000000; stroke-width: 0.8"/>
      </g>
     </g>
     <g id="text_4">
      <!-- 1845-12-31 -->
      <g transform="translate(217.650857 532.238252)rotate(-30)scale(0.1 -0.1)">
       <use xlink:href="#DejaVuSans-31"/>
       <use xlink:href="#DejaVuSans-38" x="63.623047"/>
       <use xlink:href="#DejaVuSans-34" x="127.246094"/>
       <use xlink:href="#DejaVuSans-35" x="190.869141"/>
       <use xlink:href="#DejaVuSans-2d" x="254.492188"/>
       <use xlink:href="#DejaVuSans-31" x="290.576172"/>
       <use xlink:href="#DejaVuSans-32" x="354.199219"/>
       <use xlink:href="#DejaVuSans-2d" x="417.822266"/>
       <use xlink:href="#DejaVuSans-33" x="453.90625"/>
       <use xlink:href="#DejaVuSans-31" x="517.529297"/>
      </g>
     </g>
    </g>
    <g id="xtick_5">
     <g id="line2d_5">
      <g>
       <use xlink:href="#m0aba0be2d2" x="325.683401" y="489.6" style="stroke: #000000; stroke-width: 0.8"/>
      </g>
     </g>
     <g id="text_5">
      <!-- 1850-12-31 -->
      <g transform="translate(274.313949 532.238252)rotate(-30)scale(0.1 -0.1)">
       <use xlink:href="#DejaVuSans-31"/>
       <use xlink:href="#DejaVuSans-38" x="63.623047"/>
       <use xlink:href="#DejaVuSans-35" x="127.246094"/>
       <use xlink:href="#DejaVuSans-30" x="190.869141"/>
       <use xlink:href="#DejaVuSans-2d" x="254.492188"/>
       <use xlink:href="#DejaVuSans-31" x="290.576172"/>
       <use xlink:href="#DejaVuSans-32" x="354.199219"/>
       <use xlink:href="#DejaVuSans-2d" x="417.822266"/>
       <use xlink:href="#DejaVuSans-33" x="453.90625"/>
       <use xlink:href="#DejaVuSans-31" x="517.529297"/>
      </g>
     </g>
    </g>
    <g id="xtick_6">
     <g id="line2d_6">
      <g>
       <use xlink:href="#m0aba0be2d2" x="382.346493" y="489.6" style="stroke: #000000; stroke-width: 0.8"/>
      </g>
     </g>
     <g id="text_6">
      <!-- 1855-12-31 -->
      <g transform="translate(330.977042 532.238252)rotate(-30)scale(0.1 -0.1)">
       <use xlink:href="#DejaVuSans-31"/>
       <use xlink:href="#DejaVuSans-38" x="63.623047"/>
       <use xlink:href="#DejaVuSans-35" x="127.246094"/>
       <use xlink:href="#DejaVuSans-35" x="190.869141"/>
       <use xlink:href="#DejaVuSans-2d" x="254.492188"/>
       <use xlink:href="#DejaVuSans-31" x="290.576172"/>
       <use xlink:href="#DejaVuSans-32" x="354.199219"/>
       <use xlink:href="#DejaVuSans-2d" x="417.822266"/>
       <use xlink:href="#DejaVuSans-33" x="453.90625"/>
       <use xlink:href="#DejaVuSans-31" x="517.529297"/>
      </g>
     </g>
    </g>
    <g id="xtick_7">
     <g id="line2d_7">
      <g>
       <use xlink:href="#m0aba0be2d2" x="439.040617" y="489.6" style="stroke: #000000; stroke-width: 0.8"/>
      </g>
     </g>
     <g id="text_7">
      <!-- 1860-12-31 -->
      <g transform="translate(387.671165 532.238252)rotate(-30)scale(0.1 -0.1)">
       <defs>
        <path id="DejaVuSans-36" d="M 2113 2584 
Q 1688 2584 1439 2293 
Q 1191 2003 1191 1497 
Q 1191 994 1439 701 
Q 1688 409 2113 409 
Q 2538 409 2786 701 
Q 3034 994 3034 1497 
Q 3034 2003 2786 2293 
Q 2538 2584 2113 2584 
z
M 3366 4563 
L 3366 3988 
Q 3128 4100 2886 4159 
Q 2644 4219 2406 4219 
Q 1781 4219 1451 3797 
Q 1122 3375 1075 2522 
Q 1259 2794 1537 2939 
Q 1816 3084 2150 3084 
Q 2853 3084 3261 2657 
Q 3669 2231 3669 1497 
Q 3669 778 3244 343 
Q 2819 -91 2113 -91 
Q 1303 -91 875 529 
Q 447 1150 447 2328 
Q 447 3434 972 4092 
Q 1497 4750 2381 4750 
Q 2619 4750 2861 4703 
Q 3103 4656 3366 4563 
z
" transform="scale(0.015625)"/>
       </defs>
       <use xlink:href="#DejaVuSans-31"/>
       <use xlink:href="#DejaVuSans-38" x="63.623047"/>
       <use xlink:href="#DejaVuSans-36" x="127.246094"/>
       <use xlink:href="#DejaVuSans-30" x="190.869141"/>
       <use xlink:href="#DejaVuSans-2d" x="254.492188"/>
       <use xlink:href="#DejaVuSans-31" x="290.576172"/>
       <use xlink:href="#DejaVuSans-32" x="354.199219"/>
       <use xlink:href="#DejaVuSans-2d" x="417.822266"/>
       <use xlink:href="#DejaVuSans-33" x="453.90625"/>
       <use xlink:href="#DejaVuSans-31" x="517.529297"/>
      </g>
     </g>
    </g>
    <g id="xtick_8">
     <g id="line2d_8">
      <g>
       <use xlink:href="#m0aba0be2d2" x="495.703709" y="489.6" style="stroke: #000000; stroke-width: 0.8"/>
      </g>
     </g>
     <g id="text_8">
      <!-- 1865-12-31 -->
      <g transform="translate(444.334258 532.238252)rotate(-30)scale(0.1 -0.1)">
       <use xlink:href="#DejaVuSans-31"/>
       <use xlink:href="#DejaVuSans-38" x="63.623047"/>
       <use xlink:href="#DejaVuSans-36" x="127.246094"/>
       <use xlink:href="#DejaVuSans-35" x="190.869141"/>
       <use xlink:href="#DejaVuSans-2d" x="254.492188"/>
       <use xlink:href="#DejaVuSans-31" x="290.576172"/>
       <use xlink:href="#DejaVuSans-32" x="354.199219"/>
       <use xlink:href="#DejaVuSans-2d" x="417.822266"/>
       <use xlink:href="#DejaVuSans-33" x="453.90625"/>
       <use xlink:href="#DejaVuSans-31" x="517.529297"/>
      </g>
     </g>
    </g>
    <g id="xtick_9">
     <g id="line2d_9">
      <g>
       <use xlink:href="#m0aba0be2d2" x="552.366801" y="489.6" style="stroke: #000000; stroke-width: 0.8"/>
      </g>
     </g>
     <g id="text_9">
      <!-- 1870-12-31 -->
      <g transform="translate(500.99735 532.238252)rotate(-30)scale(0.1 -0.1)">
       <defs>
        <path id="DejaVuSans-37" d="M 525 4666 
L 3525 4666 
L 3525 4397 
L 1831 0 
L 1172 0 
L 2766 4134 
L 525 4134 
L 525 4666 
z
" transform="scale(0.015625)"/>
       </defs>
       <use xlink:href="#DejaVuSans-31"/>
       <use xlink:href="#DejaVuSans-38" x="63.623047"/>
       <use xlink:href="#DejaVuSans-37" x="127.246094"/>
       <use xlink:href="#DejaVuSans-30" x="190.869141"/>
       <use xlink:href="#DejaVuSans-2d" x="254.492188"/>
       <use xlink:href="#DejaVuSans-31" x="290.576172"/>
       <use xlink:href="#DejaVuSans-32" x="354.199219"/>
       <use xlink:href="#DejaVuSans-2d" x="417.822266"/>
       <use xlink:href="#DejaVuSans-33" x="453.90625"/>
       <use xlink:href="#DejaVuSans-31" x="517.529297"/>
      </g>
     </g>
    </g>
    <g id="xtick_10">
     <g id="line2d_10">
      <g>
       <use xlink:href="#m0aba0be2d2" x="609.029894" y="489.6" style="stroke: #000000; stroke-width: 0.8"/>
      </g>
     </g>
     <g id="text_10">
      <!-- 1875-12-31 -->
      <g transform="translate(557.660442 532.238252)rotate(-30)scale(0.1 -0.1)">
       <use xlink:href="#DejaVuSans-31"/>
       <use xlink:href="#DejaVuSans-38" x="63.623047"/>
       <use xlink:href="#DejaVuSans-37" x="127.246094"/>
       <use xlink:href="#DejaVuSans-35" x="190.869141"/>
       <use xlink:href="#DejaVuSans-2d" x="254.492188"/>
       <use xlink:href="#DejaVuSans-31" x="290.576172"/>
       <use xlink:href="#DejaVuSans-32" x="354.199219"/>
       <use xlink:href="#DejaVuSans-2d" x="417.822266"/>
       <use xlink:href="#DejaVuSans-33" x="453.90625"/>
       <use xlink:href="#DejaVuSans-31" x="517.529297"/>
      </g>
     </g>
    </g>
    <g id="xtick_11">
     <g id="line2d_11">
      <g>
       <use xlink:href="#m0aba0be2d2" x="665.724017" y="489.6" style="stroke: #000000; stroke-width: 0.8"/>
      </g>
     </g>
     <g id="text_11">
      <!-- 1880-12-31 -->
      <g transform="translate(614.354566 532.238252)rotate(-30)scale(0.1 -0.1)">
       <use xlink:href="#DejaVuSans-31"/>
       <use xlink:href="#DejaVuSans-38" x="63.623047"/>
       <use xlink:href="#DejaVuSans-38" x="127.246094"/>
       <use xlink:href="#DejaVuSans-30" x="190.869141"/>
       <use xlink:href="#DejaVuSans-2d" x="254.492188"/>
       <use xlink:href="#DejaVuSans-31" x="290.576172"/>
       <use xlink:href="#DejaVuSans-32" x="354.199219"/>
       <use xlink:href="#DejaVuSans-2d" x="417.822266"/>
       <use xlink:href="#DejaVuSans-33" x="453.90625"/>
       <use xlink:href="#DejaVuSans-31" x="517.529297"/>
      </g>
     </g>
    </g>
    <g id="text_12">
     <!-- Date of Writing -->
     <g transform="translate(368.096094 545.637752)scale(0.1 -0.1)">
      <defs>
       <path id="DejaVuSans-44" d="M 1259 4147 
L 1259 519 
L 2022 519 
Q 2988 519 3436 956 
Q 3884 1394 3884 2338 
Q 3884 3275 3436 3711 
Q 2988 4147 2022 4147 
L 1259 4147 
z
M 628 4666 
L 1925 4666 
Q 3281 4666 3915 4102 
Q 4550 3538 4550 2338 
Q 4550 1131 3912 565 
Q 3275 0 1925 0 
L 628 0 
L 628 4666 
z
" transform="scale(0.015625)"/>
       <path id="DejaVuSans-61" d="M 2194 1759 
Q 1497 1759 1228 1600 
Q 959 1441 959 1056 
Q 959 750 1161 570 
Q 1363 391 1709 391 
Q 2188 391 2477 730 
Q 2766 1069 2766 1631 
L 2766 1759 
L 2194 1759 
z
M 3341 1997 
L 3341 0 
L 2766 0 
L 2766 531 
Q 2569 213 2275 61 
Q 1981 -91 1556 -91 
Q 1019 -91 701 211 
Q 384 513 384 1019 
Q 384 1609 779 1909 
Q 1175 2209 1959 2209 
L 2766 2209 
L 2766 2266 
Q 2766 2663 2505 2880 
Q 2244 3097 1772 3097 
Q 1472 3097 1187 3025 
Q 903 2953 641 2809 
L 641 3341 
Q 956 3463 1253 3523 
Q 1550 3584 1831 3584 
Q 2591 3584 2966 3190 
Q 3341 2797 3341 1997 
z
" transform="scale(0.015625)"/>
       <path id="DejaVuSans-74" d="M 1172 4494 
L 1172 3500 
L 2356 3500 
L 2356 3053 
L 1172 3053 
L 1172 1153 
Q 1172 725 1289 603 
Q 1406 481 1766 481 
L 2356 481 
L 2356 0 
L 1766 0 
Q 1100 0 847 248 
Q 594 497 594 1153 
L 594 3053 
L 172 3053 
L 172 3500 
L 594 3500 
L 594 4494 
L 1172 4494 
z
" transform="scale(0.015625)"/>
       <path id="DejaVuSans-65" d="M 3597 1894 
L 3597 1613 
L 953 1613 
Q 991 1019 1311 708 
Q 1631 397 2203 397 
Q 2534 397 2845 478 
Q 3156 559 3463 722 
L 3463 178 
Q 3153 47 2828 -22 
Q 2503 -91 2169 -91 
Q 1331 -91 842 396 
Q 353 884 353 1716 
Q 353 2575 817 3079 
Q 1281 3584 2069 3584 
Q 2775 3584 3186 3129 
Q 3597 2675 3597 1894 
z
M 3022 2063 
Q 3016 2534 2758 2815 
Q 2500 3097 2075 3097 
Q 1594 3097 1305 2825 
Q 1016 2553 972 2059 
L 3022 2063 
z
" transform="scale(0.015625)"/>
       <path id="DejaVuSans-20" transform="scale(0.015625)"/>
       <path id="DejaVuSans-6f" d="M 1959 3097 
Q 1497 3097 1228 2736 
Q 959 2375 959 1747 
Q 959 1119 1226 758 
Q 1494 397 1959 397 
Q 2419 397 2687 759 
Q 2956 1122 2956 1747 
Q 2956 2369 2687 2733 
Q 2419 3097 1959 3097 
z
M 1959 3584 
Q 2709 3584 3137 3096 
Q 3566 2609 3566 1747 
Q 3566 888 3137 398 
Q 2709 -91 1959 -91 
Q 1206 -91 779 398 
Q 353 888 353 1747 
Q 353 2609 779 3096 
Q 1206 3584 1959 3584 
z
" transform="scale(0.015625)"/>
       <path id="DejaVuSans-66" d="M 2375 4863 
L 2375 4384 
L 1825 4384 
Q 1516 4384 1395 4259 
Q 1275 4134 1275 3809 
L 1275 3500 
L 2222 3500 
L 2222 3053 
L 1275 3053 
L 1275 0 
L 697 0 
L 697 3053 
L 147 3053 
L 147 3500 
L 697 3500 
L 697 3744 
Q 697 4328 969 4595 
Q 1241 4863 1831 4863 
L 2375 4863 
z
" transform="scale(0.015625)"/>
       <path id="DejaVuSans-57" d="M 213 4666 
L 850 4666 
L 1831 722 
L 2809 4666 
L 3519 4666 
L 4500 722 
L 5478 4666 
L 6119 4666 
L 4947 0 
L 4153 0 
L 3169 4050 
L 2175 0 
L 1381 0 
L 213 4666 
z
" transform="scale(0.015625)"/>
       <path id="DejaVuSans-72" d="M 2631 2963 
Q 2534 3019 2420 3045 
Q 2306 3072 2169 3072 
Q 1681 3072 1420 2755 
Q 1159 2438 1159 1844 
L 1159 0 
L 581 0 
L 581 3500 
L 1159 3500 
L 1159 2956 
Q 1341 3275 1631 3429 
Q 1922 3584 2338 3584 
Q 2397 3584 2469 3576 
Q 2541 3569 2628 3553 
L 2631 2963 
z
" transform="scale(0.015625)"/>
       <path id="DejaVuSans-69" d="M 603 3500 
L 1178 3500 
L 1178 0 
L 603 0 
L 603 3500 
z
M 603 4863 
L 1178 4863 
L 1178 4134 
L 603 4134 
L 603 4863 
z
" transform="scale(0.015625)"/>
       <path id="DejaVuSans-6e" d="M 3513 2113 
L 3513 0 
L 2938 0 
L 2938 2094 
Q 2938 2591 2744 2837 
Q 2550 3084 2163 3084 
Q 1697 3084 1428 2787 
Q 1159 2491 1159 1978 
L 1159 0 
L 581 0 
L 581 3500 
L 1159 3500 
L 1159 2956 
Q 1366 3272 1645 3428 
Q 1925 3584 2291 3584 
Q 2894 3584 3203 3211 
Q 3513 2838 3513 2113 
z
" transform="scale(0.015625)"/>
       <path id="DejaVuSans-67" d="M 2906 1791 
Q 2906 2416 2648 2759 
Q 2391 3103 1925 3103 
Q 1463 3103 1205 2759 
Q 947 2416 947 1791 
Q 947 1169 1205 825 
Q 1463 481 1925 481 
Q 2391 481 2648 825 
Q 2906 1169 2906 1791 
z
M 3481 434 
Q 3481 -459 3084 -895 
Q 2688 -1331 1869 -1331 
Q 1566 -1331 1297 -1286 
Q 1028 -1241 775 -1147 
L 775 -588 
Q 1028 -725 1275 -790 
Q 1522 -856 1778 -856 
Q 2344 -856 2625 -561 
Q 2906 -266 2906 331 
L 2906 616 
Q 2728 306 2450 153 
Q 2172 0 1784 0 
Q 1141 0 747 490 
Q 353 981 353 1791 
Q 353 2603 747 3093 
Q 1141 3584 1784 3584 
Q 2172 3584 2450 3431 
Q 2728 3278 2906 2969 
L 2906 3500 
L 3481 3500 
L 3481 434 
z
" transform="scale(0.015625)"/>
      </defs>
      <use xlink:href="#DejaVuSans-44"/>
      <use xlink:href="#DejaVuSans-61" x="77.001953"/>
      <use xlink:href="#DejaVuSans-74" x="138.28125"/>
      <use xlink:href="#DejaVuSans-65" x="177.490234"/>
      <use xlink:href="#DejaVuSans-20" x="239.013672"/>
      <use xlink:href="#DejaVuSans-6f" x="270.800781"/>
      <use xlink:href="#DejaVuSans-66" x="331.982422"/>
      <use xlink:href="#DejaVuSans-20" x="367.1875"/>
      <use xlink:href="#DejaVuSans-57" x="398.974609"/>
      <use xlink:href="#DejaVuSans-72" x="493.351562"/>
      <use xlink:href="#DejaVuSans-69" x="534.464844"/>
      <use xlink:href="#DejaVuSans-74" x="562.248047"/>
      <use xlink:href="#DejaVuSans-69" x="601.457031"/>
      <use xlink:href="#DejaVuSans-6e" x="629.240234"/>
      <use xlink:href="#DejaVuSans-67" x="692.619141"/>
     </g>
    </g>
   </g>
   <g id="matplotlib.axis_2">
    <g id="ytick_1">
     <g id="line2d_12">
      <defs>
       <path id="md3e9258ce1" d="M 0 0 
L -3.5 0 
" style="stroke: #000000; stroke-width: 0.8"/>
      </defs>
      <g>
       <use xlink:href="#md3e9258ce1" x="99" y="456.157836" style="stroke: #000000; stroke-width: 0.8"/>
      </g>
     </g>
     <g id="text_13">
      <!-- −0.04 -->
      <g transform="translate(61.354687 459.957055)scale(0.1 -0.1)">
       <defs>
        <path id="DejaVuSans-2212" d="M 678 2272 
L 4684 2272 
L 4684 1741 
L 678 1741 
L 678 2272 
z
" transform="scale(0.015625)"/>
        <path id="DejaVuSans-2e" d="M 684 794 
L 1344 794 
L 1344 0 
L 684 0 
L 684 794 
z
" transform="scale(0.015625)"/>
       </defs>
       <use xlink:href="#DejaVuSans-2212"/>
       <use xlink:href="#DejaVuSans-30" x="83.789062"/>
       <use xlink:href="#DejaVuSans-2e" x="147.412109"/>
       <use xlink:href="#DejaVuSans-30" x="179.199219"/>
       <use xlink:href="#DejaVuSans-34" x="242.822266"/>
      </g>
     </g>
    </g>
    <g id="ytick_2">
     <g id="line2d_13">
      <g>
       <use xlink:href="#md3e9258ce1" x="99" y="408.99812" style="stroke: #000000; stroke-width: 0.8"/>
      </g>
     </g>
     <g id="text_14">
      <!-- −0.02 -->
      <g transform="translate(61.354687 412.797338)scale(0.1 -0.1)">
       <use xlink:href="#DejaVuSans-2212"/>
       <use xlink:href="#DejaVuSans-30" x="83.789062"/>
       <use xlink:href="#DejaVuSans-2e" x="147.412109"/>
       <use xlink:href="#DejaVuSans-30" x="179.199219"/>
       <use xlink:href="#DejaVuSans-32" x="242.822266"/>
      </g>
     </g>
    </g>
    <g id="ytick_3">
     <g id="line2d_14">
      <g>
       <use xlink:href="#md3e9258ce1" x="99" y="361.838403" style="stroke: #000000; stroke-width: 0.8"/>
      </g>
     </g>
     <g id="text_15">
      <!-- 0.00 -->
      <g transform="translate(69.734375 365.637622)scale(0.1 -0.1)">
       <use xlink:href="#DejaVuSans-30"/>
       <use xlink:href="#DejaVuSans-2e" x="63.623047"/>
       <use xlink:href="#DejaVuSans-30" x="95.410156"/>
       <use xlink:href="#DejaVuSans-30" x="159.033203"/>
      </g>
     </g>
    </g>
    <g id="ytick_4">
     <g id="line2d_15">
      <g>
       <use xlink:href="#md3e9258ce1" x="99" y="314.678687" style="stroke: #000000; stroke-width: 0.8"/>
      </g>
     </g>
     <g id="text_16">
      <!-- 0.02 -->
      <g transform="translate(69.734375 318.477906)scale(0.1 -0.1)">
       <use xlink:href="#DejaVuSans-30"/>
       <use xlink:href="#DejaVuSans-2e" x="63.623047"/>
       <use xlink:href="#DejaVuSans-30" x="95.410156"/>
       <use xlink:href="#DejaVuSans-32" x="159.033203"/>
      </g>
     </g>
    </g>
    <g id="ytick_5">
     <g id="line2d_16">
      <g>
       <use xlink:href="#md3e9258ce1" x="99" y="267.518971" style="stroke: #000000; stroke-width: 0.8"/>
      </g>
     </g>
     <g id="text_17">
      <!-- 0.04 -->
      <g transform="translate(69.734375 271.31819)scale(0.1 -0.1)">
       <use xlink:href="#DejaVuSans-30"/>
       <use xlink:href="#DejaVuSans-2e" x="63.623047"/>
       <use xlink:href="#DejaVuSans-30" x="95.410156"/>
       <use xlink:href="#DejaVuSans-34" x="159.033203"/>
      </g>
     </g>
    </g>
    <g id="ytick_6">
     <g id="line2d_17">
      <g>
       <use xlink:href="#md3e9258ce1" x="99" y="220.359255" style="stroke: #000000; stroke-width: 0.8"/>
      </g>
     </g>
     <g id="text_18">
      <!-- 0.06 -->
      <g transform="translate(69.734375 224.158473)scale(0.1 -0.1)">
       <use xlink:href="#DejaVuSans-30"/>
       <use xlink:href="#DejaVuSans-2e" x="63.623047"/>
       <use xlink:href="#DejaVuSans-30" x="95.410156"/>
       <use xlink:href="#DejaVuSans-36" x="159.033203"/>
      </g>
     </g>
    </g>
    <g id="ytick_7">
     <g id="line2d_18">
      <g>
       <use xlink:href="#md3e9258ce1" x="99" y="173.199538" style="stroke: #000000; stroke-width: 0.8"/>
      </g>
     </g>
     <g id="text_19">
      <!-- 0.08 -->
      <g transform="translate(69.734375 176.998757)scale(0.1 -0.1)">
       <use xlink:href="#DejaVuSans-30"/>
       <use xlink:href="#DejaVuSans-2e" x="63.623047"/>
       <use xlink:href="#DejaVuSans-30" x="95.410156"/>
       <use xlink:href="#DejaVuSans-38" x="159.033203"/>
      </g>
     </g>
    </g>
    <g id="ytick_8">
     <g id="line2d_19">
      <g>
       <use xlink:href="#md3e9258ce1" x="99" y="126.039822" style="stroke: #000000; stroke-width: 0.8"/>
      </g>
     </g>
     <g id="text_20">
      <!-- 0.10 -->
      <g transform="translate(69.734375 129.839041)scale(0.1 -0.1)">
       <use xlink:href="#DejaVuSans-30"/>
       <use xlink:href="#DejaVuSans-2e" x="63.623047"/>
       <use xlink:href="#DejaVuSans-31" x="95.410156"/>
       <use xlink:href="#DejaVuSans-30" x="159.033203"/>
      </g>
     </g>
    </g>
    <g id="ytick_9">
     <g id="line2d_20">
      <g>
       <use xlink:href="#md3e9258ce1" x="99" y="78.880106" style="stroke: #000000; stroke-width: 0.8"/>
      </g>
     </g>
     <g id="text_21">
      <!-- 0.12 -->
      <g transform="translate(69.734375 82.679324)scale(0.1 -0.1)">
       <use xlink:href="#DejaVuSans-30"/>
       <use xlink:href="#DejaVuSans-2e" x="63.623047"/>
       <use xlink:href="#DejaVuSans-31" x="95.410156"/>
       <use xlink:href="#DejaVuSans-32" x="159.033203"/>
      </g>
     </g>
    </g>
    <g id="text_22">
     <!-- Political Economy Similarity Score -->
     <g transform="translate(55.275 366.177812)rotate(-90)scale(0.1 -0.1)">
      <defs>
       <path id="DejaVuSans-50" d="M 1259 4147 
L 1259 2394 
L 2053 2394 
Q 2494 2394 2734 2622 
Q 2975 2850 2975 3272 
Q 2975 3691 2734 3919 
Q 2494 4147 2053 4147 
L 1259 4147 
z
M 628 4666 
L 2053 4666 
Q 2838 4666 3239 4311 
Q 3641 3956 3641 3272 
Q 3641 2581 3239 2228 
Q 2838 1875 2053 1875 
L 1259 1875 
L 1259 0 
L 628 0 
L 628 4666 
z
" transform="scale(0.015625)"/>
       <path id="DejaVuSans-6c" d="M 603 4863 
L 1178 4863 
L 1178 0 
L 603 0 
L 603 4863 
z
" transform="scale(0.015625)"/>
       <path id="DejaVuSans-63" d="M 3122 3366 
L 3122 2828 
Q 2878 2963 2633 3030 
Q 2388 3097 2138 3097 
Q 1578 3097 1268 2742 
Q 959 2388 959 1747 
Q 959 1106 1268 751 
Q 1578 397 2138 397 
Q 2388 397 2633 464 
Q 2878 531 3122 666 
L 3122 134 
Q 2881 22 2623 -34 
Q 2366 -91 2075 -91 
Q 1284 -91 818 406 
Q 353 903 353 1747 
Q 353 2603 823 3093 
Q 1294 3584 2113 3584 
Q 2378 3584 2631 3529 
Q 2884 3475 3122 3366 
z
" transform="scale(0.015625)"/>
       <path id="DejaVuSans-45" d="M 628 4666 
L 3578 4666 
L 3578 4134 
L 1259 4134 
L 1259 2753 
L 3481 2753 
L 3481 2222 
L 1259 2222 
L 1259 531 
L 3634 531 
L 3634 0 
L 628 0 
L 628 4666 
z
" transform="scale(0.015625)"/>
       <path id="DejaVuSans-6d" d="M 3328 2828 
Q 3544 3216 3844 3400 
Q 4144 3584 4550 3584 
Q 5097 3584 5394 3201 
Q 5691 2819 5691 2113 
L 5691 0 
L 5113 0 
L 5113 2094 
Q 5113 2597 4934 2840 
Q 4756 3084 4391 3084 
Q 3944 3084 3684 2787 
Q 3425 2491 3425 1978 
L 3425 0 
L 2847 0 
L 2847 2094 
Q 2847 2600 2669 2842 
Q 2491 3084 2119 3084 
Q 1678 3084 1418 2786 
Q 1159 2488 1159 1978 
L 1159 0 
L 581 0 
L 581 3500 
L 1159 3500 
L 1159 2956 
Q 1356 3278 1631 3431 
Q 1906 3584 2284 3584 
Q 2666 3584 2933 3390 
Q 3200 3197 3328 2828 
z
" transform="scale(0.015625)"/>
       <path id="DejaVuSans-79" d="M 2059 -325 
Q 1816 -950 1584 -1140 
Q 1353 -1331 966 -1331 
L 506 -1331 
L 506 -850 
L 844 -850 
Q 1081 -850 1212 -737 
Q 1344 -625 1503 -206 
L 1606 56 
L 191 3500 
L 800 3500 
L 1894 763 
L 2988 3500 
L 3597 3500 
L 2059 -325 
z
" transform="scale(0.015625)"/>
       <path id="DejaVuSans-53" d="M 3425 4513 
L 3425 3897 
Q 3066 4069 2747 4153 
Q 2428 4238 2131 4238 
Q 1616 4238 1336 4038 
Q 1056 3838 1056 3469 
Q 1056 3159 1242 3001 
Q 1428 2844 1947 2747 
L 2328 2669 
Q 3034 2534 3370 2195 
Q 3706 1856 3706 1288 
Q 3706 609 3251 259 
Q 2797 -91 1919 -91 
Q 1588 -91 1214 -16 
Q 841 59 441 206 
L 441 856 
Q 825 641 1194 531 
Q 1563 422 1919 422 
Q 2459 422 2753 634 
Q 3047 847 3047 1241 
Q 3047 1584 2836 1778 
Q 2625 1972 2144 2069 
L 1759 2144 
Q 1053 2284 737 2584 
Q 422 2884 422 3419 
Q 422 4038 858 4394 
Q 1294 4750 2059 4750 
Q 2388 4750 2728 4690 
Q 3069 4631 3425 4513 
z
" transform="scale(0.015625)"/>
      </defs>
      <use xlink:href="#DejaVuSans-50"/>
      <use xlink:href="#DejaVuSans-6f" x="56.677734"/>
      <use xlink:href="#DejaVuSans-6c" x="117.859375"/>
      <use xlink:href="#DejaVuSans-69" x="145.642578"/>
      <use xlink:href="#DejaVuSans-74" x="173.425781"/>
      <use xlink:href="#DejaVuSans-69" x="212.634766"/>
      <use xlink:href="#DejaVuSans-63" x="240.417969"/>
      <use xlink:href="#DejaVuSans-61" x="295.398438"/>
      <use xlink:href="#DejaVuSans-6c" x="356.677734"/>
      <use xlink:href="#DejaVuSans-20" x="384.460938"/>
      <use xlink:href="#DejaVuSans-45" x="416.248047"/>
      <use xlink:href="#DejaVuSans-63" x="479.431641"/>
      <use xlink:href="#DejaVuSans-6f" x="534.412109"/>
      <use xlink:href="#DejaVuSans-6e" x="595.59375"/>
      <use xlink:href="#DejaVuSans-6f" x="658.972656"/>
      <use xlink:href="#DejaVuSans-6d" x="720.154297"/>
      <use xlink:href="#DejaVuSans-79" x="817.566406"/>
      <use xlink:href="#DejaVuSans-20" x="876.746094"/>
      <use xlink:href="#DejaVuSans-53" x="908.533203"/>
      <use xlink:href="#DejaVuSans-69" x="972.009766"/>
      <use xlink:href="#DejaVuSans-6d" x="999.792969"/>
      <use xlink:href="#DejaVuSans-69" x="1097.205078"/>
      <use xlink:href="#DejaVuSans-6c" x="1124.988281"/>
      <use xlink:href="#DejaVuSans-61" x="1152.771484"/>
      <use xlink:href="#DejaVuSans-72" x="1214.050781"/>
      <use xlink:href="#DejaVuSans-69" x="1255.164062"/>
      <use xlink:href="#DejaVuSans-74" x="1282.947266"/>
      <use xlink:href="#DejaVuSans-79" x="1322.15625"/>
      <use xlink:href="#DejaVuSans-20" x="1381.335938"/>
      <use xlink:href="#DejaVuSans-53" x="1413.123047"/>
      <use xlink:href="#DejaVuSans-63" x="1476.599609"/>
      <use xlink:href="#DejaVuSans-6f" x="1531.580078"/>
      <use xlink:href="#DejaVuSans-72" x="1592.761719"/>
      <use xlink:href="#DejaVuSans-65" x="1631.625"/>
     </g>
    </g>
   </g>
   <g id="line2d_21">
    <path d="M 169.937475 361.638296 
L 176.764353 368.140662 
L 191.535236 375.012632 
L 199.572334 382.173291 
L 203.047836 389.54172 
L 214.219092 397.037003 
L 214.65353 404.578222 
L 214.870749 404.753252 
L 215.615499 411.251323 
L 223.714659 419.505511 
L 224.95591 429.188134 
L 226.941911 437.896001 
L 227.934912 445.556279 
L 228.121099 452.618982 
L 230.448444 462.954943 
L 231.348351 465.660642 
L 232.620633 467.810998 
L 232.930946 470.646741 
L 233.334352 470.683636 
L 233.892915 462.491271 
L 234.01704 460.813712 
L 234.327353 459.980036 
L 234.854884 458.167015 
L 235.01004 457.963054 
L 235.103134 456.272573 
L 235.475509 448.604536 
L 236.096135 448.642314 
L 236.344385 448.362287 
L 236.592635 447.631566 
L 237.120167 446.536913 
L 237.368417 442.511174 
L 239.726793 441.734705 
L 243.016107 439.575011 
L 245.684796 438.978584 
L 246.367484 438.370943 
L 246.801922 437.520411 
L 248.22936 436.676545 
L 249.594736 435.260114 
L 250.122267 433.530687 
L 251.084236 431.659793 
L 252.946112 429.721412 
L 253.411581 427.758467 
L 256.266458 425.096507 
L 256.483677 422.341755 
L 258.873084 418.631703 
L 259.804022 414.533778 
L 260.952179 410.189934 
L 266.692963 406.460939 
L 267.158432 402.57625 
L 267.437714 398.285705 
L 269.578871 393.85695 
L 282.208597 389.568125 
L 283.232628 384.572719 
L 287.080505 379.121724 
L 288.042475 373.442412 
L 288.445881 367.680451 
L 288.6631 361.755798 
L 289.500944 355.603119 
L 290.680132 350.026419 
L 291.238695 344.869708 
L 291.455914 336.058134 
L 291.952414 332.493942 
L 292.169633 328.844137 
L 292.945415 325.429685 
L 293.038508 321.936438 
L 293.503977 315.903472 
L 293.845321 311.220875 
L 296.296791 309.417106 
L 296.451948 305.213505 
L 296.482979 304.299493 
L 297.165667 303.607948 
L 297.258761 301.313352 
L 297.507011 299.750969 
L 297.631136 296.442537 
L 298.22073 292.609091 
L 298.406918 288.40497 
L 298.46898 283.11014 
L 299.151668 280.430192 
L 299.368887 273.312098 
L 299.586106 270.51586 
L 300.517044 265.145761 
L 300.579106 260.296211 
L 300.796325 256.475735 
L 300.827356 254.535769 
L 301.199732 251.437963 
L 301.385919 245.854143 
L 302.037576 238.900274 
L 302.254795 238.15482 
L 302.347888 236.379296 
L 302.596139 234.946843 
L 302.782326 234.475988 
L 303.030576 235.409586 
L 303.496045 237.07059 
L 303.806358 238.014438 
L 303.961514 238.580064 
L 304.240796 241.382191 
L 304.302858 241.731259 
L 304.954515 242.178366 
L 305.171734 241.8877 
L 305.32689 240.538836 
L 305.513078 238.428839 
L 306.226797 235.785681 
L 306.257828 234.576147 
L 307.03361 233.757136 
L 307.312891 231.707768 
L 307.716297 230.319252 
L 308.367954 228.733625 
L 309.48508 226.794546 
L 313.488113 224.786355 
L 317.615271 222.894855 
L 319.508179 220.993822 
L 319.973648 219.366971 
L 322.363055 217.465003 
L 322.859555 214.748583 
L 323.821525 211.907032 
L 325.1869 209.011141 
L 327.979714 206.436321 
L 328.60034 203.726304 
L 328.941684 201.228044 
L 330.617372 198.837663 
L 334.279061 196.889404 
L 338.964783 195.113949 
L 339.337158 193.562912 
L 343.650504 192.121406 
L 343.681535 190.594705 
L 345.450317 188.736239 
L 345.884755 187.261713 
L 346.00888 185.845219 
L 347.46735 181.989629 
L 347.7156 180.564037 
L 347.932819 176.922116 
L 348.7086 174.859168 
L 348.801694 173.106725 
L 349.236132 169.837608 
L 349.577476 168.167427 
L 349.67057 166.301984 
L 350.011914 164.40361 
L 350.322226 159.491073 
L 350.756664 156.88943 
L 351.780696 144.276347 
L 351.935852 141.393142 
L 352.308227 138.874026 
L 352.928853 136.623433 
L 353.052978 135.471442 
L 353.580509 132.911583 
L 353.704634 131.974969 
L 354.014947 130.825186 
L 354.883822 133.268468 
L 355.007947 133.451311 
L 355.876823 131.949456 
L 356.125073 131.264723 
L 356.311261 128.813114 
L 356.528479 127.458504 
L 356.807761 124.079033 
L 357.490449 116.065162 
L 357.831793 114.258368 
L 357.924886 112.221789 
L 358.26623 109.011744 
L 358.669637 107.698215 
L 358.700668 106.653211 
L 358.793762 106.673136 
L 359.135106 107.80629 
L 359.2282 108.652713 
L 360.003981 109.448395 
L 360.438419 111.188927 
L 360.748732 112.130306 
L 361.803795 123.618399 
L 361.958951 126.018226 
L 362.269264 128.139424 
L 362.703701 131.476565 
L 363.045045 132.261251 
L 363.138139 133.165918 
L 363.355358 134.047288 
L 363.696702 136.76139 
L 364.441452 139.300385 
L 365.217234 139.836274 
L 365.434453 140.355175 
L 365.744766 141.917122 
L 365.961984 143.124696 
L 366.737766 149.809449 
L 366.923954 150.046994 
L 367.265298 149.889126 
L 367.513548 149.384137 
L 367.699735 147.761358 
L 369.77883 146.700789 
L 370.958018 145.549896 
L 371.299362 142.678846 
L 371.516581 139.473038 
L 371.7338 134.781515 
L 371.857925 129.884293 
L 372.044113 128.50683 
L 372.168238 124.753863 
L 372.571644 121.884424 
L 373.44052 120.317266 
L 373.719801 116.816764 
L 374.123207 115.66605 
L 374.961052 115.526325 
L 375.023114 115.70544 
L 375.209302 115.637902 
L 375.550646 118.763039 
L 376.481584 126.724428 
L 376.512615 126.450343 
L 376.63674 126.029171 
L 376.698803 125.369234 
L 377.164272 124.234098 
L 377.195303 124.292859 
L 377.412522 124.110207 
L 377.691803 123.570408 
L 377.846959 123.183187 
L 378.002116 123.472884 
L 378.064178 123.349611 
L 378.281397 123.351149 
L 378.34346 123.185272 
L 378.902022 122.558008 
L 379.553679 122.462652 
L 379.615742 122.595203 
L 379.677804 122.477231 
L 382.253399 122.189249 
L 384.891057 121.498951 
L 385.635807 120.230652 
L 385.853026 118.863026 
L 386.566745 117.061354 
L 387.714902 115.489233 
L 388.769965 113.659494 
L 389.080278 111.565053 
L 390.724935 109.863663 
L 391.283498 106.768136 
L 391.376592 104.917933 
L 391.779998 102.693393 
L 392.028248 100.580985 
L 392.462686 98.757461 
L 392.524748 96.440429 
L 392.80403 95.669766 
L 393.921155 94.89436 
L 394.541781 93.889003 
L 395.286531 93.377692 
L 395.50375 92.64935 
L 395.720969 92.356364 
L 396.093344 93.037813 
L 396.310563 93.992022 
L 396.807063 95.062587 
L 397.893157 95.095139 
L 398.234501 95.529933 
L 398.762033 97.670436 
L 399.320596 98.853252 
L 399.630908 100.371348 
L 400.623909 109.652972 
L 400.717003 111.464668 
L 401.275566 116.530169 
L 401.710003 121.867605 
L 401.803097 121.809685 
L 402.051347 120.425959 
L 402.36166 117.868307 
L 402.640941 115.971894 
L 403.10641 114.048449 
L 403.540848 110.712673 
L 403.975286 109.143535 
L 404.192505 107.794734 
L 404.626942 106.84058 
L 404.844161 105.520416 
L 405.247568 104.275063 
L 405.278599 103.092264 
L 405.713037 101.885688 
L 406.799131 100.045176 
L 407.202537 100.289766 
L 407.419756 100.858329 
L 407.699038 102.052498 
L 407.947288 104.427207 
L 408.754101 107.301352 
L 409.188538 107.817159 
L 409.312664 108.644959 
L 409.529882 108.936667 
L 409.591945 109.501432 
L 409.747101 109.647604 
L 409.96432 109.504196 
L 410.057414 108.886623 
L 410.274633 108.602076 
L 410.615977 108.440083 
L 410.926289 107.95381 
L 411.019383 107.216085 
L 411.360727 106.644066 
L 411.795165 105.218439 
L 411.91929 104.692298 
L 412.66404 104.228955 
L 413.191572 106.489201 
L 413.222603 107.487132 
L 413.439822 108.799616 
L 413.563947 111.523744 
L 413.87426 112.964961 
L 413.998385 115.842156 
L 414.091479 117.637985 
L 414.650041 119.499123 
L 414.743135 121.594623 
L 415.177573 125.570788 
L 415.922323 127.130585 
L 416.139542 127.445835 
L 416.294698 127.966713 
L 416.511917 127.749428 
L 416.82223 126.606736 
L 417.784199 125.621653 
L 418.435856 124.596248 
L 418.653075 125.00517 
L 418.746168 125.520242 
L 419.397825 126.346985 
L 419.584013 127.462358 
L 420.049482 129.060773 
L 420.266701 130.677949 
L 420.514951 134.930808 
L 420.825263 137.006563 
L 420.856295 139.056421 
L 421.073513 141.285367 
L 421.166607 143.476313 
L 422.190639 147.602457 
L 423.400858 160.047634 
L 423.649109 161.475984 
L 424.517984 163.743364 
L 424.828297 163.771424 
L 425.386859 163.572316 
L 425.448922 163.147514 
L 425.821297 162.987513 
L 426.286766 163.289226 
L 426.566048 163.779121 
L 428.210705 164.49362 
L 428.521017 164.809317 
L 428.552049 165.167159 
L 428.769268 165.026846 
L 428.986486 164.228093 
L 429.296799 164.094305 
L 429.638143 163.183347 
L 430.817331 162.082385 
L 431.468988 160.841963 
L 432.306832 159.686238 
L 432.710238 158.661154 
L 432.803332 158.113944 
L 433.548083 157.023083 
L 434.044583 154.454509 
L 434.727271 147.714797 
L 435.068615 144.681412 
L 436.092646 142.370018 
L 436.899459 142.384495 
L 437.39596 143.11938 
L 437.458022 143.853009 
L 437.89246 144.690255 
L 441.461055 145.145137 
L 442.143743 146.14113 
L 442.174775 146.39212 
L 444.688307 146.605908 
L 447.139777 146.601427 
L 447.232871 146.165149 
L 447.667309 145.777662 
L 447.884528 145.06013 
L 448.536184 144.449693 
L 448.722372 145.149527 
L 448.970622 145.343694 
L 449.063716 147.047742 
L 449.342997 147.949101 
L 449.529185 152.117177 
L 450.39806 163.759701 
L 450.708373 164.817343 
L 450.89456 166.249872 
L 451.235904 166.491466 
L 451.328998 166.757053 
L 451.453123 166.501526 
L 451.794467 167.044646 
L 452.135811 167.025966 
L 452.446124 167.301702 
L 454.028718 167.26362 
L 454.587281 167.08015 
L 454.649344 166.656167 
L 456.169876 165.101368 
L 456.200907 164.549991 
L 456.480188 163.738311 
L 457.566283 162.157978 
L 457.628345 161.724758 
L 458.248971 161.160645 
L 459.055783 159.388029 
L 459.924659 159.333267 
L 460.017753 159.018911 
L 460.359097 158.832498 
L 460.545284 158.918672 
L 460.700441 159.399467 
L 463.555317 159.981315 
L 464.889662 160.958534 
L 470.847665 162.408696 
L 482.174077 164.364554 
L 482.360265 166.169519 
L 483.353265 168.06949 
L 483.384296 170.233091 
L 485.370297 171.954064 
L 486.332267 173.277049 
L 486.611548 174.828706 
L 486.673611 175.942252 
L 487.573517 178.228265 
L 488.38033 178.771271 
L 489.683643 178.78611 
L 495.424428 178.162261 
L 499.551586 177.278034 
L 503.368432 176.081873 
L 505.819902 174.1325 
L 506.533621 171.834702 
L 507.712809 169.13844 
L 508.550653 166.517486 
L 508.860966 163.390698 
L 514.10525 159.771274 
L 516.494657 155.947188 
L 517.580752 149.964534 
L 517.860033 147.619108 
L 517.891064 145.476092 
L 519.287471 144.008766 
L 524.345568 142.862764 
L 525.307537 140.750482 
L 525.524756 139.880595 
L 525.959194 139.568906 
L 526.983226 139.426298 
L 528.100351 139.723277 
L 528.534789 140.289741 
L 529.434696 141.011726 
L 533.127416 142.09051 
L 533.561854 143.042577 
L 533.779073 144.219506 
L 535.516824 145.763626 
L 536.354668 146.025375 
L 536.602918 146.310495 
L 539.643982 146.177381 
L 539.861201 145.963462 
L 541.288639 145.76874 
L 543.615984 145.097976 
L 543.740109 145.294985 
L 544.857235 145.911523 
L 545.074454 146.712576 
L 546.594986 147.649128 
L 547.68108 152.353866 
L 548.829237 153.863536 
L 549.046456 155.410228 
L 552.863302 157.206288 
L 554.880334 159.076579 
L 554.911365 161.225483 
L 555.159615 163.382512 
L 555.252709 165.445888 
L 556.121585 167.54649 
L 556.400866 169.472939 
L 556.804272 171.214929 
L 557.859336 174.260395 
L 558.386867 177.879874 
L 559.162649 178.423988 
L 559.472961 179.024914 
L 559.721212 180.63762 
L 560.465962 182.906195 
L 560.590087 184.822181 
L 560.683181 187.711124 
L 561.272775 189.585769 
L 561.303806 191.283542 
L 561.831338 192.750466 
L 563.35187 195.463175 
L 564.531058 197.058638 
L 565.927465 197.739456 
L 566.54809 198.370505 
L 567.013559 198.812302 
L 568.068622 199.329778 
L 568.161716 199.968022 
L 569.992561 200.487626 
L 570.20978 200.972033 
L 570.768342 201.374354 
L 571.233811 202.021229 
L 571.295874 202.727509 
L 571.637218 203.443818 
L 571.792374 204.075481 
L 572.816406 204.710175 
L 574.802407 205.469049 
L 575.11272 206.330684 
L 575.174782 207.479712 
L 575.795407 209.591096 
L 592.02476 210.624949 
L 592.986729 211.615955 
L 600.961765 213.416362 
L 601.365171 213.556524 
L 630.286311 213.6436 
L 636.771846 213.479972 
L 637.237315 212.877142 
L 637.454534 212.374567 
L 643.195318 211.21426 
L 652.504698 210.399514 
L 656.911138 209.418609 
L 658.152388 206.929028 
L 658.245482 205.405704 
L 666.717018 203.686928 
L 667.803112 201.765375 
L 668.547863 199.633723 
L 670.44077 197.284647 
L 680.805213 194.710825 
L 681.767182 191.904932 
L 686.514966 188.859646 
L 686.949404 185.567643 
L 686.949404 185.567643 
" clip-path="url(#p7764bcd450)" style="fill: none; stroke: #1f77b4; stroke-width: 1.5; stroke-linecap: square"/>
   </g>
   <g id="line2d_22">
    <path d="M 515.098251 489.6 
L 515.098251 73.44 
" clip-path="url(#p7764bcd450)" style="fill: none; stroke: #ff0000; stroke-linecap: square"/>
   </g>
   <g id="line2d_23">
    <path d="M 293.938415 489.6 
L 293.938415 73.44 
" clip-path="url(#p7764bcd450)" style="fill: none; stroke: #ff0000; stroke-linecap: square"/>
   </g>
   <g id="line2d_24">
    <path d="M 239.726793 489.6 
L 239.726793 73.44 
" clip-path="url(#p7764bcd450)" style="fill: none; stroke: #ff0000; stroke-linecap: square"/>
   </g>
   <g id="line2d_25">
    <path d="M 554.756209 489.6 
L 554.756209 73.44 
" clip-path="url(#p7764bcd450)" style="fill: none; stroke: #ff0000; stroke-linecap: square"/>
   </g>
   <g id="line2d_26">
    <path d="M 99 361.838403 
L 712.8 361.838403 
" clip-path="url(#p7764bcd450)" style="fill: none; stroke: #000000; stroke-linecap: square"/>
   </g>
   <g id="line2d_27">
    <path d="M 220.5324 470.683029 
L 232.1946 470.683029 
" clip-path="url(#p7764bcd450)" style="fill: none; stroke: #ff0000; stroke-opacity: 0.5; stroke-linecap: square"/>
   </g>
   <g id="line2d_28">
    <path d="M 393.624 92.355995 
L 413.2656 92.355995 
" clip-path="url(#p7764bcd450)" style="fill: none; stroke: #ff0000; stroke-opacity: 0.5; stroke-linecap: square"/>
   </g>
   <g id="patch_3">
    <path d="M 99 489.6 
L 99 73.44 
" style="fill: none; stroke: #000000; stroke-width: 0.8; stroke-linejoin: miter; stroke-linecap: square"/>
   </g>
   <g id="patch_4">
    <path d="M 712.8 489.6 
L 712.8 73.44 
" style="fill: none; stroke: #000000; stroke-width: 0.8; stroke-linejoin: miter; stroke-linecap: square"/>
   </g>
   <g id="patch_5">
    <path d="M 99 489.6 
L 712.8 489.6 
" style="fill: none; stroke: #000000; stroke-width: 0.8; stroke-linejoin: miter; stroke-linecap: square"/>
   </g>
   <g id="patch_6">
    <path d="M 99 73.44 
L 712.8 73.44 
" style="fill: none; stroke: #000000; stroke-width: 0.8; stroke-linejoin: miter; stroke-linecap: square"/>
   </g>
   <g id="text_23">
    <g id="patch_7">
     <path d="M 452.138844 134.061558 
L 514.295094 134.061558 
L 514.295094 109.360808 
L 452.138844 109.360808 
z
" style="fill: #ff0000; opacity: 0.2; stroke: #000000; stroke-linejoin: miter"/>
    </g>
    <!-- Publication of -->
    <g transform="translate(456.138844 119.439558)scale(0.08 -0.08)">
     <defs>
      <path id="DejaVuSans-75" d="M 544 1381 
L 544 3500 
L 1119 3500 
L 1119 1403 
Q 1119 906 1312 657 
Q 1506 409 1894 409 
Q 2359 409 2629 706 
Q 2900 1003 2900 1516 
L 2900 3500 
L 3475 3500 
L 3475 0 
L 2900 0 
L 2900 538 
Q 2691 219 2414 64 
Q 2138 -91 1772 -91 
Q 1169 -91 856 284 
Q 544 659 544 1381 
z
M 1991 3584 
L 1991 3584 
z
" transform="scale(0.015625)"/>
      <path id="DejaVuSans-62" d="M 3116 1747 
Q 3116 2381 2855 2742 
Q 2594 3103 2138 3103 
Q 1681 3103 1420 2742 
Q 1159 2381 1159 1747 
Q 1159 1113 1420 752 
Q 1681 391 2138 391 
Q 2594 391 2855 752 
Q 3116 1113 3116 1747 
z
M 1159 2969 
Q 1341 3281 1617 3432 
Q 1894 3584 2278 3584 
Q 2916 3584 3314 3078 
Q 3713 2572 3713 1747 
Q 3713 922 3314 415 
Q 2916 -91 2278 -91 
Q 1894 -91 1617 61 
Q 1341 213 1159 525 
L 1159 0 
L 581 0 
L 581 4863 
L 1159 4863 
L 1159 2969 
z
" transform="scale(0.015625)"/>
     </defs>
     <use xlink:href="#DejaVuSans-50"/>
     <use xlink:href="#DejaVuSans-75" x="58.552734"/>
     <use xlink:href="#DejaVuSans-62" x="121.931641"/>
     <use xlink:href="#DejaVuSans-6c" x="185.408203"/>
     <use xlink:href="#DejaVuSans-69" x="213.191406"/>
     <use xlink:href="#DejaVuSans-63" x="240.974609"/>
     <use xlink:href="#DejaVuSans-61" x="295.955078"/>
     <use xlink:href="#DejaVuSans-74" x="357.234375"/>
     <use xlink:href="#DejaVuSans-69" x="396.443359"/>
     <use xlink:href="#DejaVuSans-6f" x="424.226562"/>
     <use xlink:href="#DejaVuSans-6e" x="485.408203"/>
     <use xlink:href="#DejaVuSans-20" x="548.787109"/>
     <use xlink:href="#DejaVuSans-6f" x="580.574219"/>
     <use xlink:href="#DejaVuSans-66" x="641.755859"/>
    </g>
    <!-- Capital V1 -->
    <g transform="translate(456.138844 128.397808)scale(0.08 -0.08)">
     <defs>
      <path id="DejaVuSans-43" d="M 4122 4306 
L 4122 3641 
Q 3803 3938 3442 4084 
Q 3081 4231 2675 4231 
Q 1875 4231 1450 3742 
Q 1025 3253 1025 2328 
Q 1025 1406 1450 917 
Q 1875 428 2675 428 
Q 3081 428 3442 575 
Q 3803 722 4122 1019 
L 4122 359 
Q 3791 134 3420 21 
Q 3050 -91 2638 -91 
Q 1578 -91 968 557 
Q 359 1206 359 2328 
Q 359 3453 968 4101 
Q 1578 4750 2638 4750 
Q 3056 4750 3426 4639 
Q 3797 4528 4122 4306 
z
" transform="scale(0.015625)"/>
      <path id="DejaVuSans-70" d="M 1159 525 
L 1159 -1331 
L 581 -1331 
L 581 3500 
L 1159 3500 
L 1159 2969 
Q 1341 3281 1617 3432 
Q 1894 3584 2278 3584 
Q 2916 3584 3314 3078 
Q 3713 2572 3713 1747 
Q 3713 922 3314 415 
Q 2916 -91 2278 -91 
Q 1894 -91 1617 61 
Q 1341 213 1159 525 
z
M 3116 1747 
Q 3116 2381 2855 2742 
Q 2594 3103 2138 3103 
Q 1681 3103 1420 2742 
Q 1159 2381 1159 1747 
Q 1159 1113 1420 752 
Q 1681 391 2138 391 
Q 2594 391 2855 752 
Q 3116 1113 3116 1747 
z
" transform="scale(0.015625)"/>
      <path id="DejaVuSans-56" d="M 1831 0 
L 50 4666 
L 709 4666 
L 2188 738 
L 3669 4666 
L 4325 4666 
L 2547 0 
L 1831 0 
z
" transform="scale(0.015625)"/>
     </defs>
     <use xlink:href="#DejaVuSans-43"/>
     <use xlink:href="#DejaVuSans-61" x="69.824219"/>
     <use xlink:href="#DejaVuSans-70" x="131.103516"/>
     <use xlink:href="#DejaVuSans-69" x="194.580078"/>
     <use xlink:href="#DejaVuSans-74" x="222.363281"/>
     <use xlink:href="#DejaVuSans-61" x="261.572266"/>
     <use xlink:href="#DejaVuSans-6c" x="322.851562"/>
     <use xlink:href="#DejaVuSans-20" x="350.634766"/>
     <use xlink:href="#DejaVuSans-56" x="382.421875"/>
     <use xlink:href="#DejaVuSans-31" x="450.830078"/>
    </g>
   </g>
   <g id="text_24">
    <g id="patch_8">
     <path d="M 293.817324 102.228749 
L 387.464824 102.228749 
L 387.464824 77.527999 
L 293.817324 77.527999 
z
" style="fill: #ff0000; opacity: 0.2; stroke: #000000; stroke-linejoin: miter"/>
    </g>
    <!-- 1848 demonstrations -->
    <g transform="translate(297.817324 87.606749)scale(0.08 -0.08)">
     <defs>
      <path id="DejaVuSans-64" d="M 2906 2969 
L 2906 4863 
L 3481 4863 
L 3481 0 
L 2906 0 
L 2906 525 
Q 2725 213 2448 61 
Q 2172 -91 1784 -91 
Q 1150 -91 751 415 
Q 353 922 353 1747 
Q 353 2572 751 3078 
Q 1150 3584 1784 3584 
Q 2172 3584 2448 3432 
Q 2725 3281 2906 2969 
z
M 947 1747 
Q 947 1113 1208 752 
Q 1469 391 1925 391 
Q 2381 391 2643 752 
Q 2906 1113 2906 1747 
Q 2906 2381 2643 2742 
Q 2381 3103 1925 3103 
Q 1469 3103 1208 2742 
Q 947 2381 947 1747 
z
" transform="scale(0.015625)"/>
      <path id="DejaVuSans-73" d="M 2834 3397 
L 2834 2853 
Q 2591 2978 2328 3040 
Q 2066 3103 1784 3103 
Q 1356 3103 1142 2972 
Q 928 2841 928 2578 
Q 928 2378 1081 2264 
Q 1234 2150 1697 2047 
L 1894 2003 
Q 2506 1872 2764 1633 
Q 3022 1394 3022 966 
Q 3022 478 2636 193 
Q 2250 -91 1575 -91 
Q 1294 -91 989 -36 
Q 684 19 347 128 
L 347 722 
Q 666 556 975 473 
Q 1284 391 1588 391 
Q 1994 391 2212 530 
Q 2431 669 2431 922 
Q 2431 1156 2273 1281 
Q 2116 1406 1581 1522 
L 1381 1569 
Q 847 1681 609 1914 
Q 372 2147 372 2553 
Q 372 3047 722 3315 
Q 1072 3584 1716 3584 
Q 2034 3584 2315 3537 
Q 2597 3491 2834 3397 
z
" transform="scale(0.015625)"/>
     </defs>
     <use xlink:href="#DejaVuSans-31"/>
     <use xlink:href="#DejaVuSans-38" x="63.623047"/>
     <use xlink:href="#DejaVuSans-34" x="127.246094"/>
     <use xlink:href="#DejaVuSans-38" x="190.869141"/>
     <use xlink:href="#DejaVuSans-20" x="254.492188"/>
     <use xlink:href="#DejaVuSans-64" x="286.279297"/>
     <use xlink:href="#DejaVuSans-65" x="349.755859"/>
     <use xlink:href="#DejaVuSans-6d" x="411.279297"/>
     <use xlink:href="#DejaVuSans-6f" x="508.691406"/>
     <use xlink:href="#DejaVuSans-6e" x="569.873047"/>
     <use xlink:href="#DejaVuSans-73" x="633.251953"/>
     <use xlink:href="#DejaVuSans-74" x="685.351562"/>
     <use xlink:href="#DejaVuSans-72" x="724.560547"/>
     <use xlink:href="#DejaVuSans-61" x="765.673828"/>
     <use xlink:href="#DejaVuSans-74" x="826.953125"/>
     <use xlink:href="#DejaVuSans-69" x="866.162109"/>
     <use xlink:href="#DejaVuSans-6f" x="893.945312"/>
     <use xlink:href="#DejaVuSans-6e" x="955.126953"/>
     <use xlink:href="#DejaVuSans-73" x="1018.505859"/>
    </g>
    <!-- in Vienna -->
    <g transform="translate(297.817324 96.564999)scale(0.08 -0.08)">
     <use xlink:href="#DejaVuSans-69"/>
     <use xlink:href="#DejaVuSans-6e" x="27.783203"/>
     <use xlink:href="#DejaVuSans-20" x="91.162109"/>
     <use xlink:href="#DejaVuSans-56" x="122.949219"/>
     <use xlink:href="#DejaVuSans-69" x="189.107422"/>
     <use xlink:href="#DejaVuSans-65" x="216.890625"/>
     <use xlink:href="#DejaVuSans-6e" x="278.414062"/>
     <use xlink:href="#DejaVuSans-6e" x="341.792969"/>
     <use xlink:href="#DejaVuSans-61" x="405.171875"/>
    </g>
   </g>
   <g id="text_25">
    <g id="patch_9">
     <path d="M 153.80425 112.839685 
L 239.4655 112.839685 
L 239.4655 79.180685 
L 153.80425 79.180685 
z
" style="fill: #ff0000; opacity: 0.2; stroke: #000000; stroke-linejoin: miter"/>
    </g>
    <!-- Marx's critique of -->
    <g transform="translate(157.80425 89.259435)scale(0.08 -0.08)">
     <defs>
      <path id="DejaVuSans-4d" d="M 628 4666 
L 1569 4666 
L 2759 1491 
L 3956 4666 
L 4897 4666 
L 4897 0 
L 4281 0 
L 4281 4097 
L 3078 897 
L 2444 897 
L 1241 4097 
L 1241 0 
L 628 0 
L 628 4666 
z
" transform="scale(0.015625)"/>
      <path id="DejaVuSans-78" d="M 3513 3500 
L 2247 1797 
L 3578 0 
L 2900 0 
L 1881 1375 
L 863 0 
L 184 0 
L 1544 1831 
L 300 3500 
L 978 3500 
L 1906 2253 
L 2834 3500 
L 3513 3500 
z
" transform="scale(0.015625)"/>
      <path id="DejaVuSans-27" d="M 1147 4666 
L 1147 2931 
L 616 2931 
L 616 4666 
L 1147 4666 
z
" transform="scale(0.015625)"/>
      <path id="DejaVuSans-71" d="M 947 1747 
Q 947 1113 1208 752 
Q 1469 391 1925 391 
Q 2381 391 2643 752 
Q 2906 1113 2906 1747 
Q 2906 2381 2643 2742 
Q 2381 3103 1925 3103 
Q 1469 3103 1208 2742 
Q 947 2381 947 1747 
z
M 2906 525 
Q 2725 213 2448 61 
Q 2172 -91 1784 -91 
Q 1150 -91 751 415 
Q 353 922 353 1747 
Q 353 2572 751 3078 
Q 1150 3584 1784 3584 
Q 2172 3584 2448 3432 
Q 2725 3281 2906 2969 
L 2906 3500 
L 3481 3500 
L 3481 -1331 
L 2906 -1331 
L 2906 525 
z
" transform="scale(0.015625)"/>
     </defs>
     <use xlink:href="#DejaVuSans-4d"/>
     <use xlink:href="#DejaVuSans-61" x="86.279297"/>
     <use xlink:href="#DejaVuSans-72" x="147.558594"/>
     <use xlink:href="#DejaVuSans-78" x="186.046875"/>
     <use xlink:href="#DejaVuSans-27" x="245.226562"/>
     <use xlink:href="#DejaVuSans-73" x="272.716797"/>
     <use xlink:href="#DejaVuSans-20" x="324.816406"/>
     <use xlink:href="#DejaVuSans-63" x="356.603516"/>
     <use xlink:href="#DejaVuSans-72" x="411.583984"/>
     <use xlink:href="#DejaVuSans-69" x="452.697266"/>
     <use xlink:href="#DejaVuSans-74" x="480.480469"/>
     <use xlink:href="#DejaVuSans-69" x="519.689453"/>
     <use xlink:href="#DejaVuSans-71" x="547.472656"/>
     <use xlink:href="#DejaVuSans-75" x="610.949219"/>
     <use xlink:href="#DejaVuSans-65" x="674.328125"/>
     <use xlink:href="#DejaVuSans-20" x="735.851562"/>
     <use xlink:href="#DejaVuSans-6f" x="767.638672"/>
     <use xlink:href="#DejaVuSans-66" x="828.820312"/>
    </g>
    <!-- Hegel's Philosophie -->
    <g transform="translate(157.80425 98.217685)scale(0.08 -0.08)">
     <defs>
      <path id="DejaVuSans-48" d="M 628 4666 
L 1259 4666 
L 1259 2753 
L 3553 2753 
L 3553 4666 
L 4184 4666 
L 4184 0 
L 3553 0 
L 3553 2222 
L 1259 2222 
L 1259 0 
L 628 0 
L 628 4666 
z
" transform="scale(0.015625)"/>
      <path id="DejaVuSans-68" d="M 3513 2113 
L 3513 0 
L 2938 0 
L 2938 2094 
Q 2938 2591 2744 2837 
Q 2550 3084 2163 3084 
Q 1697 3084 1428 2787 
Q 1159 2491 1159 1978 
L 1159 0 
L 581 0 
L 581 4863 
L 1159 4863 
L 1159 2956 
Q 1366 3272 1645 3428 
Q 1925 3584 2291 3584 
Q 2894 3584 3203 3211 
Q 3513 2838 3513 2113 
z
" transform="scale(0.015625)"/>
     </defs>
     <use xlink:href="#DejaVuSans-48"/>
     <use xlink:href="#DejaVuSans-65" x="75.195312"/>
     <use xlink:href="#DejaVuSans-67" x="136.71875"/>
     <use xlink:href="#DejaVuSans-65" x="200.195312"/>
     <use xlink:href="#DejaVuSans-6c" x="261.71875"/>
     <use xlink:href="#DejaVuSans-27" x="289.501953"/>
     <use xlink:href="#DejaVuSans-73" x="316.992188"/>
     <use xlink:href="#DejaVuSans-20" x="369.091797"/>
     <use xlink:href="#DejaVuSans-50" x="400.878906"/>
     <use xlink:href="#DejaVuSans-68" x="461.181641"/>
     <use xlink:href="#DejaVuSans-69" x="524.560547"/>
     <use xlink:href="#DejaVuSans-6c" x="552.34375"/>
     <use xlink:href="#DejaVuSans-6f" x="580.126953"/>
     <use xlink:href="#DejaVuSans-73" x="641.308594"/>
     <use xlink:href="#DejaVuSans-6f" x="693.408203"/>
     <use xlink:href="#DejaVuSans-70" x="754.589844"/>
     <use xlink:href="#DejaVuSans-68" x="818.066406"/>
     <use xlink:href="#DejaVuSans-69" x="881.445312"/>
     <use xlink:href="#DejaVuSans-65" x="909.228516"/>
    </g>
    <!-- des Rechts -->
    <g transform="translate(157.80425 107.175935)scale(0.08 -0.08)">
     <defs>
      <path id="DejaVuSans-52" d="M 2841 2188 
Q 3044 2119 3236 1894 
Q 3428 1669 3622 1275 
L 4263 0 
L 3584 0 
L 2988 1197 
Q 2756 1666 2539 1819 
Q 2322 1972 1947 1972 
L 1259 1972 
L 1259 0 
L 628 0 
L 628 4666 
L 2053 4666 
Q 2853 4666 3247 4331 
Q 3641 3997 3641 3322 
Q 3641 2881 3436 2590 
Q 3231 2300 2841 2188 
z
M 1259 4147 
L 1259 2491 
L 2053 2491 
Q 2509 2491 2742 2702 
Q 2975 2913 2975 3322 
Q 2975 3731 2742 3939 
Q 2509 4147 2053 4147 
L 1259 4147 
z
" transform="scale(0.015625)"/>
     </defs>
     <use xlink:href="#DejaVuSans-64"/>
     <use xlink:href="#DejaVuSans-65" x="63.476562"/>
     <use xlink:href="#DejaVuSans-73" x="125"/>
     <use xlink:href="#DejaVuSans-20" x="177.099609"/>
     <use xlink:href="#DejaVuSans-52" x="208.886719"/>
     <use xlink:href="#DejaVuSans-65" x="273.869141"/>
     <use xlink:href="#DejaVuSans-63" x="335.392578"/>
     <use xlink:href="#DejaVuSans-68" x="390.373047"/>
     <use xlink:href="#DejaVuSans-74" x="453.751953"/>
     <use xlink:href="#DejaVuSans-73" x="492.960938"/>
    </g>
   </g>
   <g id="text_26">
    <g id="patch_10">
     <path d="M 108.312413 487.75943 
L 219.196163 487.75943 
L 219.196163 463.05868 
L 108.312413 463.05868 
z
" style="fill: #ff0000; opacity: 0.2; stroke: #000000; stroke-linejoin: miter"/>
    </g>
    <!-- Die Kommunalreform und -->
    <g transform="translate(112.312413 473.13743)scale(0.08 -0.08)">
     <defs>
      <path id="DejaVuSans-4b" d="M 628 4666 
L 1259 4666 
L 1259 2694 
L 3353 4666 
L 4166 4666 
L 1850 2491 
L 4331 0 
L 3500 0 
L 1259 2247 
L 1259 0 
L 628 0 
L 628 4666 
z
" transform="scale(0.015625)"/>
     </defs>
     <use xlink:href="#DejaVuSans-44"/>
     <use xlink:href="#DejaVuSans-69" x="77.001953"/>
     <use xlink:href="#DejaVuSans-65" x="104.785156"/>
     <use xlink:href="#DejaVuSans-20" x="166.308594"/>
     <use xlink:href="#DejaVuSans-4b" x="198.095703"/>
     <use xlink:href="#DejaVuSans-6f" x="258.671875"/>
     <use xlink:href="#DejaVuSans-6d" x="319.853516"/>
     <use xlink:href="#DejaVuSans-6d" x="417.265625"/>
     <use xlink:href="#DejaVuSans-75" x="514.677734"/>
     <use xlink:href="#DejaVuSans-6e" x="578.056641"/>
     <use xlink:href="#DejaVuSans-61" x="641.435547"/>
     <use xlink:href="#DejaVuSans-6c" x="702.714844"/>
     <use xlink:href="#DejaVuSans-72" x="730.498047"/>
     <use xlink:href="#DejaVuSans-65" x="769.361328"/>
     <use xlink:href="#DejaVuSans-66" x="830.884766"/>
     <use xlink:href="#DejaVuSans-6f" x="866.089844"/>
     <use xlink:href="#DejaVuSans-72" x="927.271484"/>
     <use xlink:href="#DejaVuSans-6d" x="966.634766"/>
     <use xlink:href="#DejaVuSans-20" x="1064.046875"/>
     <use xlink:href="#DejaVuSans-75" x="1095.833984"/>
     <use xlink:href="#DejaVuSans-6e" x="1159.212891"/>
     <use xlink:href="#DejaVuSans-64" x="1222.591797"/>
    </g>
    <!-- die Kölnische Zeitung -->
    <g transform="translate(112.312413 482.09568)scale(0.08 -0.08)">
     <defs>
      <path id="DejaVuSans-f6" d="M 1959 3097 
Q 1497 3097 1228 2736 
Q 959 2375 959 1747 
Q 959 1119 1226 758 
Q 1494 397 1959 397 
Q 2419 397 2687 759 
Q 2956 1122 2956 1747 
Q 2956 2369 2687 2733 
Q 2419 3097 1959 3097 
z
M 1959 3584 
Q 2709 3584 3137 3096 
Q 3566 2609 3566 1747 
Q 3566 888 3137 398 
Q 2709 -91 1959 -91 
Q 1206 -91 779 398 
Q 353 888 353 1747 
Q 353 2609 779 3096 
Q 1206 3584 1959 3584 
z
M 2254 4850 
L 2888 4850 
L 2888 4219 
L 2254 4219 
L 2254 4850 
z
M 1032 4850 
L 1666 4850 
L 1666 4219 
L 1032 4219 
L 1032 4850 
z
" transform="scale(0.015625)"/>
      <path id="DejaVuSans-5a" d="M 359 4666 
L 4025 4666 
L 4025 4184 
L 1075 531 
L 4097 531 
L 4097 0 
L 288 0 
L 288 481 
L 3238 4134 
L 359 4134 
L 359 4666 
z
" transform="scale(0.015625)"/>
     </defs>
     <use xlink:href="#DejaVuSans-64"/>
     <use xlink:href="#DejaVuSans-69" x="63.476562"/>
     <use xlink:href="#DejaVuSans-65" x="91.259766"/>
     <use xlink:href="#DejaVuSans-20" x="152.783203"/>
     <use xlink:href="#DejaVuSans-4b" x="184.570312"/>
     <use xlink:href="#DejaVuSans-f6" x="245.146484"/>
     <use xlink:href="#DejaVuSans-6c" x="306.328125"/>
     <use xlink:href="#DejaVuSans-6e" x="334.111328"/>
     <use xlink:href="#DejaVuSans-69" x="397.490234"/>
     <use xlink:href="#DejaVuSans-73" x="425.273438"/>
     <use xlink:href="#DejaVuSans-63" x="477.373047"/>
     <use xlink:href="#DejaVuSans-68" x="532.353516"/>
     <use xlink:href="#DejaVuSans-65" x="595.732422"/>
     <use xlink:href="#DejaVuSans-20" x="657.255859"/>
     <use xlink:href="#DejaVuSans-5a" x="689.042969"/>
     <use xlink:href="#DejaVuSans-65" x="757.548828"/>
     <use xlink:href="#DejaVuSans-69" x="819.072266"/>
     <use xlink:href="#DejaVuSans-74" x="846.855469"/>
     <use xlink:href="#DejaVuSans-75" x="886.064453"/>
     <use xlink:href="#DejaVuSans-6e" x="949.443359"/>
     <use xlink:href="#DejaVuSans-67" x="1012.822266"/>
    </g>
   </g>
   <g id="text_27">
    <g id="patch_11">
     <path d="M 554.635117 132.882565 
L 625.351367 132.882565 
L 625.351367 108.181815 
L 554.635117 108.181815 
z
" style="fill: #ff0000; opacity: 0.2; stroke: #000000; stroke-linejoin: miter"/>
    </g>
    <!-- Paris Commune -->
    <g transform="translate(558.635117 118.260565)scale(0.08 -0.08)">
     <use xlink:href="#DejaVuSans-50"/>
     <use xlink:href="#DejaVuSans-61" x="55.802734"/>
     <use xlink:href="#DejaVuSans-72" x="117.082031"/>
     <use xlink:href="#DejaVuSans-69" x="158.195312"/>
     <use xlink:href="#DejaVuSans-73" x="185.978516"/>
     <use xlink:href="#DejaVuSans-20" x="238.078125"/>
     <use xlink:href="#DejaVuSans-43" x="269.865234"/>
     <use xlink:href="#DejaVuSans-6f" x="339.689453"/>
     <use xlink:href="#DejaVuSans-6d" x="400.871094"/>
     <use xlink:href="#DejaVuSans-6d" x="498.283203"/>
     <use xlink:href="#DejaVuSans-75" x="595.695312"/>
     <use xlink:href="#DejaVuSans-6e" x="659.074219"/>
     <use xlink:href="#DejaVuSans-65" x="722.453125"/>
    </g>
    <!-- proclaimed -->
    <g transform="translate(558.635117 127.218815)scale(0.08 -0.08)">
     <use xlink:href="#DejaVuSans-70"/>
     <use xlink:href="#DejaVuSans-72" x="63.476562"/>
     <use xlink:href="#DejaVuSans-6f" x="102.339844"/>
     <use xlink:href="#DejaVuSans-63" x="163.521484"/>
     <use xlink:href="#DejaVuSans-6c" x="218.501953"/>
     <use xlink:href="#DejaVuSans-61" x="246.285156"/>
     <use xlink:href="#DejaVuSans-69" x="307.564453"/>
     <use xlink:href="#DejaVuSans-6d" x="335.347656"/>
     <use xlink:href="#DejaVuSans-65" x="432.759766"/>
     <use xlink:href="#DejaVuSans-64" x="494.283203"/>
    </g>
   </g>
   <g id="text_28">
    <g id="patch_12">
     <path d="M 413.442855 102.228749 
L 506.589105 102.228749 
L 506.589105 77.527999 
L 413.442855 77.527999 
z
" style="fill: #ff0000; opacity: 0.2; stroke: #000000; stroke-linejoin: miter"/>
    </g>
    <!-- Eine Niederlage des -->
    <g transform="translate(417.442855 87.606749)scale(0.08 -0.08)">
     <defs>
      <path id="DejaVuSans-4e" d="M 628 4666 
L 1478 4666 
L 3547 763 
L 3547 4666 
L 4159 4666 
L 4159 0 
L 3309 0 
L 1241 3903 
L 1241 0 
L 628 0 
L 628 4666 
z
" transform="scale(0.015625)"/>
     </defs>
     <use xlink:href="#DejaVuSans-45"/>
     <use xlink:href="#DejaVuSans-69" x="63.183594"/>
     <use xlink:href="#DejaVuSans-6e" x="90.966797"/>
     <use xlink:href="#DejaVuSans-65" x="154.345703"/>
     <use xlink:href="#DejaVuSans-20" x="215.869141"/>
     <use xlink:href="#DejaVuSans-4e" x="247.65625"/>
     <use xlink:href="#DejaVuSans-69" x="322.460938"/>
     <use xlink:href="#DejaVuSans-65" x="350.244141"/>
     <use xlink:href="#DejaVuSans-64" x="411.767578"/>
     <use xlink:href="#DejaVuSans-65" x="475.244141"/>
     <use xlink:href="#DejaVuSans-72" x="536.767578"/>
     <use xlink:href="#DejaVuSans-6c" x="577.880859"/>
     <use xlink:href="#DejaVuSans-61" x="605.664062"/>
     <use xlink:href="#DejaVuSans-67" x="666.943359"/>
     <use xlink:href="#DejaVuSans-65" x="730.419922"/>
     <use xlink:href="#DejaVuSans-20" x="791.943359"/>
     <use xlink:href="#DejaVuSans-64" x="823.730469"/>
     <use xlink:href="#DejaVuSans-65" x="887.207031"/>
     <use xlink:href="#DejaVuSans-73" x="948.730469"/>
    </g>
    <!-- Kabinetts Palmerston -->
    <g transform="translate(417.442855 96.564999)scale(0.08 -0.08)">
     <use xlink:href="#DejaVuSans-4b"/>
     <use xlink:href="#DejaVuSans-61" x="63.826172"/>
     <use xlink:href="#DejaVuSans-62" x="125.105469"/>
     <use xlink:href="#DejaVuSans-69" x="188.582031"/>
     <use xlink:href="#DejaVuSans-6e" x="216.365234"/>
     <use xlink:href="#DejaVuSans-65" x="279.744141"/>
     <use xlink:href="#DejaVuSans-74" x="341.267578"/>
     <use xlink:href="#DejaVuSans-74" x="380.476562"/>
     <use xlink:href="#DejaVuSans-73" x="419.685547"/>
     <use xlink:href="#DejaVuSans-20" x="471.785156"/>
     <use xlink:href="#DejaVuSans-50" x="503.572266"/>
     <use xlink:href="#DejaVuSans-61" x="559.375"/>
     <use xlink:href="#DejaVuSans-6c" x="620.654297"/>
     <use xlink:href="#DejaVuSans-6d" x="648.4375"/>
     <use xlink:href="#DejaVuSans-65" x="745.849609"/>
     <use xlink:href="#DejaVuSans-72" x="807.373047"/>
     <use xlink:href="#DejaVuSans-73" x="848.486328"/>
     <use xlink:href="#DejaVuSans-74" x="900.585938"/>
     <use xlink:href="#DejaVuSans-6f" x="939.794922"/>
     <use xlink:href="#DejaVuSans-6e" x="1000.976562"/>
    </g>
   </g>
   <g id="text_29">
    <!-- Marx's Similarity to Political-Economic Discourse (0.0 = Equidistant to Centroids) -->
    <g transform="translate(163.340625 67.44)scale(0.12 -0.12)">
     <defs>
      <path id="DejaVuSans-28" d="M 1984 4856 
Q 1566 4138 1362 3434 
Q 1159 2731 1159 2009 
Q 1159 1288 1364 580 
Q 1569 -128 1984 -844 
L 1484 -844 
Q 1016 -109 783 600 
Q 550 1309 550 2009 
Q 550 2706 781 3412 
Q 1013 4119 1484 4856 
L 1984 4856 
z
" transform="scale(0.015625)"/>
      <path id="DejaVuSans-3d" d="M 678 2906 
L 4684 2906 
L 4684 2381 
L 678 2381 
L 678 2906 
z
M 678 1631 
L 4684 1631 
L 4684 1100 
L 678 1100 
L 678 1631 
z
" transform="scale(0.015625)"/>
      <path id="DejaVuSans-29" d="M 513 4856 
L 1013 4856 
Q 1481 4119 1714 3412 
Q 1947 2706 1947 2009 
Q 1947 1309 1714 600 
Q 1481 -109 1013 -844 
L 513 -844 
Q 928 -128 1133 580 
Q 1338 1288 1338 2009 
Q 1338 2731 1133 3434 
Q 928 4138 513 4856 
z
" transform="scale(0.015625)"/>
     </defs>
     <use xlink:href="#DejaVuSans-4d"/>
     <use xlink:href="#DejaVuSans-61" x="86.279297"/>
     <use xlink:href="#DejaVuSans-72" x="147.558594"/>
     <use xlink:href="#DejaVuSans-78" x="186.046875"/>
     <use xlink:href="#DejaVuSans-27" x="245.226562"/>
     <use xlink:href="#DejaVuSans-73" x="272.716797"/>
     <use xlink:href="#DejaVuSans-20" x="324.816406"/>
     <use xlink:href="#DejaVuSans-53" x="356.603516"/>
     <use xlink:href="#DejaVuSans-69" x="420.080078"/>
     <use xlink:href="#DejaVuSans-6d" x="447.863281"/>
     <use xlink:href="#DejaVuSans-69" x="545.275391"/>
     <use xlink:href="#DejaVuSans-6c" x="573.058594"/>
     <use xlink:href="#DejaVuSans-61" x="600.841797"/>
     <use xlink:href="#DejaVuSans-72" x="662.121094"/>
     <use xlink:href="#DejaVuSans-69" x="703.234375"/>
     <use xlink:href="#DejaVuSans-74" x="731.017578"/>
     <use xlink:href="#DejaVuSans-79" x="770.226562"/>
     <use xlink:href="#DejaVuSans-20" x="829.40625"/>
     <use xlink:href="#DejaVuSans-74" x="861.193359"/>
     <use xlink:href="#DejaVuSans-6f" x="900.402344"/>
     <use xlink:href="#DejaVuSans-20" x="961.583984"/>
     <use xlink:href="#DejaVuSans-50" x="993.371094"/>
     <use xlink:href="#DejaVuSans-6f" x="1050.048828"/>
     <use xlink:href="#DejaVuSans-6c" x="1111.230469"/>
     <use xlink:href="#DejaVuSans-69" x="1139.013672"/>
     <use xlink:href="#DejaVuSans-74" x="1166.796875"/>
     <use xlink:href="#DejaVuSans-69" x="1206.005859"/>
     <use xlink:href="#DejaVuSans-63" x="1233.789062"/>
     <use xlink:href="#DejaVuSans-61" x="1288.769531"/>
     <use xlink:href="#DejaVuSans-6c" x="1350.048828"/>
     <use xlink:href="#DejaVuSans-2d" x="1377.832031"/>
     <use xlink:href="#DejaVuSans-45" x="1413.916016"/>
     <use xlink:href="#DejaVuSans-63" x="1477.099609"/>
     <use xlink:href="#DejaVuSans-6f" x="1532.080078"/>
     <use xlink:href="#DejaVuSans-6e" x="1593.261719"/>
     <use xlink:href="#DejaVuSans-6f" x="1656.640625"/>
     <use xlink:href="#DejaVuSans-6d" x="1717.822266"/>
     <use xlink:href="#DejaVuSans-69" x="1815.234375"/>
     <use xlink:href="#DejaVuSans-63" x="1843.017578"/>
     <use xlink:href="#DejaVuSans-20" x="1897.998047"/>
     <use xlink:href="#DejaVuSans-44" x="1929.785156"/>
     <use xlink:href="#DejaVuSans-69" x="2006.787109"/>
     <use xlink:href="#DejaVuSans-73" x="2034.570312"/>
     <use xlink:href="#DejaVuSans-63" x="2086.669922"/>
     <use xlink:href="#DejaVuSans-6f" x="2141.650391"/>
     <use xlink:href="#DejaVuSans-75" x="2202.832031"/>
     <use xlink:href="#DejaVuSans-72" x="2266.210938"/>
     <use xlink:href="#DejaVuSans-73" x="2307.324219"/>
     <use xlink:href="#DejaVuSans-65" x="2359.423828"/>
     <use xlink:href="#DejaVuSans-20" x="2420.947266"/>
     <use xlink:href="#DejaVuSans-28" x="2452.734375"/>
     <use xlink:href="#DejaVuSans-30" x="2491.748047"/>
     <use xlink:href="#DejaVuSans-2e" x="2555.371094"/>
     <use xlink:href="#DejaVuSans-30" x="2587.158203"/>
     <use xlink:href="#DejaVuSans-20" x="2650.78125"/>
     <use xlink:href="#DejaVuSans-3d" x="2682.568359"/>
     <use xlink:href="#DejaVuSans-20" x="2766.357422"/>
     <use xlink:href="#DejaVuSans-45" x="2798.144531"/>
     <use xlink:href="#DejaVuSans-71" x="2861.328125"/>
     <use xlink:href="#DejaVuSans-75" x="2924.804688"/>
     <use xlink:href="#DejaVuSans-69" x="2988.183594"/>
     <use xlink:href="#DejaVuSans-64" x="3015.966797"/>
     <use xlink:href="#DejaVuSans-69" x="3079.443359"/>
     <use xlink:href="#DejaVuSans-73" x="3107.226562"/>
     <use xlink:href="#DejaVuSans-74" x="3159.326172"/>
     <use xlink:href="#DejaVuSans-61" x="3198.535156"/>
     <use xlink:href="#DejaVuSans-6e" x="3259.814453"/>
     <use xlink:href="#DejaVuSans-74" x="3323.193359"/>
     <use xlink:href="#DejaVuSans-20" x="3362.402344"/>
     <use xlink:href="#DejaVuSans-74" x="3394.189453"/>
     <use xlink:href="#DejaVuSans-6f" x="3433.398438"/>
     <use xlink:href="#DejaVuSans-20" x="3494.580078"/>
     <use xlink:href="#DejaVuSans-43" x="3526.367188"/>
     <use xlink:href="#DejaVuSans-65" x="3596.191406"/>
     <use xlink:href="#DejaVuSans-6e" x="3657.714844"/>
     <use xlink:href="#DejaVuSans-74" x="3721.09375"/>
     <use xlink:href="#DejaVuSans-72" x="3760.302734"/>
     <use xlink:href="#DejaVuSans-6f" x="3799.166016"/>
     <use xlink:href="#DejaVuSans-69" x="3860.347656"/>
     <use xlink:href="#DejaVuSans-64" x="3888.130859"/>
     <use xlink:href="#DejaVuSans-73" x="3951.607422"/>
     <use xlink:href="#DejaVuSans-29" x="4003.707031"/>
    </g>
   </g>
   <g id="legend_1">
    <g id="patch_13">
     <path d="M 579.810938 96.118125 
L 705.8 96.118125 
Q 707.8 96.118125 707.8 94.118125 
L 707.8 80.44 
Q 707.8 78.44 705.8 78.44 
L 579.810938 78.44 
Q 577.810938 78.44 577.810938 80.44 
L 577.810938 94.118125 
Q 577.810938 96.118125 579.810938 96.118125 
z
" style="fill: #ffffff; opacity: 0.8; stroke: #cccccc; stroke-linejoin: miter"/>
    </g>
    <g id="line2d_29">
     <path d="M 581.810938 86.538437 
L 591.810938 86.538437 
L 601.810938 86.538437 
" style="fill: none; stroke: #1f77b4; stroke-width: 1.5; stroke-linecap: square"/>
    </g>
    <g id="text_30">
     <!-- PE Similarity Score -->
     <g transform="translate(609.810938 90.038437)scale(0.1 -0.1)">
      <use xlink:href="#DejaVuSans-50"/>
      <use xlink:href="#DejaVuSans-45" x="60.302734"/>
      <use xlink:href="#DejaVuSans-20" x="123.486328"/>
      <use xlink:href="#DejaVuSans-53" x="155.273438"/>
      <use xlink:href="#DejaVuSans-69" x="218.75"/>
      <use xlink:href="#DejaVuSans-6d" x="246.533203"/>
      <use xlink:href="#DejaVuSans-69" x="343.945312"/>
      <use xlink:href="#DejaVuSans-6c" x="371.728516"/>
      <use xlink:href="#DejaVuSans-61" x="399.511719"/>
      <use xlink:href="#DejaVuSans-72" x="460.791016"/>
      <use xlink:href="#DejaVuSans-69" x="501.904297"/>
      <use xlink:href="#DejaVuSans-74" x="529.6875"/>
      <use xlink:href="#DejaVuSans-79" x="568.896484"/>
      <use xlink:href="#DejaVuSans-20" x="628.076172"/>
      <use xlink:href="#DejaVuSans-53" x="659.863281"/>
      <use xlink:href="#DejaVuSans-63" x="723.339844"/>
      <use xlink:href="#DejaVuSans-6f" x="778.320312"/>
      <use xlink:href="#DejaVuSans-72" x="839.501953"/>
      <use xlink:href="#DejaVuSans-65" x="878.365234"/>
     </g>
    </g>
   </g>
  </g>
 </g>
 <defs>
  <clipPath id="p7764bcd450">
   <rect x="99" y="73.44" width="613.8" height="416.16"/>
  </clipPath>
 </defs>
</svg>
